<svg xmlns="http://www.w3.org/2000/svg" xmlns:xlink="http://www.w3.org/1999/xlink" width="108" height="108" viewBox="0 0 108 108">
  <defs>
    <filter id="Trazado_982547" x="0" y="0" width="108" height="108" filterUnits="userSpaceOnUse">
      <feOffset dy="3" input="SourceAlpha"/>
      <feGaussianBlur stdDeviation="3" result="blur"/>
      <feFlood flood-opacity="0.161"/>
      <feComposite operator="in" in2="blur"/>
      <feComposite in="SourceGraphic"/>
    </filter>
  </defs>
  <g id="Grupo_1153147" data-name="Grupo 1153147" transform="translate(-617 -1733)">
    <g id="Grupo_1146629" data-name="Grupo 1146629" transform="translate(0 276)">
      <g id="Grupo_1146627" data-name="Grupo 1146627" transform="translate(1 -2526)">
        <g transform="matrix(1, 0, 0, 1, 616, 3983)" filter="url(#Trazado_982547)">
          <g id="Trazado_982547-2" data-name="Trazado 982547" transform="translate(9 6)" fill="#f3f3f3">
            <path d="M 45 88.5 C 39.12687683105469 88.5 33.43022537231445 87.35007476806641 28.06830024719238 85.08217620849609 C 22.88852500915527 82.89131164550781 18.23629951477051 79.75458526611328 14.2408504486084 75.75914764404297 C 10.24541282653809 71.76370239257812 7.108687400817871 67.11147308349609 4.917825222015381 61.93170166015625 C 2.649924993515015 56.56977462768555 1.5 50.87312316894531 1.5 45 C 1.5 39.12687683105469 2.649924993515015 33.43022537231445 4.917825222015381 28.06830024719238 C 7.108687400817871 22.88852500915527 10.24541282653809 18.23629951477051 14.2408504486084 14.2408504486084 C 18.23629951477051 10.24541282653809 22.88852500915527 7.108687400817871 28.06830024719238 4.917825222015381 C 33.43022537231445 2.649924993515015 39.12687683105469 1.5 45 1.5 C 50.87312316894531 1.5 56.56977462768555 2.649924993515015 61.93170166015625 4.917825222015381 C 67.11147308349609 7.108687400817871 71.76370239257812 10.24541282653809 75.75914764404297 14.2408504486084 C 79.75458526611328 18.23629951477051 82.89131164550781 22.88852500915527 85.08217620849609 28.06830024719238 C 87.35007476806641 33.43022537231445 88.5 39.12687683105469 88.5 45 C 88.5 50.87312316894531 87.35007476806641 56.56977462768555 85.08217620849609 61.93170166015625 C 82.89131164550781 67.11147308349609 79.75458526611328 71.76370239257812 75.75914764404297 75.75914764404297 C 71.76370239257812 79.75458526611328 67.11147308349609 82.89131164550781 61.93170166015625 85.08217620849609 C 56.56977462768555 87.35007476806641 50.87312316894531 88.5 45 88.5 Z" stroke="none"/>
            <path d="M 45 3 C 39.32871246337891 3 33.82865524291992 4.110054016113281 28.65262985229492 6.299339294433594 C 23.65165710449219 8.414573669433594 19.15968322753906 11.44334411621094 15.301513671875 15.301513671875 C 11.44334411621094 19.15968322753906 8.414573669433594 23.65165710449219 6.299339294433594 28.65262985229492 C 4.110054016113281 33.82865524291992 3 39.32871246337891 3 45 C 3 50.67128753662109 4.110054016113281 56.17134475708008 6.299339294433594 61.34737396240234 C 8.414573669433594 66.34834289550781 11.44334411621094 70.84031677246094 15.301513671875 74.698486328125 C 19.15968322753906 78.55665588378906 23.65165710449219 81.58542633056641 28.65262985229492 83.70066070556641 C 33.82865524291992 85.88994598388672 39.32871246337891 87 45 87 C 50.67128753662109 87 56.17134475708008 85.88994598388672 61.34737396240234 83.70066070556641 C 66.34834289550781 81.58542633056641 70.84031677246094 78.55665588378906 74.698486328125 74.698486328125 C 78.55665588378906 70.84031677246094 81.58542633056641 66.34834289550781 83.70066070556641 61.34737396240234 C 85.88994598388672 56.17134475708008 87 50.67128753662109 87 45 C 87 39.32871246337891 85.88994598388672 33.82865524291992 83.70066070556641 28.65262985229492 C 81.58542633056641 23.65165710449219 78.55665588378906 19.15968322753906 74.698486328125 15.301513671875 C 70.84031677246094 11.44334411621094 66.34834289550781 8.414573669433594 61.34737396240234 6.299339294433594 C 56.17134475708008 4.110054016113281 50.67128753662109 3 45 3 M 45 0 C 69.85281372070312 0 90 20.14718627929688 90 45 C 90 69.85281372070312 69.85281372070312 90 45 90 C 20.14718627929688 90 0 69.85281372070312 0 45 C 0 20.14718627929688 20.14718627929688 0 45 0 Z" stroke="none" fill="#20796e"/>
          </g>
        </g>
      </g>
    </g>
    <g id="derecho-laboral" transform="translate(633.198 1744.241)">
      <g id="Icon" transform="translate(10.383 3.066)">
        <path id="Trazado_988915" data-name="Trazado 988915" d="M50.1,10.219a20.722,20.722,0,0,0-27.5,0c3.447,5.767,4.313,12.515,3.232,20H46.865C45.783,22.734,46.649,15.986,50.1,10.219Z" transform="translate(-7.137 -2.232)" fill="#ff8f00"/>
        <g id="Grupo_1153146" data-name="Grupo 1153146" transform="translate(8.402)">
          <path id="Trazado_988916" data-name="Trazado 988916" d="M34.69,21.967a4.288,4.288,0,0,1-4.261-3.808L28.942,4.934c0-2.839,11.5-2.839,11.5,0L38.951,18.158a4.288,4.288,0,0,1-4.261,3.808Z" transform="translate(-13.883 -2.805)" fill="#ffc107"/>
          <path id="Trazado_988917" data-name="Trazado 988917" d="M24.057,9.139A20.736,20.736,0,0,0,17,24.727V29.14H27.289C28.37,21.653,27.5,14.906,24.057,9.139Z" transform="translate(-17 -1.152)" fill="#ffc107"/>
          <path id="Trazado_988918" data-name="Trazado 988918" d="M52.22,24.727a20.738,20.738,0,0,0-7.06-15.59c-3.444,5.77-4.31,12.517-3.229,20H52.22Z" transform="translate(-10.606 -1.152)" fill="#ffc107"/>
        </g>
        <rect id="Rectángulo_408045" data-name="Rectángulo 408045" width="27.743" height="3.783" rx="1.5" transform="translate(15.968 69.603)" fill="#424242"/>
        <path id="Trazado_988919" data-name="Trazado 988919" d="M27.522,54H45.177A2.522,2.522,0,0,1,47.7,56.522v2.522H25V56.522A2.522,2.522,0,0,1,27.522,54Z" transform="translate(-6.51 10.559)" fill="#616161"/>
        <path id="Trazado_988920" data-name="Trazado 988920" d="M0,0H5.044V20.177a2.522,2.522,0,0,1-5.044,0Z" transform="translate(16.048 48.928) rotate(45)" fill="#6d4c41"/>
        <path id="Trazado_988921" data-name="Trazado 988921" d="M0,0H20.177V12.61H0Z" transform="translate(19.612 34.661) rotate(45)" fill="#8d6e63"/>
        <rect id="Rectángulo_408046" data-name="Rectángulo 408046" width="3.783" height="15.133" rx="1.5" transform="translate(34.771 48.034) rotate(45)" fill="#6d4c41"/>
        <rect id="Rectángulo_408047" data-name="Rectángulo 408047" width="49.181" height="7.566" rx="3" transform="translate(4.619 27.989)" fill="#ef6c00"/>
        <rect id="Rectángulo_408048" data-name="Rectángulo 408048" width="3.783" height="15.133" rx="1.5" transform="translate(17.829 31.095) rotate(45)" fill="#6d4c41"/>
      </g>
      <g id="Line" transform="translate(10.161 1.805)">
        <path id="Trazado_988922" data-name="Trazado 988922" d="M52.833,71.472V70.147a3.783,3.783,0,0,0-3.783-3.783H31.4a3.783,3.783,0,0,0-3.783,3.783v1.325a3.153,3.153,0,0,0,.631,6.241H52.2a3.153,3.153,0,0,0,.631-6.241Zm-22.7-1.325A1.261,1.261,0,0,1,31.4,68.886H49.05a1.261,1.261,0,0,1,1.261,1.261v1.261H30.135ZM52.2,75.191H28.243a.631.631,0,0,1,0-1.261H52.2a.631.631,0,0,1,0,1.261Zm9.458-45.219V26.641A22.081,22.081,0,0,0,46.551,5.726l.044-.39A1.351,1.351,0,0,0,46.6,5.2c0-2.5-3.621-3.39-7.01-3.39s-7.01.89-7.01,3.39a1.349,1.349,0,0,0,.007.141l.044.39a22.081,22.081,0,0,0-15.11,20.915v3.332a5.034,5.034,0,0,0,1.261,9.909h1.929l-2.757,2.757a3.142,3.142,0,0,0,2.665,5.339L24.645,52,11.269,65.377a3.783,3.783,0,1,0,5.35,5.35L29.995,57.352l4.027,4.028a3.114,3.114,0,0,0,.877,2.66,3.156,3.156,0,0,0,4.458,0l8.026-8.025a3.157,3.157,0,0,0,0-4.459h0a3.179,3.179,0,0,0-2.639-.855L33.925,39.882H60.4a5.034,5.034,0,0,0,1.261-9.909ZM14.836,68.944a1.261,1.261,0,1,1-1.783-1.783L26.428,53.785l1.783,1.784Zm44.3-42.3v3.153H51.247a28.585,28.585,0,0,1,2.428-16.663,19.437,19.437,0,0,1,5.464,13.51ZM39.592,4.327a8.639,8.639,0,0,1,4.48.86L42.6,18.278a3.026,3.026,0,0,1-6.015,0L35.12,5.251a7.881,7.881,0,0,1,4.473-.924ZM34.078,18.56a5.549,5.549,0,0,0,11.029,0L46.262,8.292a19.555,19.555,0,0,1,5.469,3.062c-2.841,5.209-3.838,11.325-3.028,18.44H30.482c.811-7.115-.186-13.23-3.028-18.44a19.555,19.555,0,0,1,5.469-3.062ZM20.046,26.641a19.437,19.437,0,0,1,5.463-13.51,28.585,28.585,0,0,1,2.429,16.662H20.046ZM19.74,44.423,27.765,36.4a.6.6,0,0,1,.892,0,.631.631,0,0,1,0,.892L24.645,41.3l-4.012,4.013a.631.631,0,1,1-.893-.892Zm6.688-1.338,3.566-3.567L42.479,52l-7.134,7.134L22.861,46.652ZM45.6,54.232l-8.026,8.025a.633.633,0,0,1-.892,0,.608.608,0,0,1,0-.892l8.026-8.026a.6.6,0,0,1,.892,0,.63.63,0,0,1,0,.892ZM60.4,37.36h-29l-.082-.082a3.14,3.14,0,0,0-.88-2.664,3.229,3.229,0,0,0-4.458,0L23.236,37.36H18.785a2.522,2.522,0,0,1,0-5.044H60.4a2.522,2.522,0,0,1,0,5.044Z" transform="translate(-10.161 -1.805)"/>
      </g>
    </g>
  </g>
</svg>
