<svg xmlns="http://www.w3.org/2000/svg" xmlns:xlink="http://www.w3.org/1999/xlink" width="108" height="108" viewBox="0 0 108 108">
  <defs>
    <filter id="Trazado_982549" x="0" y="0" width="108" height="108" filterUnits="userSpaceOnUse">
      <feOffset dy="3" input="SourceAlpha"/>
      <feGaussianBlur stdDeviation="3" result="blur"/>
      <feFlood flood-opacity="0.161"/>
      <feComposite operator="in" in2="blur"/>
      <feComposite in="SourceGraphic"/>
    </filter>
  </defs>
  <g id="Grupo_1153293" data-name="Grupo 1153293" transform="translate(-448 -706)">
    <g id="Grupo_1149030" data-name="Grupo 1149030" transform="translate(-173 371)">
      <g id="Grupo_1146639" data-name="Grupo 1146639" transform="translate(420 -822)">
        <g transform="matrix(1, 0, 0, 1, 201, 1157)" filter="url(#Trazado_982549)">
          <g id="Trazado_982549-2" data-name="Trazado 982549" transform="translate(9 6)" fill="#faece9">
            <path d="M 45 88.5 C 39.12687683105469 88.5 33.43022537231445 87.35007476806641 28.06830024719238 85.08217620849609 C 22.88852500915527 82.89131164550781 18.23629951477051 79.75458526611328 14.2408504486084 75.75914764404297 C 10.24541282653809 71.76370239257812 7.108687400817871 67.11147308349609 4.917825222015381 61.93170166015625 C 2.649924993515015 56.56977462768555 1.5 50.87312316894531 1.5 45 C 1.5 39.12687683105469 2.649924993515015 33.43022537231445 4.917825222015381 28.06830024719238 C 7.108687400817871 22.88852500915527 10.24541282653809 18.23629951477051 14.2408504486084 14.2408504486084 C 18.23629951477051 10.24541282653809 22.88852500915527 7.108687400817871 28.06830024719238 4.917825222015381 C 33.43022537231445 2.649924993515015 39.12687683105469 1.5 45 1.5 C 50.87312316894531 1.5 56.56977462768555 2.649924993515015 61.93170166015625 4.917825222015381 C 67.11147308349609 7.108687400817871 71.76370239257812 10.24541282653809 75.75914764404297 14.2408504486084 C 79.75458526611328 18.23629951477051 82.89131164550781 22.88852500915527 85.08217620849609 28.06830024719238 C 87.35007476806641 33.43022537231445 88.5 39.12687683105469 88.5 45 C 88.5 50.87312316894531 87.35007476806641 56.56977462768555 85.08217620849609 61.93170166015625 C 82.89131164550781 67.11147308349609 79.75458526611328 71.76370239257812 75.75914764404297 75.75914764404297 C 71.76370239257812 79.75458526611328 67.11147308349609 82.89131164550781 61.93170166015625 85.08217620849609 C 56.56977462768555 87.35007476806641 50.87312316894531 88.5 45 88.5 Z" stroke="none"/>
            <path d="M 45 3 C 39.32871246337891 3 33.82865524291992 4.110054016113281 28.65262985229492 6.299339294433594 C 23.65165710449219 8.414573669433594 19.15968322753906 11.44334411621094 15.301513671875 15.301513671875 C 11.44334411621094 19.15968322753906 8.414573669433594 23.65165710449219 6.299339294433594 28.65262985229492 C 4.110054016113281 33.82865524291992 3 39.32871246337891 3 45 C 3 50.67128753662109 4.110054016113281 56.17134475708008 6.299339294433594 61.34737396240234 C 8.414573669433594 66.34834289550781 11.44334411621094 70.84031677246094 15.301513671875 74.698486328125 C 19.15968322753906 78.55665588378906 23.65165710449219 81.58542633056641 28.65262985229492 83.70066070556641 C 33.82865524291992 85.88994598388672 39.32871246337891 87 45 87 C 50.67128753662109 87 56.17134475708008 85.88994598388672 61.34737396240234 83.70066070556641 C 66.34834289550781 81.58542633056641 70.84031677246094 78.55665588378906 74.698486328125 74.698486328125 C 78.55665588378906 70.84031677246094 81.58542633056641 66.34834289550781 83.70066070556641 61.34737396240234 C 85.88994598388672 56.17134475708008 87 50.67128753662109 87 45 C 87 39.32871246337891 85.88994598388672 33.82865524291992 83.70066070556641 28.65262985229492 C 81.58542633056641 23.65165710449219 78.55665588378906 19.15968322753906 74.698486328125 15.301513671875 C 70.84031677246094 11.44334411621094 66.34834289550781 8.414573669433594 61.34737396240234 6.299339294433594 C 56.17134475708008 4.110054016113281 50.67128753662109 3 45 3 M 45 0 C 69.85281372070312 0 90 20.14718627929688 90 45 C 90 69.85281372070312 69.85281372070312 90 45 90 C 20.14718627929688 90 0 69.85281372070312 0 45 C 0 20.14718627929688 20.14718627929688 0 45 0 Z" stroke="none" fill="#f97c61"/>
          </g>
        </g>
      </g>
    </g>
    <g id="Layer_2" data-name="Layer 2" transform="translate(467.248 722.064)">
      <path id="Trazado_988923" data-name="Trazado 988923" d="M34.293,3h0A26.434,26.434,0,0,0,8.124,25.7L7,33.569H61.587L60.462,25.7A26.434,26.434,0,0,0,34.293,3Z" transform="translate(0.459 0.275)" fill="#f8c460"/>
      <path id="Trazado_988924" data-name="Trazado 988924" d="M18.227,29.773A6.9,6.9,0,0,1,11.4,21.9h0A26.33,26.33,0,0,1,17.316,8.672a26.364,26.364,0,0,0-9.191,16.5L7,33.048H61.587l-.468-3.275Z" transform="translate(0.459 0.796)" fill="#faaf42"/>
      <path id="Trazado_988925" data-name="Trazado 988925" d="M35.167,29.385H30.179a2.183,2.183,0,0,1-2.158-1.856L24.713,6.022A4.367,4.367,0,0,1,29.029,1h7.288a4.367,4.367,0,0,1,4.316,5.031L37.325,27.538A2.183,2.183,0,0,1,35.167,29.385Z" transform="translate(2.079 0.092)" fill="#faaf42"/>
      <rect id="Rectángulo_408049" data-name="Rectángulo 408049" width="63" height="6" rx="3" transform="translate(2.999 34)" fill="#f8c460"/>
      <path id="Trazado_988926" data-name="Trazado 988926" d="M6.275,34.275A3.275,3.275,0,0,1,9.55,31H6.275a3.275,3.275,0,1,0,0,6.55H9.55A3.275,3.275,0,0,1,6.275,34.275Z" transform="translate(0.092 2.844)" fill="#faaf42"/>
      <path id="Trazado_988927" data-name="Trazado 988927" d="M63.954,39.183V37H50.8a16.356,16.356,0,0,1-32.643,0H5v2.183l4.663.583a24.934,24.934,0,0,0,1.4,5.206L7.311,47.808l3.275,5.677,4.336-1.83a25.232,25.232,0,0,0,3.809,3.809L16.9,59.8l5.677,3.275,2.839-3.749a24.934,24.934,0,0,0,5.206,1.4l.58,4.663h6.55l.583-4.663a24.934,24.934,0,0,0,5.206-1.4l2.839,3.749L52.057,59.8l-1.83-4.336a25.233,25.233,0,0,0,3.809-3.809l4.331,1.832,3.275-5.677L57.893,44.97a24.934,24.934,0,0,0,1.4-5.206Z" transform="translate(0.275 3.394)" fill="#d6e4e8"/>
      <path id="Trazado_988928" data-name="Trazado 988928" d="M46.436,40.275H55.4c.031-.17.067-.337.093-.509l4.663-.583V37H47a16.434,16.434,0,0,1-.561,3.275Z" transform="translate(4.076 3.394)" fill="#baced3"/>
      <path id="Trazado_988929" data-name="Trazado 988929" d="M18.155,37H5v2.183l4.663.583c.026.171.062.338.093.509h8.961A16.434,16.434,0,0,1,18.155,37Z" transform="translate(0.275 3.394)" fill="#baced3"/>
      <path id="Trazado_988930" data-name="Trazado 988930" d="M67.5,37.119a4.367,4.367,0,0,0-4.367-4.367h-.145L62,25.816A27.675,27.675,0,0,0,43.532,3.63,5.429,5.429,0,0,0,38.4,0H31.109a5.429,5.429,0,0,0-5.137,3.63A27.675,27.675,0,0,0,7.5,25.816l-.991,6.936H6.367a4.353,4.353,0,0,0-2.183,8.127v1.7a1.092,1.092,0,0,0,.956,1.083L9,44.143a26.116,26.116,0,0,0,1.033,3.842l-3.1,2.344a1.092,1.092,0,0,0-.287,1.419l3.275,5.677a1.092,1.092,0,0,0,1.37.461l3.6-1.518a26.449,26.449,0,0,0,2.809,2.809l-1.521,3.591a1.092,1.092,0,0,0,.461,1.37l5.677,3.275a1.092,1.092,0,0,0,1.419-.287l2.348-3.1a26.117,26.117,0,0,0,3.842,1.033l.483,3.858a1.092,1.092,0,0,0,1.076.956h6.55a1.092,1.092,0,0,0,1.083-.956l.483-3.858a26.117,26.117,0,0,0,3.842-1.033l2.344,3.1a1.092,1.092,0,0,0,1.419.287l5.677-3.275a1.092,1.092,0,0,0,.461-1.37L51.82,59.178a26.247,26.247,0,0,0,2.809-2.809l3.591,1.515a1.092,1.092,0,0,0,1.37-.461l3.275-5.677a1.092,1.092,0,0,0-.287-1.419l-3.1-2.348a26.117,26.117,0,0,0,1.033-3.842l3.858-.483a1.092,1.092,0,0,0,.954-1.076v-1.7a4.353,4.353,0,0,0,2.183-3.76ZM28.623,3.325a3.275,3.275,0,0,1,2.486-1.142H38.4A3.275,3.275,0,0,1,41.63,5.958L38.321,27.465a1.084,1.084,0,0,1-1.079.926H32.259a1.084,1.084,0,0,1-1.079-.926L27.874,5.958a3.275,3.275,0,0,1,.749-2.632ZM9.664,26.126A25.492,25.492,0,0,1,25.691,6.049c.009.08.011.159.024.239L29.023,27.8a3.258,3.258,0,0,0,3.236,2.773h4.987a3.258,3.258,0,0,0,3.237-2.777L43.791,6.284c.013-.08.015-.159.024-.239A25.492,25.492,0,0,1,59.84,26.126l.947,6.626H8.718ZM63.137,41.614l-3.712.464a1.092,1.092,0,0,0-.943.916,23.9,23.9,0,0,1-1.337,4.978,1.092,1.092,0,0,0,.359,1.265l2.98,2.257-2.311,4-3.442-1.455a1.092,1.092,0,0,0-1.274.32,24.22,24.22,0,0,1-3.639,3.646,1.092,1.092,0,0,0-.328,1.274l1.454,3.448-4,2.311-2.256-2.98a1.092,1.092,0,0,0-1.265-.359,23.9,23.9,0,0,1-4.978,1.337,1.092,1.092,0,0,0-.916.943l-.464,3.706H32.441l-.464-3.712a1.092,1.092,0,0,0-.916-.943A23.9,23.9,0,0,1,26.083,61.7a1.092,1.092,0,0,0-1.265.359l-2.257,2.98-4-2.311,1.455-3.442a1.092,1.092,0,0,0-.32-1.274,24.178,24.178,0,0,1-3.645-3.645,1.092,1.092,0,0,0-1.275-.321L11.326,55.5l-2.311-4,2.98-2.257a1.092,1.092,0,0,0,.359-1.265,23.9,23.9,0,0,1-1.337-4.978,1.092,1.092,0,0,0-.943-.916l-3.706-.464v-.128H17.459a17.425,17.425,0,0,0,34.586,0H63.137Zm-43.483-.128h30.2a15.249,15.249,0,0,1-30.2,0ZM63.137,39.3H6.367a2.183,2.183,0,1,1,0-4.367h56.77a2.183,2.183,0,1,1,0,4.367Z" transform="translate(0 0)"/>
    </g>
  </g>
</svg>
