<svg xmlns="http://www.w3.org/2000/svg" xmlns:xlink="http://www.w3.org/1999/xlink" width="108" height="108" viewBox="0 0 108 108">
  <defs>
    <filter id="Trazado_979055" x="0" y="0" width="108" height="108" filterUnits="userSpaceOnUse">
      <feOffset dy="3" input="SourceAlpha"/>
      <feGaussianBlur stdDeviation="3" result="blur"/>
      <feFlood flood-opacity="0.161"/>
      <feComposite operator="in" in2="blur"/>
      <feComposite in="SourceGraphic"/>
    </filter>
  </defs>
  <g id="Grupo_1156425" data-name="Grupo 1156425" transform="translate(-201 -351)">
    <g id="Grupo_1149022" data-name="Grupo 1149022" transform="translate(0 -2275)">
      <g id="Grupo_1146617" data-name="Grupo 1146617" transform="translate(0 2304)">
        <g transform="matrix(1, 0, 0, 1, 201, 322)" filter="url(#Trazado_979055)">
          <g id="Trazado_979055-2" data-name="Trazado 979055" transform="translate(9 6)" fill="#faece9">
            <path d="M 45 88.5 C 39.12687683105469 88.5 33.43022537231445 87.35007476806641 28.06830024719238 85.08217620849609 C 22.88852500915527 82.89131164550781 18.23629951477051 79.75458526611328 14.2408504486084 75.75914764404297 C 10.24541282653809 71.76370239257812 7.108687400817871 67.11147308349609 4.917825222015381 61.93170166015625 C 2.649924993515015 56.56977462768555 1.5 50.87312316894531 1.5 45 C 1.5 39.12687683105469 2.649924993515015 33.43022537231445 4.917825222015381 28.06830024719238 C 7.108687400817871 22.88852500915527 10.24541282653809 18.23629951477051 14.2408504486084 14.2408504486084 C 18.23629951477051 10.24541282653809 22.88852500915527 7.108687400817871 28.06830024719238 4.917825222015381 C 33.43022537231445 2.649924993515015 39.12687683105469 1.5 45 1.5 C 50.87312316894531 1.5 56.56977462768555 2.649924993515015 61.93170166015625 4.917825222015381 C 67.11147308349609 7.108687400817871 71.76370239257812 10.24541282653809 75.75914764404297 14.2408504486084 C 79.75458526611328 18.23629951477051 82.89131164550781 22.88852500915527 85.08217620849609 28.06830024719238 C 87.35007476806641 33.43022537231445 88.5 39.12687683105469 88.5 45 C 88.5 50.87312316894531 87.35007476806641 56.56977462768555 85.08217620849609 61.93170166015625 C 82.89131164550781 67.11147308349609 79.75458526611328 71.76370239257812 75.75914764404297 75.75914764404297 C 71.76370239257812 79.75458526611328 67.11147308349609 82.89131164550781 61.93170166015625 85.08217620849609 C 56.56977462768555 87.35007476806641 50.87312316894531 88.5 45 88.5 Z" stroke="none"/>
            <path d="M 45 3 C 39.32871246337891 3 33.82865524291992 4.110054016113281 28.65262985229492 6.299339294433594 C 23.65165710449219 8.414573669433594 19.15968322753906 11.44334411621094 15.301513671875 15.301513671875 C 11.44334411621094 19.15968322753906 8.414573669433594 23.65165710449219 6.299339294433594 28.65262985229492 C 4.110054016113281 33.82865524291992 3 39.32871246337891 3 45 C 3 50.67128753662109 4.110054016113281 56.17134475708008 6.299339294433594 61.34737396240234 C 8.414573669433594 66.34834289550781 11.44334411621094 70.84031677246094 15.301513671875 74.698486328125 C 19.15968322753906 78.55665588378906 23.65165710449219 81.58542633056641 28.65262985229492 83.70066070556641 C 33.82865524291992 85.88994598388672 39.32871246337891 87 45 87 C 50.67128753662109 87 56.17134475708008 85.88994598388672 61.34737396240234 83.70066070556641 C 66.34834289550781 81.58542633056641 70.84031677246094 78.55665588378906 74.698486328125 74.698486328125 C 78.55665588378906 70.84031677246094 81.58542633056641 66.34834289550781 83.70066070556641 61.34737396240234 C 85.88994598388672 56.17134475708008 87 50.67128753662109 87 45 C 87 39.32871246337891 85.88994598388672 33.82865524291992 83.70066070556641 28.65262985229492 C 81.58542633056641 23.65165710449219 78.55665588378906 19.15968322753906 74.698486328125 15.301513671875 C 70.84031677246094 11.44334411621094 66.34834289550781 8.414573669433594 61.34737396240234 6.299339294433594 C 56.17134475708008 4.110054016113281 50.67128753662109 3 45 3 M 45 0 C 69.85281372070312 0 90 20.14718627929688 90 45 C 90 69.85281372070312 69.85281372070312 90 45 90 C 20.14718627929688 90 0 69.85281372070312 0 45 C 0 20.14718627929688 20.14718627929688 0 45 0 Z" stroke="none" fill="#f97c61"/>
          </g>
        </g>
      </g>
    </g>
    <g id="casco" transform="translate(220.278 336.709)">
      <g id="Grupo_1153144" data-name="Grupo 1153144" transform="translate(2.058 35.366)">
        <g id="Grupo_1153142" data-name="Grupo 1153142" transform="translate(0 0)">
          <path id="Trazado_988904" data-name="Trazado 988904" d="M32.8,103.016V98.873a26.326,26.326,0,0,1,52.652,0v4.143Z" transform="translate(-29.655 -68.548)" fill="#ffda2d" fill-rule="evenodd"/>
          <path id="Trazado_988905" data-name="Trazado 988905" d="M220.718,72.588c.489-.027.98-.042,1.475-.042A26.4,26.4,0,0,1,248.52,98.872v4.143h-2.951V98.872a26.41,26.41,0,0,0-24.851-26.283Z" transform="translate(-192.72 -68.547)" fill="#ffc700" fill-rule="evenodd"/>
          <path id="Trazado_988906" data-name="Trazado 988906" d="M205.824,77.658l-9.367-.539V45.062a2.762,2.762,0,0,1,2.754-2.754h3.859a2.762,2.762,0,0,1,2.754,2.754Z" transform="translate(-171.667 -42.308)" fill="#ffc700" fill-rule="evenodd"/>
          <path id="Trazado_988907" data-name="Trazado 988907" d="M232.248,77.658l-2.587-.149V45.062a2.762,2.762,0,0,0-2.754-2.754h2.587a2.762,2.762,0,0,1,2.754,2.754Z" transform="translate(-198.09 -42.308)" fill="#fdb800" fill-rule="evenodd"/>
          <path id="Trazado_988908" data-name="Trazado 988908" d="M12.2,285.037H64.742a3.214,3.214,0,0,1,3.2,3.2v1.144a3.214,3.214,0,0,1-3.2,3.2H12.2a3.214,3.214,0,0,1-3.2-3.2v-1.144a3.214,3.214,0,0,1,3.2-3.2Z" transform="translate(-9 -252.938)" fill="#ffda2d" fill-rule="evenodd"/>
          <path id="Trazado_988909" data-name="Trazado 988909" d="M67.842,290.2a3.184,3.184,0,0,0,.1-.809v-1.144a3.214,3.214,0,0,0-3.2-3.2H12.2A3.214,3.214,0,0,0,9,288.242v1.144a3.178,3.178,0,0,0,.1.809,3.218,3.218,0,0,1,3.1-2.4H64.741a3.217,3.217,0,0,1,3.1,2.4Z" transform="translate(-8.999 -252.938)" fill="#ffc700" fill-rule="evenodd"/>
        </g>
        <g id="Grupo_1153143" data-name="Grupo 1153143" transform="translate(39.788 26.346)">
          <path id="Trazado_988910" data-name="Trazado 988910" d="M335.411,245.831c-9.666-5.735-15.874-5.735-25.54,0v11.022a10.67,10.67,0,0,0,4.605,8.982l8.165,5.868,8.164-5.868a10.67,10.67,0,0,0,4.606-8.982Z" transform="translate(-309.871 -241.53)" fill="#72d561" fill-rule="evenodd"/>
          <path id="Trazado_988911" data-name="Trazado 988911" d="M365.625,266.707q-1.016-.6-1.982-1.12V276.3a10.671,10.671,0,0,1-4.606,8.982l-8.164,5.868-6.183-4.444h0l8.165,5.868,8.164-5.868a10.67,10.67,0,0,0,4.605-8.982Z" transform="translate(-340.085 -262.406)" fill="#3cbe52" fill-rule="evenodd"/>
          <path id="Trazado_988912" data-name="Trazado 988912" d="M358.124,275.059c-6.513-3.46-10.859-3.46-17.373,0V283.7a6.6,6.6,0,0,0,2.9,5.666l5.781,4.155,5.781-4.155a6.6,6.6,0,0,0,2.905-5.666Z" transform="translate(-336.667 -268.373)" fill="#3cbe52" fill-rule="evenodd"/>
          <path id="Trazado_988913" data-name="Trazado 988913" d="M342.469,285.627q-.836.385-1.718.854v8.638a6.6,6.6,0,0,0,2.9,5.666l5.781,4.155,1.718-1.235-5.781-4.155a6.6,6.6,0,0,1-2.9-5.666Z" transform="translate(-336.667 -279.796)" fill="#30aa44" fill-rule="evenodd"/>
        </g>
      </g>
      <path id="Trazado_988914" data-name="Trazado 988914" d="M49.729,75.777a1.058,1.058,0,0,1,1.477-1.515l2.219,2.163,4.587-4.63a1.058,1.058,0,0,1,1.5,1.489L54.191,78.66a1.06,1.06,0,0,1-1.491.013Zm12.515-6.738c-5.7-2.9-9.558-2.9-15.257,0v8a5.571,5.571,0,0,0,2.465,4.807l5.163,3.711,5.164-3.711a5.571,5.571,0,0,0,2.465-4.807Zm-16.81-1.576a1.054,1.054,0,0,0-.562.934v8.638a7.651,7.651,0,0,0,3.345,6.524L54,87.714a1.059,1.059,0,0,0,1.234,0l5.782-4.155a7.65,7.65,0,0,0,3.346-6.524V68.4a1.055,1.055,0,0,0-.562-.934c-3.539-1.88-6.372-2.718-9.182-2.718h0C51.806,64.745,48.972,65.583,45.434,67.463Zm20.894,9.572V66.619c-8.9-5.155-14.528-5.155-23.424,0V77.035a9.647,9.647,0,0,0,4.165,8.122l7.548,5.424,7.546-5.424A9.645,9.645,0,0,0,66.328,77.035ZM5.264,73.961a2.149,2.149,0,0,1-2.148-2.147V70.67a2.149,2.149,0,0,1,2.148-2.147H40.788v5.437H5.264ZM17.133,44.926l1.074,16.088A1.059,1.059,0,0,0,19.262,62c.024,0,.047,0,.071,0a1.058,1.058,0,0,0,.985-1.126L19.167,43.652a25.264,25.264,0,0,1,6.623-2.567V66.407H6.263v-.716A25.252,25.252,0,0,1,17.133,44.926Zm12.469-8.5h3.861a1.7,1.7,0,0,1,1.695,1.7V66.407H27.906V38.12a1.7,1.7,0,0,1,1.7-1.7Zm14.293,7.228L42.745,60.873A1.057,1.057,0,0,0,43.731,62c.024,0,.047,0,.071,0a1.058,1.058,0,0,0,1.054-.988l1.075-16.09A25.229,25.229,0,0,1,56.308,60.736q-.85-.082-1.691-.082c-4.019,0-8.124,1.373-13.311,4.45a1.058,1.058,0,0,0-.518.91v.394H37.273V41.086A25.306,25.306,0,0,1,43.894,43.652ZM67.926,65.1a32.024,32.024,0,0,0-9.4-4.018A27.528,27.528,0,0,0,37.273,38.918v-.8a3.816,3.816,0,0,0-3.811-3.812H29.6A3.816,3.816,0,0,0,25.79,38.12v.8A27.486,27.486,0,0,0,4.148,65.691v.866A4.27,4.27,0,0,0,1,70.67v1.144a4.268,4.268,0,0,0,4.264,4.263H40.788v.958a11.686,11.686,0,0,0,5.046,9.84L54,92.744a1.058,1.058,0,0,0,1.234,0L63.4,86.875a11.686,11.686,0,0,0,5.046-9.84V66.013a1.058,1.058,0,0,0-.518-.91Z" transform="translate(0 0)" fill-rule="evenodd"/>
    </g>
  </g>
</svg>
