<svg xmlns="http://www.w3.org/2000/svg" xmlns:xlink="http://www.w3.org/1999/xlink" width="108" height="108" viewBox="0 0 108 108">
  <defs>
    <filter id="Trazado_982549" x="0" y="0" width="108" height="108" filterUnits="userSpaceOnUse">
      <feOffset dy="3" input="SourceAlpha"/>
      <feGaussianBlur stdDeviation="3" result="blur"/>
      <feFlood flood-opacity="0.161"/>
      <feComposite operator="in" in2="blur"/>
      <feComposite in="SourceGraphic"/>
    </filter>
  </defs>
  <g id="Grupo_1153166" data-name="Grupo 1153166" transform="translate(-203 -2027.5)">
    <g id="Grupo_1149033" data-name="Grupo 1149033" transform="translate(-419.951 -550.538)">
      <g id="Grupo_1146766" data-name="Grupo 1146766" transform="translate(0.049 100.038)">
        <g id="Grupo_1146639" data-name="Grupo 1146639" transform="translate(421.902 1321)">
          <g transform="matrix(1, 0, 0, 1, 201, 1157)" filter="url(#Trazado_982549)">
            <g id="Trazado_982549-2" data-name="Trazado 982549" transform="translate(9 6)" fill="#eafbf9">
              <path d="M 45 88.5 C 39.12687683105469 88.5 33.43022537231445 87.35007476806641 28.06830024719238 85.08217620849609 C 22.88852500915527 82.89131164550781 18.23629951477051 79.75458526611328 14.2408504486084 75.75914764404297 C 10.24541282653809 71.76370239257812 7.108687400817871 67.11147308349609 4.917825222015381 61.93170166015625 C 2.649924993515015 56.56977462768555 1.5 50.87312316894531 1.5 45 C 1.5 39.12687683105469 2.649924993515015 33.43022537231445 4.917825222015381 28.06830024719238 C 7.108687400817871 22.88852500915527 10.24541282653809 18.23629951477051 14.2408504486084 14.2408504486084 C 18.23629951477051 10.24541282653809 22.88852500915527 7.108687400817871 28.06830024719238 4.917825222015381 C 33.43022537231445 2.649924993515015 39.12687683105469 1.5 45 1.5 C 50.87312316894531 1.5 56.56977462768555 2.649924993515015 61.93170166015625 4.917825222015381 C 67.11147308349609 7.108687400817871 71.76370239257812 10.24541282653809 75.75914764404297 14.2408504486084 C 79.75458526611328 18.23629951477051 82.89131164550781 22.88852500915527 85.08217620849609 28.06830024719238 C 87.35007476806641 33.43022537231445 88.5 39.12687683105469 88.5 45 C 88.5 50.87312316894531 87.35007476806641 56.56977462768555 85.08217620849609 61.93170166015625 C 82.89131164550781 67.11147308349609 79.75458526611328 71.76370239257812 75.75914764404297 75.75914764404297 C 71.76370239257812 79.75458526611328 67.11147308349609 82.89131164550781 61.93170166015625 85.08217620849609 C 56.56977462768555 87.35007476806641 50.87312316894531 88.5 45 88.5 Z" stroke="none"/>
              <path d="M 45 3 C 39.32871246337891 3 33.82865524291992 4.110054016113281 28.65262985229492 6.299339294433594 C 23.65165710449219 8.414573669433594 19.15968322753906 11.44334411621094 15.301513671875 15.301513671875 C 11.44334411621094 19.15968322753906 8.414573669433594 23.65165710449219 6.299339294433594 28.65262985229492 C 4.110054016113281 33.82865524291992 3 39.32871246337891 3 45 C 3 50.67128753662109 4.110054016113281 56.17134475708008 6.299339294433594 61.34737396240234 C 8.414573669433594 66.34834289550781 11.44334411621094 70.84031677246094 15.301513671875 74.698486328125 C 19.15968322753906 78.55665588378906 23.65165710449219 81.58542633056641 28.65262985229492 83.70066070556641 C 33.82865524291992 85.88994598388672 39.32871246337891 87 45 87 C 50.67128753662109 87 56.17134475708008 85.88994598388672 61.34737396240234 83.70066070556641 C 66.34834289550781 81.58542633056641 70.84031677246094 78.55665588378906 74.698486328125 74.698486328125 C 78.55665588378906 70.84031677246094 81.58542633056641 66.34834289550781 83.70066070556641 61.34737396240234 C 85.88994598388672 56.17134475708008 87 50.67128753662109 87 45 C 87 39.32871246337891 85.88994598388672 33.82865524291992 83.70066070556641 28.65262985229492 C 81.58542633056641 23.65165710449219 78.55665588378906 19.15968322753906 74.698486328125 15.301513671875 C 70.84031677246094 11.44334411621094 66.34834289550781 8.414573669433594 61.34737396240234 6.299339294433594 C 56.17134475708008 4.110054016113281 50.67128753662109 3 45 3 M 45 0 C 69.85281372070312 0 90 20.14718627929688 90 45 C 90 69.85281372070312 69.85281372070312 90 45 90 C 20.14718627929688 90 0 69.85281372070312 0 45 C 0 20.14718627929688 20.14718627929688 0 45 0 Z" stroke="none" fill="#3cddca"/>
            </g>
          </g>
        </g>
      </g>
    </g>
    <g id="derecho-laboral_1_" data-name="derecho-laboral (1)" transform="translate(217.667 2040.163)">
      <g id="Grupo_1153164" data-name="Grupo 1153164" transform="translate(1.064 1.57)">
        <g id="Grupo_1153157" data-name="Grupo 1153157">
          <g id="Grupo_1153156" data-name="Grupo 1153156">
            <g id="Grupo_1153152" data-name="Grupo 1153152">
              <g id="Grupo_1153151" data-name="Grupo 1153151">
                <g id="Grupo_1153150" data-name="Grupo 1153150">
                  <g id="Grupo_1153149" data-name="Grupo 1153149">
                    <path id="Trazado_988931" data-name="Trazado 988931" d="M224.457,334.094l-6.646,6.646a5.833,5.833,0,0,1-8.249,0l-10.033-10.033,14.9-14.9,10.033,10.033A5.833,5.833,0,0,1,224.457,334.094Z" transform="translate(-172.348 -272.243)" fill="#00c5fd"/>
                    <path id="Trazado_988932" data-name="Trazado 988932" d="M97.252,197.325c-1.428,11.087-12.326,19.68-19.7,16.625l-3.563-3.563,18.162-18.162Z" transform="translate(-64.579 -166.15)" fill="#ffddcf"/>
                    <path id="Trazado_988933" data-name="Trazado 988933" d="M120.457,241.515l-6.5,6.5a8.247,8.247,0,0,1-11.662,0L99.16,244.88c6.045,1.04,15.162-6.38,19.7-16.625l1.6,1.6A8.247,8.247,0,0,1,120.457,241.515Z" transform="translate(-86.186 -197.08)" fill="#ffcbbe"/>
                    <path id="Trazado_988934" data-name="Trazado 988934" d="M211.959,24.416c-7.925,9.38-24.029,5.7-24.029-7.253a12.548,12.548,0,0,1,13.092-9.114,2.571,2.571,0,0,1,1.582,4.384l-5.318,5.316a1.806,1.806,0,0,0,0,2.554l2.982,2.982a1.806,1.806,0,0,0,2.553,0l5.318-5.318a2.572,2.572,0,0,1,4.384,1.584A12.594,12.594,0,0,1,211.959,24.416Z" transform="translate(-162.391 -8.008)" fill="#5972a5"/>
                    <path id="Trazado_988935" data-name="Trazado 988935" d="M57.068,79.938a12.553,12.553,0,0,1-17.027,7.618L35.87,91.727l-4.9-.435L18.685,104.26l.736,3.917-4.2,4.2a4.522,4.522,0,1,1-6.4-6.4l4.153-4.153,4.227,1.285,13-13-.923-4.593,2.368-2.368a4.611,4.611,0,0,0,1.239-4.282,12.609,12.609,0,0,1,.15-6.19C35.659,83.348,48.724,86.33,57.068,79.938Z" transform="translate(-7.5 -63.53)" fill="#4a66a0"/>
                  </g>
                </g>
              </g>
            </g>
            <g id="Grupo_1153155" data-name="Grupo 1153155" transform="translate(3.871 19.722)">
              <g id="Grupo_1153154" data-name="Grupo 1153154">
                <g id="Grupo_1153153" data-name="Grupo 1153153">
                  <path id="Trazado_988936" data-name="Trazado 988936" d="M130.168,156.666l4.541-4.541-3.846-3.846a3.211,3.211,0,1,0-4.541,4.541l.8,3.265Z" transform="translate(-112.567 -147.339)" fill="#ffcbbe"/>
                  <path id="Trazado_988937" data-name="Trazado 988937" d="M45.571,260.042a3.211,3.211,0,0,0,0-4.541l-.81-.81-1.156-3.173-3.279-1.262a3.211,3.211,0,0,0-4.541,4.541l5.245,5.245A3.211,3.211,0,0,0,45.571,260.042Z" transform="translate(-34.846 -234.881)" fill="#ffcbbe"/>
                  <path id="Trazado_988938" data-name="Trazado 988938" d="M71.924,222.248a3.211,3.211,0,0,0,0-4.541L70.578,214l-3.9-1.537A3.211,3.211,0,1,0,62.139,217l5.245,5.245A3.211,3.211,0,0,0,71.924,222.248Z" transform="translate(-57.469 -202.437)" fill="#ffcbbe"/>
                  <path id="Trazado_988939" data-name="Trazado 988939" d="M104.041,190.131a3.211,3.211,0,0,0,0-4.541L98.8,180.345a3.211,3.211,0,1,0-4.541,4.541l5.245,5.245A3.211,3.211,0,0,0,104.041,190.131Z" transform="translate(-85.039 -174.866)" fill="#ffcbbe"/>
                </g>
                <path id="Trazado_988940" data-name="Trazado 988940" d="M148.276,159.644c1.012,8.031-1.961,12.966-7.164,14.293-1.563-2.736-.951-6.377-.318-8.61a.947.947,0,0,0-1.3-1.124l-3.658,1.645a3.356,3.356,0,0,1-3.379-5.754l4.569-3.4a7.448,7.448,0,0,1,11.247,2.946Z" transform="translate(-117.48 -154.109)" fill="#ffddcf"/>
                <path id="Trazado_988941" data-name="Trazado 988941" d="M208.567,205.626l-6.749-4.854c-.007-.011-.013-.023-.018-.034a35.6,35.6,0,0,0,7.164-14.293c.01.018.018.038.027.058l2.075,4.766C212.068,193.088,213.921,200.271,208.567,205.626Z" transform="translate(-178.168 -180.91)" fill="#ffcbbe"/>
              </g>
            </g>
          </g>
          <path id="Trazado_988942" data-name="Trazado 988942" d="M182.887,283.519,167.236,299.17a3.248,3.248,0,0,1-4.593,0l-2.038-2.038a3.248,3.248,0,0,1,0-4.593l15.651-15.651a3.248,3.248,0,0,1,4.593,0l2.038,2.038A3.248,3.248,0,0,1,182.887,283.519Z" transform="translate(-138.117 -238.013)" fill="#deddf5"/>
        </g>
        <g id="Grupo_1153163" data-name="Grupo 1153163" transform="translate(32.091 27.846)">
          <path id="Trazado_988943" data-name="Trazado 988943" d="M340.593,223.864a19.051,19.051,0,0,1-4.588,12.428c-21.76,7.345-27.88-24.763-17.543-31.321a19.141,19.141,0,0,1,22.131,18.894Z" transform="translate(-302.336 -204.735)" fill="#fad989"/>
          <path id="Trazado_988944" data-name="Trazado 988944" d="M267.89,237.716A19.129,19.129,0,1,1,250.346,206.4C244.551,216.981,249.077,238.717,267.89,237.716Z" transform="translate(-234.22 -206.16)" fill="#fdc072"/>
          <g id="Grupo_1153162" data-name="Grupo 1153162" transform="translate(4.786 19.615)">
            <g id="Grupo_1153161" data-name="Grupo 1153161">
              <g id="Grupo_1153160" data-name="Grupo 1153160">
                <g id="Grupo_1153158" data-name="Grupo 1153158" transform="translate(19.153)">
                  <path id="Trazado_988945" data-name="Trazado 988945" d="M408.114,348.323a4.928,4.928,0,0,1-4.716-3.5,1.175,1.175,0,0,1,1.128-1.509H411.7a1.175,1.175,0,0,1,1.128,1.509A4.927,4.927,0,0,1,408.114,348.323Z" transform="translate(-403.348 -343.31)" fill="#4a66a0"/>
                </g>
                <g id="Grupo_1153159" data-name="Grupo 1153159">
                  <path id="Trazado_988946" data-name="Trazado 988946" d="M272.8,348.323a4.928,4.928,0,0,0,4.716-3.5,1.175,1.175,0,0,0-1.128-1.509h-7.176a1.175,1.175,0,0,0-1.128,1.509A4.927,4.927,0,0,0,272.8,348.323Z" transform="translate(-268.033 -343.31)" fill="#3b5a9b"/>
                </g>
              </g>
            </g>
          </g>
        </g>
      </g>
      <g id="Grupo_1153165" data-name="Grupo 1153165" transform="translate(0.003 0.509)">
        <path id="Trazado_988947" data-name="Trazado 988947" d="M280.113,256.748a2.208,2.208,0,0,0-.346,1.972,6.022,6.022,0,0,0,5.727,4.259h.011a6.023,6.023,0,0,0,5.727-4.259,2.233,2.233,0,0,0-1.436-2.761l-3.352-6.527c-1.667-2.563-4.984-3.969-9.46-4.183v-1.533a1.062,1.062,0,1,0-2.123,0v1.533c-4.476.214-7.793,1.62-9.46,4.183l-3.352,6.527a2.233,2.233,0,0,0-1.436,2.761,6.022,6.022,0,0,0,5.727,4.259h.011a6.022,6.022,0,0,0,5.727-4.259,2.233,2.233,0,0,0-1.436-2.761l-3.044-5.926c1.383-1.573,3.913-2.5,7.263-2.659v16.7H270a1.062,1.062,0,0,0,0,2.123h11.84a1.062,1.062,0,1,0,0-2.123h-4.858v-16.7c3.35.159,5.88,1.086,7.262,2.659l-3.044,5.926A2.221,2.221,0,0,0,280.113,256.748Zm-13.768-4.507,1.85,3.6h-3.7Zm3.7,5.866a3.864,3.864,0,0,1-7.4,0,.1.1,0,0,1,.017-.093.112.112,0,0,1,.094-.048h7.175a.113.113,0,0,1,.1.048A.1.1,0,0,1,270.045,258.107Zm19.154,0a3.864,3.864,0,0,1-7.4,0,.1.1,0,0,1,.017-.093.112.112,0,0,1,.094-.048h7.175a.114.114,0,0,1,.1.048A.1.1,0,0,1,289.2,258.107Zm-3.7-5.866,1.85,3.6h-3.7Z" transform="translate(-223.642 -208.38)"/>
        <path id="Trazado_988948" data-name="Trazado 988948" d="M52.284,28.356a20.1,20.1,0,0,0-12.817,4.6,9.136,9.136,0,0,0-.669-1.744l-1.551-3.561A13.6,13.6,0,0,0,52.254,13.028,3.568,3.568,0,0,0,49.9,9.939a3.613,3.613,0,0,0-3.841.841L40.743,16.1a.744.744,0,0,1-1.052,0l-2.983-2.983a.743.743,0,0,1,0-1.051l5.318-5.318A3.613,3.613,0,0,0,42.868,2.9,3.568,3.568,0,0,0,39.779.552,13.621,13.621,0,0,0,29.268,4.292a1.062,1.062,0,0,0,1.47,1.533,11.489,11.489,0,0,1,8.871-3.155,1.447,1.447,0,0,1,1.267.969,1.492,1.492,0,0,1-.349,1.606l-5.318,5.318a2.867,2.867,0,0,0,0,4.054L38.191,17.6a2.87,2.87,0,0,0,4.054,0l5.318-5.318a1.491,1.491,0,0,1,1.606-.349,1.447,1.447,0,0,1,.969,1.267A11.484,11.484,0,0,1,36.121,25.317a8.513,8.513,0,0,0-10.06-3.472,5.637,5.637,0,0,0,1.426-5.165,11.6,11.6,0,0,1,.658-7.134A1.062,1.062,0,1,0,26.2,8.7a13.735,13.735,0,0,0-.78,8.449,3.529,3.529,0,0,1-.954,3.3l-.772.772a4.272,4.272,0,0,0-7,3.285c0,.093,0,.186.01.278a4.264,4.264,0,0,0-4.536,4.545A4.271,4.271,0,0,0,7.6,33.59a4.291,4.291,0,0,0,.143,1.1,4.268,4.268,0,0,0-3.5,5.984l-2.6,2.6a5.584,5.584,0,0,0,7.9,7.9l2.4-2.4,4.488,4.488a9.242,9.242,0,0,0,5.871,2.7,4.316,4.316,0,0,0,.508,5.481l2.038,2.038a4.313,4.313,0,0,0,5.7.349l6.99,6.99a6.9,6.9,0,0,0,9.751,0l2.269-2.269a20.2,20.2,0,0,0,14.063-3.287,1.062,1.062,0,1,0-1.192-1.757A18.08,18.08,0,1,1,65.924,60.4a1.062,1.062,0,1,0,1.6,1.393A20.191,20.191,0,0,0,52.284,28.356ZM18.81,24.5a2.149,2.149,0,0,1,3.669-1.52l.61.61L19.6,26.185l-.163-.163A2.125,2.125,0,0,1,18.81,24.5ZM14.9,27.523a2.149,2.149,0,0,1,3.038,0l.187.187a4.445,4.445,0,0,0-.24,4.071,4.419,4.419,0,0,0,5.9,2.19,2.159,2.159,0,0,1-.6,1.834,2.149,2.149,0,0,1-3.04,0L14.9,30.563A2.152,2.152,0,0,1,14.9,27.523ZM10.354,32.07a2.135,2.135,0,0,1,1.52-.629,2.223,2.223,0,0,1,1.611.71l5.073,5.073a2.155,2.155,0,1,1-2.98,3.11L10.354,35.11a2.15,2.15,0,0,1,0-3.04Zm-3.73,5.35A2.151,2.151,0,0,1,9.642,37.4l5.266,5.264a2.149,2.149,0,0,1-3.04,3.04L6.624,40.459a2.151,2.151,0,0,1,0-3.04ZM8.031,49.67a3.461,3.461,0,1,1-4.894-4.894l2.4-2.4,4.9,4.893Zm6.449-1.354a4.275,4.275,0,0,0,3.181-4.132,4.292,4.292,0,0,0-.143-1.1,4.264,4.264,0,0,0,3.86-4.536,4.247,4.247,0,0,0,3.307-1.241,4.3,4.3,0,0,0,1.073-4.221l1.4-.63c-.719,2.653-1.177,6.327.5,9.231A1.062,1.062,0,1,0,29.5,40.625c-1.431-2.472-.761-5.963-.234-7.824a2.008,2.008,0,0,0-2.754-2.38l-3.659,1.645a2.294,2.294,0,0,1-3.034-1.152,2.314,2.314,0,0,1,.724-2.782l4.569-3.4a6.388,6.388,0,0,1,9.668,2.576s1.506,3.54,2.047,4.7a9.855,9.855,0,0,1,.849,2.606,20.139,20.139,0,0,0-5.409,11.26l-7.836,7.836a7.134,7.134,0,0,1-6.512-1.958ZM26.339,61.98,24.3,59.942a2.189,2.189,0,0,1,0-3.092l7.8-7.8a20.056,20.056,0,0,0,2,8.261L29.431,61.98a2.188,2.188,0,0,1-3.092,0Zm20.708,6.068-1.272,1.272a4.776,4.776,0,0,1-6.748,0l-6.967-6.967,3.107-3.107a20.269,20.269,0,0,0,11.879,8.8Z" transform="translate(-0.003 -0.509)"/>
      </g>
    </g>
  </g>
</svg>
