<svg xmlns="http://www.w3.org/2000/svg" xmlns:xlink="http://www.w3.org/1999/xlink" width="108" height="108" viewBox="0 0 108 108">
  <defs>
    <filter id="Trazado_982549" x="0" y="0" width="108" height="108" filterUnits="userSpaceOnUse">
      <feOffset dy="3" input="SourceAlpha"/>
      <feGaussianBlur stdDeviation="3" result="blur"/>
      <feFlood flood-opacity="0.161"/>
      <feComposite operator="in" in2="blur"/>
      <feComposite in="SourceGraphic"/>
    </filter>
  </defs>
  <g id="Grupo_1153818" data-name="Grupo 1153818" transform="translate(-622.5 -334)">
    <g id="Grupo_1149034" data-name="Grupo 1149034" transform="translate(-0.598 -6737)">
      <g id="Grupo_1147028" data-name="Grupo 1147028" transform="translate(0 311)">
        <g id="Grupo_1146971" data-name="Grupo 1146971" transform="translate(2.098 6425)">
          <g id="Grupo_1146639" data-name="Grupo 1146639" transform="translate(420 -822)">
            <g transform="matrix(1, 0, 0, 1, 201, 1157)" filter="url(#Trazado_982549)">
              <g id="Trazado_982549-2" data-name="Trazado 982549" transform="translate(9 6)" fill="#d7f8f4">
                <path d="M 45 88.5 C 39.12687683105469 88.5 33.43022537231445 87.35007476806641 28.06830024719238 85.08217620849609 C 22.88852500915527 82.89131164550781 18.23629951477051 79.75458526611328 14.2408504486084 75.75914764404297 C 10.24541282653809 71.76370239257812 7.108687400817871 67.11147308349609 4.917825222015381 61.93170166015625 C 2.649924993515015 56.56977462768555 1.5 50.87312316894531 1.5 45 C 1.5 39.12687683105469 2.649924993515015 33.43022537231445 4.917825222015381 28.06830024719238 C 7.108687400817871 22.88852500915527 10.24541282653809 18.23629951477051 14.2408504486084 14.2408504486084 C 18.23629951477051 10.24541282653809 22.88852500915527 7.108687400817871 28.06830024719238 4.917825222015381 C 33.43022537231445 2.649924993515015 39.12687683105469 1.5 45 1.5 C 50.87312316894531 1.5 56.56977462768555 2.649924993515015 61.93170166015625 4.917825222015381 C 67.11147308349609 7.108687400817871 71.76370239257812 10.24541282653809 75.75914764404297 14.2408504486084 C 79.75458526611328 18.23629951477051 82.89131164550781 22.88852500915527 85.08217620849609 28.06830024719238 C 87.35007476806641 33.43022537231445 88.5 39.12687683105469 88.5 45 C 88.5 50.87312316894531 87.35007476806641 56.56977462768555 85.08217620849609 61.93170166015625 C 82.89131164550781 67.11147308349609 79.75458526611328 71.76370239257812 75.75914764404297 75.75914764404297 C 71.76370239257812 79.75458526611328 67.11147308349609 82.89131164550781 61.93170166015625 85.08217620849609 C 56.56977462768555 87.35007476806641 50.87312316894531 88.5 45 88.5 Z" stroke="none"/>
                <path d="M 45 3 C 39.32871246337891 3 33.82865524291992 4.110054016113281 28.65262985229492 6.299339294433594 C 23.65165710449219 8.414573669433594 19.15968322753906 11.44334411621094 15.301513671875 15.301513671875 C 11.44334411621094 19.15968322753906 8.414573669433594 23.65165710449219 6.299339294433594 28.65262985229492 C 4.110054016113281 33.82865524291992 3 39.32871246337891 3 45 C 3 50.67128753662109 4.110054016113281 56.17134475708008 6.299339294433594 61.34737396240234 C 8.414573669433594 66.34834289550781 11.44334411621094 70.84031677246094 15.301513671875 74.698486328125 C 19.15968322753906 78.55665588378906 23.65165710449219 81.58542633056641 28.65262985229492 83.70066070556641 C 33.82865524291992 85.88994598388672 39.32871246337891 87 45 87 C 50.67128753662109 87 56.17134475708008 85.88994598388672 61.34737396240234 83.70066070556641 C 66.34834289550781 81.58542633056641 70.84031677246094 78.55665588378906 74.698486328125 74.698486328125 C 78.55665588378906 70.84031677246094 81.58542633056641 66.34834289550781 83.70066070556641 61.34737396240234 C 85.88994598388672 56.17134475708008 87 50.67128753662109 87 45 C 87 39.32871246337891 85.88994598388672 33.82865524291992 83.70066070556641 28.65262985229492 C 81.58542633056641 23.65165710449219 78.55665588378906 19.15968322753906 74.698486328125 15.301513671875 C 70.84031677246094 11.44334411621094 66.34834289550781 8.414573669433594 61.34737396240234 6.299339294433594 C 56.17134475708008 4.110054016113281 50.67128753662109 3 45 3 M 45 0 C 69.85281372070312 0 90 20.14718627929688 90 45 C 90 69.85281372070312 69.85281372070312 90 45 90 C 20.14718627929688 90 0 69.85281372070312 0 45 C 0 20.14718627929688 20.14718627929688 0 45 0 Z" stroke="none" fill="#3cddca"/>
              </g>
            </g>
          </g>
        </g>
      </g>
    </g>
    <g id="satisfaccion-laboral" transform="translate(640.524 349.67)">
      <g id="Grupo_1153171" data-name="Grupo 1153171" transform="translate(8.915 8.646)">
        <g id="Grupo_1153167" data-name="Grupo 1153167" transform="translate(10.252 18.321)">
          <path id="Trazado_988949" data-name="Trazado 988949" d="M119.113,245.575v13.416a2.52,2.52,0,0,0,2.512,2.512H147.87a2.52,2.52,0,0,0,2.512-2.512V245.575Z" transform="translate(-117.583 -237.402)" fill="#ecba78" fill-rule="evenodd"/>
          <path id="Trazado_988950" data-name="Trazado 988950" d="M119.113,245.575v13.416a2.52,2.52,0,0,0,2.512,2.512h1.994a2.52,2.52,0,0,1-2.512-2.512V245.575Z" transform="translate(-117.583 -237.402)" fill="#e3a76f" fill-rule="evenodd"/>
          <path id="Trazado_988951" data-name="Trazado 988951" d="M137.737,184.891a7.842,7.842,0,0,0,.782-.56,3.673,3.673,0,0,0,1.53-2.884v-6.125a1.29,1.29,0,0,0-1.287-1.287H107.007a1.29,1.29,0,0,0-1.287,1.287v6.125a3.673,3.673,0,0,0,1.53,2.884,7.84,7.84,0,0,0,.782.56C113.259,188.2,132.549,188.174,137.737,184.891Z" transform="translate(-105.72 -174.035)" fill="#e3a76f" fill-rule="evenodd"/>
          <path id="Trazado_988952" data-name="Trazado 988952" d="M177.512,174.034h17.927v4.186a1.619,1.619,0,0,1-1.614,1.614h-14.7a1.619,1.619,0,0,1-1.614-1.614v-4.186Z" transform="translate(-169.311 -174.034)" fill="#c48958" fill-rule="evenodd"/>
          <path id="Trazado_988953" data-name="Trazado 988953" d="M109.245,174.034h-2.237a1.29,1.29,0,0,0-1.287,1.287v6.125a3.673,3.673,0,0,0,1.53,2.884,7.819,7.819,0,0,0,.782.56,7.924,7.924,0,0,0,1.212.611Z" transform="translate(-105.721 -174.034)" fill="#c48958" fill-rule="evenodd"/>
          <path id="Trazado_988954" data-name="Trazado 988954" d="M228.28,269.725a3.164,3.164,0,1,0,3.164-3.164A3.164,3.164,0,0,0,228.28,269.725Z" transform="translate(-214.279 -255.991)" fill="#837683" fill-rule="evenodd"/>
          <path id="Trazado_988955" data-name="Trazado 988955" d="M228.28,269.724a3.166,3.166,0,0,0,3.662,3.125,3.164,3.164,0,0,1,0-6.249,3.2,3.2,0,0,0-.5-.039,3.164,3.164,0,0,0-3.164,3.164Z" transform="translate(-214.279 -255.99)" fill="#685e68" fill-rule="evenodd"/>
        </g>
        <g id="Grupo_1153169" data-name="Grupo 1153169" transform="translate(0 32.664)">
          <circle id="Elipse_11551" data-name="Elipse 11551" cx="11.218" cy="11.218" r="11.218" fill="#685e68"/>
          <path id="Trazado_988956" data-name="Trazado 988956" d="M109.744,299.591a11.218,11.218,0,1,1,0,22.436q-.287,0-.571-.014a11.218,11.218,0,0,0,0-22.407Q109.457,299.591,109.744,299.591Z" transform="translate(-98.526 -299.591)" fill="#544854" fill-rule="evenodd"/>
          <path id="Trazado_988957" data-name="Trazado 988957" d="M61.371,377.787q.008,7.967,0,7.954H58.724a.419.419,0,0,1-.418-.418v-7.118a.419.419,0,0,1,.418-.418h2.647Z" transform="translate(-53.47 -368.854)" fill="#d1d1d6" fill-rule="evenodd"/>
          <path id="Trazado_988958" data-name="Trazado 988958" d="M58.306,385.323a.419.419,0,0,0,.418.418h2.65v-7.954h-.418v7.536Z" transform="translate(-53.47 -368.854)" fill="#b1b1b5" fill-rule="evenodd"/>
          <path id="Trazado_988959" data-name="Trazado 988959" d="M91.259,336.979c-3.083.531-4.875.919-6.667-.8v-7.954c1.413-1.061,3.278-1.97,3.278-3.977v-2.415a2.9,2.9,0,0,1,2.9,2.9V326.6a2.786,2.786,0,0,1-.8,1.474C94.448,329.232,92.539,337.034,91.259,336.979Z" transform="translate(-76.753 -319.294)" fill="#f6dccd" fill-rule="evenodd"/>
          <path id="Trazado_988960" data-name="Trazado 988960" d="M85.3,336.75a5.047,5.047,0,0,1-.7-.568v-7.954c1.413-1.061,3.278-1.97,3.278-3.977v-2.415a2.887,2.887,0,0,1,2.023.829,2.872,2.872,0,0,0-1.482-.411v2.415c0,2.007-1.865,2.916-3.278,3.977V336.6Q85.214,336.678,85.3,336.75Z" transform="translate(-76.753 -319.295)" fill="#f1cbbc" fill-rule="evenodd"/>
          <path id="Trazado_988961" data-name="Trazado 988961" d="M133.343,383.5H135.2a1.151,1.151,0,0,0,0-2.3h.686a1.151,1.151,0,1,0,0-2.3h.807a1.151,1.151,0,1,0,0-2.3h-.485a1.151,1.151,0,0,0,0-2.3h-2.867a1.151,1.151,0,0,0,0,2.3h-.485a1.151,1.151,0,1,0,0,2.3h.485a2.573,2.573,0,0,1-1.151,3.452A1.154,1.154,0,0,0,133.343,383.5Z" transform="translate(-118.486 -365.759)" fill="#f6dccd" fill-rule="evenodd"/>
          <g id="Grupo_1153168" data-name="Grupo 1153168" transform="translate(13.221 9.685)">
            <path id="Trazado_988962" data-name="Trazado 988962" d="M137.1,445.957h1.858a1.154,1.154,0,0,0,1.151-1.151h-4.159A1.154,1.154,0,0,0,137.1,445.957Z" transform="translate(-135.466 -437.902)" fill="#f1cbbc" fill-rule="evenodd"/>
            <path id="Trazado_988963" data-name="Trazado 988963" d="M138.958,425.811h.686a1.154,1.154,0,0,0,1.151-1.151H135.95a1.154,1.154,0,0,0,1.151,1.151Z" transform="translate(-135.465 -420.057)" fill="#f1cbbc" fill-rule="evenodd"/>
            <path id="Trazado_988964" data-name="Trazado 988964" d="M135.886,405.664h.807a1.154,1.154,0,0,0,1.151-1.151h-6.138a1.154,1.154,0,0,0,1.151,1.151h3.029Z" transform="translate(-131.706 -402.212)" fill="#f1cbbc" fill-rule="evenodd"/>
            <path id="Trazado_988965" data-name="Trazado 988965" d="M139.968,385.518a1.154,1.154,0,0,0,1.151-1.151H135.95a1.154,1.154,0,0,0,1.151,1.151Z" transform="translate(-135.465 -384.367)" fill="#f1cbbc" fill-rule="evenodd"/>
          </g>
        </g>
        <g id="Grupo_1153170" data-name="Grupo 1153170" transform="translate(32.203 0)">
          <ellipse id="Elipse_11552" data-name="Elipse 11552" cx="11.195" cy="11.195" rx="11.195" ry="11.195" transform="matrix(0.023, -1, 1, 0.023, 0, 22.391)" fill="#8ac9fe"/>
          <path id="Trazado_988966" data-name="Trazado 988966" d="M393.546,15.987a11.2,11.2,0,1,1,0,22.391q-.287,0-.571-.014a11.2,11.2,0,0,0,0-22.362q.284-.014.571-.014Z" transform="translate(-382.11 -15.721)" fill="#60b7ff" fill-rule="evenodd"/>
        </g>
      </g>
      <path id="Trazado_988967" data-name="Trazado 988967" d="M26.638,50.76H23.772a.239.239,0,0,0-.237.237.239.239,0,0,0,.237.237h2.866a.237.237,0,1,0,0-.473Zm.721,2.537a.239.239,0,0,0-.237-.237H23.288a.237.237,0,0,0,0,.474h3.834A.24.24,0,0,0,27.359,53.3Zm-.807,2.3a.239.239,0,0,0-.237-.236H23.772a.236.236,0,1,0,0,.473h2.544a.239.239,0,0,0,.236-.236Zm-.688,2.3a.24.24,0,0,0-.237-.238H23.772a.237.237,0,0,0,0,.474h1.855A.239.239,0,0,0,25.864,57.9Zm-4.1.451a1.808,1.808,0,0,1-.054-.451,2.063,2.063,0,0,1,.35-1.152,2.059,2.059,0,0,1-.35-1.15,2.094,2.094,0,0,1,.161-.8,2.149,2.149,0,0,1-.247-.283c-.167.113-.323.209-.457.288a.92.92,0,0,1-.457.121.913.913,0,0,1-.452-1.705,2.78,2.78,0,0,0,1.409-1.507,1.385,1.385,0,0,0-.29-1.1.913.913,0,0,1,.1-1.162,1.939,1.939,0,0,0,.538-.906v-1.8a1.984,1.984,0,0,0-1.07-1.758v1.277c0,2.174-1.624,3.321-2.931,4.244-.1.066-.188.133-.28.2V57.79c1.081.878,2.162.859,4.028.562Zm-7.093-1.067H15.9V51.158H14.667Zm11.971-8.353A2.066,2.066,0,0,1,28.7,51a2.092,2.092,0,0,1-.161.8,2.063,2.063,0,0,1-.253,3.2,2.009,2.009,0,0,1,.091.6,2.055,2.055,0,0,1-.8,1.63,1.987,1.987,0,0,1,.113.672,2.066,2.066,0,0,1-2.065,2.064H23.772a2,2,0,0,1-.376-.037l-.194.033a19.89,19.89,0,0,1-3.259.394,5.006,5.006,0,0,1-3.474-1.243H13.753a.914.914,0,0,1-.914-.914V50.245a.914.914,0,0,1,.914-.914h2.764c.145-.106.3-.211.441-.313,1.344-.948,2.162-1.606,2.162-2.75V43.853a.914.914,0,0,1,.914-.914,3.814,3.814,0,0,1,3.807,3.81v1.874a.973.973,0,0,1-.011.124,1.154,1.154,0,0,1-.032.185h2.839ZM49.715,24.138a.914.914,0,0,0,.645.268.9.9,0,0,0,.613-.238L58.432,17.4A.915.915,0,0,0,57.2,16.048L50.392,22.23l-2.458-2.455a.914.914,0,1,0-1.291,1.293ZM30.435,52.529a10.3,10.3,0,1,1-10.3-10.3,10.314,10.314,0,0,1,10.3,10.3ZM20.083,34.38a2.744,2.744,0,0,0,1.194,2.177,6.479,6.479,0,0,0,.694.495c1.764,1.116,5.674,1.935,10.541,2.22a4.078,4.078,0,0,1,7.637,0c4.878-.287,8.793-1.1,10.546-2.217a7.083,7.083,0,0,0,.694-.495,2.744,2.744,0,0,0,1.194-2.177V32.218h-.027a12.057,12.057,0,0,1-6.346-1.8v.736a2.531,2.531,0,0,1-2.528,2.528h-14.7a2.531,2.531,0,0,1-2.528-2.528V27.882h-6a.372.372,0,0,0-.371.373Zm10.46-8.326H42.008a12.02,12.02,0,0,1-1.318-3.514,1.727,1.727,0,0,0-.344-.035H32.317a1.777,1.777,0,0,0-1.775,1.774Zm-2.259,5.1V27.882H43.277a12.481,12.481,0,0,0,1.1,1.154v2.118a.7.7,0,0,1-.7.7h-14.7A.7.7,0,0,1,28.284,31.154ZM42.272,20.109A10.282,10.282,0,1,1,52.554,30.39,10.295,10.295,0,0,1,42.272,20.109ZM36.335,38.452a2.25,2.25,0,1,1-2.253,2.25A2.254,2.254,0,0,1,36.335,38.452ZM51.054,48.557a1.6,1.6,0,0,1-1.6,1.6H32.032A12.166,12.166,0,0,0,21.61,40.487V38.945c2.178,1.095,5.969,1.86,10.664,2.144a4.076,4.076,0,0,0,8.115,0c4.7-.287,8.492-1.051,10.664-2.142v9.612Zm-18.8,3.426c.005.182.011.364.011.546A12.13,12.13,0,1,1,19.781,40.4V37.676a4.43,4.43,0,0,1-1.527-3.3V28.256a2.2,2.2,0,0,1,2.2-2.2h8.26V24.279a3.608,3.608,0,0,1,3.6-3.6h8.029l.113,0c-.011-.19-.016-.379-.016-.571A12.111,12.111,0,1,1,54.409,32.075V34.38a4.429,4.429,0,0,1-1.527,3.3V48.557a3.43,3.43,0,0,1-3.426,3.426Zm27.82-18.977a.918.918,0,0,1,1.006.818A24.972,24.972,0,0,1,37.512,61.168L38.6,61.8a.913.913,0,0,1-.457,1.706.891.891,0,0,1-.452-.122L33.5,60.959a.914.914,0,0,1,0-1.583l4.195-2.421a.912.912,0,1,1,.909,1.582l-1.409.816A23.138,23.138,0,0,0,59.255,34.005.916.916,0,0,1,60.072,33.006ZM11.586,38.8A24.962,24.962,0,0,1,35.178,11.49L34.1,10.867a.914.914,0,0,1,.914-1.584L39.206,11.7a.913.913,0,0,1,0,1.582l-4.195,2.421a.914.914,0,0,1-.914-1.582l1.42-.82A23.131,23.131,0,0,0,13.4,38.621a.914.914,0,0,1-.817,1,.816.816,0,0,1-.091,0,.917.917,0,0,1-.909-.824Z" transform="translate(0 0)" fill="#242222" fill-rule="evenodd"/>
    </g>
  </g>
</svg>
