<svg xmlns="http://www.w3.org/2000/svg" width="90" height="90" viewBox="0 0 90 90">
  <g id="Grupo_1153184" data-name="Grupo 1153184" transform="translate(-212.049 -5301.5)">
    <g id="Grupo_1150059" data-name="Grupo 1150059" transform="translate(212.049 5301.5)">
      <g id="Grupo_1146779" data-name="Grupo 1146779">
        <g id="Grupo_1146639" data-name="Grupo 1146639">
          <path id="Trazado_982549" data-name="Trazado 982549" d="M45,0A45,45,0,1,1,0,45,45,45,0,0,1,45,0Z" fill="#f3f3f3"/>
          <path id="Trazado_982549_-_Contorno" data-name="Trazado 982549 - Contorno" d="M45,3A42.012,42.012,0,0,0,28.653,83.7,42.012,42.012,0,0,0,61.347,6.3,41.734,41.734,0,0,0,45,3m0-3A45,45,0,1,1,0,45,45,45,0,0,1,45,0Z" fill="#f97c61"/>
        </g>
      </g>
    </g>
    <g id="normas-eticas" transform="translate(203.329 5305.706)">
      <g id="Grupo_1153183" data-name="Grupo 1153183" transform="translate(17.859 2.326)">
        <g id="Grupo_1153180" data-name="Grupo 1153180" transform="translate(0 54.617)">
          <path id="Trazado_988991" data-name="Trazado 988991" d="M47.846,367.318l3.74,13.956a23.308,23.308,0,0,1,2.465-1.83,7.7,7.7,0,0,1,2.739-1.192,7.081,7.081,0,0,1,3.172.082h0l7.591,1.74a6.491,6.491,0,0,0,4.889-.644l18.982-10.959a3.556,3.556,0,0,0-3.556-6.16l-13.219,7.632c.01-.033.02-.067.029-.1a3.949,3.949,0,0,0-2.763-4.829l-13.252-3.607a6.225,6.225,0,0,0-4.764,1.272l-6.055,4.637Z" transform="translate(-44.109 -361.347)" fill="#ffd6bd" fill-rule="evenodd"/>
          <path id="Trazado_988992" data-name="Trazado 988992" d="M144.253,411.16a3.951,3.951,0,0,0,4.5-1.933,3.9,3.9,0,0,1-.135.912,3.944,3.944,0,0,1-4.829,2.763c-2.579-.7-5.163-1.383-7.746-2.076a.9.9,0,0,1,.469-1.748c2.578.691,5.153,1.378,7.744,2.082Z" transform="translate(-118.044 -401.642)" fill="#f9c6aa" fill-rule="evenodd"/>
          <path id="Trazado_988993" data-name="Trazado 988993" d="M68.324,390.711l.56,2.092a23.3,23.3,0,0,1,2.465-1.83,7.7,7.7,0,0,1,2.739-1.192,7.078,7.078,0,0,1,3.172.082h0l7.591,1.74a6.491,6.491,0,0,0,4.889-.644L108.725,380a3.567,3.567,0,0,0,1.3-4.858c-.029-.051-.06-.1-.091-.149a3.561,3.561,0,0,1-1.771,2.915L89.183,388.868a6.491,6.491,0,0,1-4.889.644l-7.591-1.74h0a7.08,7.08,0,0,0-3.172-.082,7.7,7.7,0,0,0-2.739,1.192,23.308,23.308,0,0,0-2.465,1.83Z" transform="translate(-61.407 -372.875)" fill="#f9c6aa" fill-rule="evenodd"/>
          <path id="Trazado_988994" data-name="Trazado 988994" d="M28.467,377.6l4.571,17.06a.786.786,0,0,1-.554.959l-3.153.845a.786.786,0,0,1-.959-.554L23.8,378.854a.785.785,0,0,1,.554-.959l3.153-.845A.785.785,0,0,1,28.467,377.6Z" transform="translate(-23.774 -374.59)" fill="#64b5f6" fill-rule="evenodd"/>
          <path id="Trazado_988995" data-name="Trazado 988995" d="M28.468,377.605l.053.2-2.953.791a.786.786,0,0,0-.554.959l4.518,16.862-.2.054a.786.786,0,0,1-.959-.554L23.8,378.855a.785.785,0,0,1,.554-.959l3.153-.845a.785.785,0,0,1,.959.554Z" transform="translate(-23.775 -374.591)" fill="#42a5f5" fill-rule="evenodd"/>
        </g>
        <g id="Grupo_1153181" data-name="Grupo 1153181" transform="translate(14.909 24.903)">
          <path id="Trazado_988996" data-name="Trazado 988996" d="M213.337,312.826h8.843a2.32,2.32,0,0,1,2.314,2.314v1.36h-13.47v-1.36A2.32,2.32,0,0,1,213.337,312.826Z" transform="translate(-196.861 -290.645)" fill="#465759" fill-rule="evenodd"/>
          <path id="Trazado_988997" data-name="Trazado 988997" d="M222.843,313.456a2.323,2.323,0,0,1,1.65,2.216v1.36h-13.47v-1.36c0-.065,0-.129.008-.193h11.909v-1.36A2.3,2.3,0,0,0,222.843,313.456Z" transform="translate(-196.861 -291.178)" fill="#3e4d4f" fill-rule="evenodd"/>
          <path id="Trazado_988998" data-name="Trazado 988998" d="M156.759,253.022a6.643,6.643,0,0,0,13.285,0Zm-13.672,0a6.643,6.643,0,0,1-13.285,0Z" transform="translate(-128.249 -240.126)" fill="#ffda2d" fill-rule="evenodd"/>
          <path id="Trazado_988999" data-name="Trazado 988999" d="M156.759,253.022a6.643,6.643,0,0,0,13.285,0Zm-13.672,0a6.643,6.643,0,0,1-13.285,0Z" transform="translate(-128.249 -240.126)" fill="#ffda2d" fill-rule="evenodd"/>
          <path id="Trazado_989000" data-name="Trazado 989000" d="M146.759,253.022a6.643,6.643,0,0,0,13.285,0Zm-13.672,0a6.643,6.643,0,0,1-13.285,0Z" transform="translate(-119.802 -240.126)" fill="#ffc700" fill-rule="evenodd"/>
          <path id="Trazado_989001" data-name="Trazado 989001" d="M184.531,171.8a1.84,1.84,0,1,0,1.84,1.84A1.84,1.84,0,0,0,184.531,171.8Zm-26.957,0a1.84,1.84,0,1,1-1.84,1.84A1.84,1.84,0,0,1,157.573,171.8Zm13.479-1.841a1.84,1.84,0,1,1-1.84,1.84A1.84,1.84,0,0,1,171.052,169.959Z" transform="translate(-150.155 -169.959)" fill="#ffda2d" fill-rule="evenodd"/>
          <path id="Trazado_989002" data-name="Trazado 989002" d="M184.531,171.8a1.84,1.84,0,1,0,.511,3.609,1.841,1.841,0,0,1,.136-3.492,1.835,1.835,0,0,0-.647-.117Zm-26.957,0a1.835,1.835,0,0,1,.647.117,1.841,1.841,0,0,0-.136,3.492,1.841,1.841,0,1,1-.511-3.609Zm13.479-1.841a1.835,1.835,0,0,1,.647.117,1.841,1.841,0,0,0-.136,3.492,1.841,1.841,0,1,1-.511-3.609Z" transform="translate(-150.155 -169.959)" fill="#ffc700" fill-rule="evenodd"/>
        </g>
        <g id="Grupo_1153182" data-name="Grupo 1153182" transform="translate(23.015)">
          <path id="Trazado_989003" data-name="Trazado 989003" d="M217.373,36.258,213.633,22.3a23.311,23.311,0,0,1-2.465,1.83,7.7,7.7,0,0,1-2.739,1.192,7.082,7.082,0,0,1-3.172-.082h0l-7.591-1.74a6.491,6.491,0,0,0-4.889.644L173.792,35.1a3.556,3.556,0,0,0,3.556,6.16l13.219-7.632c-.01.033-.02.067-.029.1a3.949,3.949,0,0,0,2.763,4.829l13.252,3.607a6.225,6.225,0,0,0,4.764-1.272l6.055-4.637Z" transform="translate(-172.017 -20.323)" fill="#ffd6bd" fill-rule="evenodd"/>
          <path id="Trazado_989004" data-name="Trazado 989004" d="M294.942,79.116a3.951,3.951,0,0,0-4.5,1.933,3.894,3.894,0,0,1,.135-.912,3.944,3.944,0,0,1,4.829-2.763c2.58.7,5.163,1.383,7.746,2.075a.9.9,0,1,1-.468,1.748c-2.578-.691-5.153-1.378-7.744-2.082Z" transform="translate(-272.058 -66.729)" fill="#f9c6aa" fill-rule="evenodd"/>
          <path id="Trazado_989005" data-name="Trazado 989005" d="M214.193,24.394l-.56-2.092a23.307,23.307,0,0,1-2.465,1.83,7.7,7.7,0,0,1-2.739,1.192,7.08,7.08,0,0,1-3.172-.082h0l-7.591-1.74a6.492,6.492,0,0,0-4.889.644L173.792,35.1a3.567,3.567,0,0,0-1.3,4.858c.029.051.06.1.091.149a3.561,3.561,0,0,1,1.771-2.915l18.982-10.959a6.491,6.491,0,0,1,4.889-.644l7.591,1.74h0a7.08,7.08,0,0,0,3.172.082,7.7,7.7,0,0,0,2.739-1.192,23.3,23.3,0,0,0,2.465-1.83Z" transform="translate(-172.017 -20.323)" fill="#f9c6aa" fill-rule="evenodd"/>
          <path id="Trazado_989006" data-name="Trazado 989006" d="M432.983,28.45l-4.571-17.06a.786.786,0,0,1,.554-.959l3.153-.845a.786.786,0,0,1,.959.554l4.571,17.06a.785.785,0,0,1-.554.959L433.942,29a.785.785,0,0,1-.959-.554Z" transform="translate(-388.583 -9.559)" fill="#64b5f6" fill-rule="evenodd"/>
          <path id="Trazado_989007" data-name="Trazado 989007" d="M452.206,28.449l-.053-.2,2.953-.791a.785.785,0,0,0,.554-.959L451.141,9.638l.2-.054a.785.785,0,0,1,.959.554l4.571,17.06a.785.785,0,0,1-.554.959L453.165,29a.785.785,0,0,1-.959-.554Z" transform="translate(-407.806 -9.558)" fill="#42a5f5" fill-rule="evenodd"/>
        </g>
      </g>
      <path id="Trazado_989008" data-name="Trazado 989008" d="M64.714,63.079l-18.98,10.96a5.293,5.293,0,0,1-3.991.507l-7.593-1.74a8.2,8.2,0,0,0-6.458,1.02l-3.156-11.77,3.808-2.916a4.23,4.23,0,0,1,3.683-1.059l13.246,3.607a2.692,2.692,0,1,1-1.413,5.194l-7.074-1.927a1.242,1.242,0,1,0-.659,2.4l7.081,1.927a5.173,5.173,0,0,0,5.924-2.547L62.4,59.07a2.288,2.288,0,0,1,1.75-.227,2.307,2.307,0,0,1,.564,4.235Zm-41.02,14.51,2.27-.607L21.629,60.807l-2.27.608,4.335,16.174Zm41.1-21.144a4.76,4.76,0,0,0-3.639.475L49.688,63.54a5.186,5.186,0,0,0-3.756-4.249L32.678,55.684a6.646,6.646,0,0,0-5.851,1.484l-3,2.3a2.037,2.037,0,0,0-.864-.98,2,2,0,0,0-1.53-.2l-3.156.845a2.034,2.034,0,0,0-1.435,2.481l4.576,17.059a2.032,2.032,0,0,0,1.955,1.5,1.943,1.943,0,0,0,.52-.07l3.156-.844a2.035,2.035,0,0,0,1.435-2.482l-.117-.425a5.939,5.939,0,0,1,5.228-1.129l7.593,1.741a8.948,8.948,0,0,0,2,.234,7.45,7.45,0,0,0,3.786-1.013l18.98-10.96a4.8,4.8,0,0,0,1.757-6.554,4.747,4.747,0,0,0-2.914-2.231ZM86.2,20.365,81.863,4.191l2.27-.607,4.335,16.173Zm.117.442v0Zm-6.832,1.225,3.808-2.916L80.135,7.347a8.2,8.2,0,0,1-6.458,1.02L66.083,6.627a5.287,5.287,0,0,0-3.991.508l-18.98,10.96a2.307,2.307,0,0,0,.564,4.235,2.292,2.292,0,0,0,1.75-.227l13.268-7.661a5.2,5.2,0,0,1,5.924-2.548L71.7,13.82a1.243,1.243,0,1,1-.659,2.4l-7.074-1.927a2.692,2.692,0,0,0-1.413,5.195L75.8,23.091a4.223,4.223,0,0,0,3.683-1.059Zm11.5-2.475L86.41,2.5a2.021,2.021,0,0,0-2.475-1.431l-3.156.845a2.03,2.03,0,0,0-1.435,2.481l.117.425a5.938,5.938,0,0,1-5.228,1.128L66.64,4.2a7.751,7.751,0,0,0-5.785.78L41.875,15.942A4.8,4.8,0,0,0,40.118,22.5a4.746,4.746,0,0,0,2.914,2.231,4.755,4.755,0,0,0,3.639-.475l11.467-6.62a5.211,5.211,0,0,0,.63,1.823,5.148,5.148,0,0,0,3.127,2.427l13.254,3.606a5.524,5.524,0,0,0,1.45.194A7.3,7.3,0,0,0,81,24l3-2.3A2.028,2.028,0,0,0,86.4,22.883l3.156-.846a2.032,2.032,0,0,0,1.435-2.479ZM67.3,45.677a5.4,5.4,0,0,1-5.25-4.158H72.556A5.407,5.407,0,0,1,67.3,45.677ZM67.013,34.21q.143.014.286.014a2.877,2.877,0,0,0,.293-.014l2.695,4.824H64.318Zm.886-3.067a.6.6,0,0,1-.6.6.6.6,0,0,1,0-1.2A.6.6,0,0,1,67.9,31.143Zm-26.954,0a.6.6,0,1,1-.6-.6A.6.6,0,0,1,40.945,31.143Zm-3.588,7.891,2.695-4.824c.1.009.2.014.293.014s.2,0,.293-.014l2.695,4.824H37.357Zm2.987,6.642a5.414,5.414,0,0,1-5.258-4.158H45.6A5.414,5.414,0,0,1,40.345,45.677ZM53.225,29.3a.6.6,0,0,1,.6-.6.6.6,0,1,1-.6.6Zm6.092,22.653v.118H48.333v-.118A1.069,1.069,0,0,1,49.4,50.885h8.846a1.074,1.074,0,0,1,1.069,1.071Zm14.63-12.922a1.241,1.241,0,0,1,1.238,1.242,7.883,7.883,0,1,1-15.765,0,1.241,1.241,0,0,1,1.238-1.242h.813l3.376-6.04a3.031,3.031,0,0,1-.63-1.852,3.2,3.2,0,0,1,.059-.6h-7.63a3.114,3.114,0,0,1-1.582,1.576V48.4h3.185A3.559,3.559,0,0,1,61.8,51.957v1.36a1.243,1.243,0,0,1-1.245,1.242H47.089a1.243,1.243,0,0,1-1.245-1.242v-1.36A3.56,3.56,0,0,1,49.4,48.4H52.58V32.121a3.072,3.072,0,0,1-1.574-1.576H43.369a3.2,3.2,0,0,1,.059.6,3.072,3.072,0,0,1-.622,1.852l3.368,6.04h.813a1.243,1.243,0,0,1,1.245,1.242,7.886,7.886,0,0,1-15.773,0A1.243,1.243,0,0,1,33.7,39.035h.813l3.368-6.04a3.075,3.075,0,0,1,2.336-4.928,1.1,1.1,0,0,1,.125-.006H51.006a3.076,3.076,0,0,1,1.574-1.577V24.524a1.241,1.241,0,1,1,2.482,0v1.959a3.116,3.116,0,0,1,1.582,1.577H67.3a1.292,1.292,0,0,1,.132.006,3.076,3.076,0,0,1,2.328,4.928l3.376,6.04Z" transform="translate(0 0)" fill-rule="evenodd"/>
    </g>
  </g>
</svg>
