<svg xmlns="http://www.w3.org/2000/svg" width="90" height="90" viewBox="0 0 90 90">
  <g id="Grupo_1153186" data-name="Grupo 1153186" transform="translate(-212.049 -9530)">
    <g id="Grupo_1151084" data-name="Grupo 1151084" transform="translate(212.049 9530)">
      <g id="Grupo_1146779" data-name="Grupo 1146779">
        <g id="Grupo_1146639" data-name="Grupo 1146639">
          <path id="Trazado_982549" data-name="Trazado 982549" d="M45,0A45,45,0,1,1,0,45,45,45,0,0,1,45,0Z" fill="#f3f3f3"/>
          <path id="Trazado_982549_-_Contorno" data-name="Trazado 982549 - Contorno" d="M45,3A42.012,42.012,0,0,0,28.653,83.7,42.012,42.012,0,0,0,61.347,6.3,41.734,41.734,0,0,0,45,3m0-3A45,45,0,1,1,0,45,45,45,0,0,1,45,0Z" fill="#f97c61"/>
        </g>
      </g>
    </g>
    <g id="casco-de-seguridad" transform="translate(225 9541)">
      <path id="Trazado_989009" data-name="Trazado 989009" d="M6,54V49a21,21,0,0,1,42,0v5" fill="#f9d266"/>
      <path id="Trazado_989010" data-name="Trazado 989010" d="M27,28A21,21,0,0,0,6,49v2H39a3,3,0,0,0,3-3V34.317A20.925,20.925,0,0,0,27,28Z" fill="#fce797"/>
      <rect id="Rect치ngulo_408050" data-name="Rect치ngulo 408050" width="50" height="8" rx="2" transform="translate(2 54)" fill="#f4a93c"/>
      <path id="Trazado_989011" data-name="Trazado 989011" d="M4,54a2,2,0,0,0-2,2v3H47a2,2,0,0,0,2-2V54Z" fill="#f6b940"/>
      <rect id="Rect치ngulo_408051" data-name="Rect치ngulo 408051" width="10" height="12" rx="2" transform="translate(22 24)" fill="#f4a93c"/>
      <g id="Grupo_1153185" data-name="Grupo 1153185">
        <path id="Trazado_989012" data-name="Trazado 989012" d="M24,24a2,2,0,0,0-2,2v7h5a2,2,0,0,0,2-2V24Z" fill="#f6b940"/>
        <path id="Trazado_989013" data-name="Trazado 989013" d="M26,39h2V51H26Z" fill="#f6b940"/>
        <path id="Trazado_989014" data-name="Trazado 989014" d="M30,39h2V51H30Z" fill="#f6b940"/>
        <path id="Trazado_989015" data-name="Trazado 989015" d="M22,39h2V51H22Z" fill="#f6b940"/>
        <path id="Trazado_989016" data-name="Trazado 989016" d="M14,32.528a20.949,20.949,0,0,0-2,1.789V51h2Z" fill="#f6b940"/>
        <path id="Trazado_989017" data-name="Trazado 989017" d="M40,32.528V51h2V34.317A20.949,20.949,0,0,0,40,32.528Z" fill="#f6b940"/>
      </g>
      <path id="Trazado_989018" data-name="Trazado 989018" d="M62,18V14l-2.381-.952A11.911,11.911,0,0,0,58.3,9.872l1.01-2.357L56.485,4.686,54.128,5.7a11.911,11.911,0,0,0-3.176-1.315L50,2H46l-.952,2.381A11.911,11.911,0,0,0,41.872,5.7L39.515,4.69,36.686,7.515,37.7,9.872a11.911,11.911,0,0,0-1.315,3.176L34,14v4l2.381.952A11.9,11.9,0,0,0,37.7,22.128l-1.01,2.357,2.829,2.829,2.357-1.01a11.911,11.911,0,0,0,3.176,1.315L46,30h4l.952-2.381A11.911,11.911,0,0,0,54.128,26.3l2.357,1.01,2.829-2.829L58.3,22.128a11.9,11.9,0,0,0,1.315-3.176Z" fill="#b5b5b5"/>
      <circle id="Elipse_11553" data-name="Elipse 11553" cx="7" cy="7" r="7" transform="translate(41 9)" fill="#f2f2f2"/>
      <path id="Trazado_989019" data-name="Trazado 989019" d="M50,53H49V49A21.927,21.927,0,0,0,33,27.848V26a3,3,0,0,0-3-3H24a3,3,0,0,0-3,3v1.848A21.925,21.925,0,0,0,5,49v4H4a3,3,0,0,0-3,3v4a3,3,0,0,0,3,3H50a3,3,0,0,0,3-3V56a3,3,0,0,0-3-3ZM23,26a1,1,0,0,1,1-1h6a1,1,0,0,1,1,1v8a1,1,0,0,1-1,1H24a1,1,0,0,1-1-1ZM7,49a19.962,19.962,0,0,1,5-13.236V51h2V33.8a19.908,19.908,0,0,1,7-3.869V34a3,3,0,0,0,3,3h6a3,3,0,0,0,3-3V29.929a19.911,19.911,0,0,1,7,3.87V51h2V35.764A19.964,19.964,0,0,1,47,49v4H7ZM51,60a1,1,0,0,1-1,1H4a1,1,0,0,1-1-1V56a1,1,0,0,1,1-1H50a1,1,0,0,1,1,1Z"/>
      <path id="Trazado_989020" data-name="Trazado 989020" d="M26,39h2V51H26Z"/>
      <path id="Trazado_989021" data-name="Trazado 989021" d="M30,39h2V51H30Z"/>
      <path id="Trazado_989022" data-name="Trazado 989022" d="M22,39h2V51H22Z"/>
      <path id="Trazado_989023" data-name="Trazado 989023" d="M62.371,13.072l-1.92-.769a12.942,12.942,0,0,0-1.032-2.494l.813-1.9a1,1,0,0,0-.211-1.1l-2.829-2.83a1,1,0,0,0-1.1-.212l-1.9.815A12.923,12.923,0,0,0,51.7,3.548l-.767-1.919A1,1,0,0,0,50,1H46a1,1,0,0,0-.929.629L44.3,3.548a12.923,12.923,0,0,0-2.49,1.034l-1.9-.815a1,1,0,0,0-1.1.212L35.979,6.808a1,1,0,0,0-.211,1.1l.813,1.9A12.942,12.942,0,0,0,35.549,12.3l-1.92.769A1,1,0,0,0,33,14v4a1,1,0,0,0,.629.928l1.92.769a12.942,12.942,0,0,0,1.032,2.494l-.813,1.9a1,1,0,0,0,.211,1.1l2.829,2.829a1,1,0,0,0,1.1.212l1.9-.815A12.857,12.857,0,0,0,44.3,28.451l.767,1.92A1,1,0,0,0,46,31h4a1,1,0,0,0,.929-.629l.767-1.92a12.857,12.857,0,0,0,2.494-1.033l1.9.815a1,1,0,0,0,1.1-.212l2.829-2.829a1,1,0,0,0,.211-1.1l-.813-1.9A12.942,12.942,0,0,0,60.451,19.7l1.92-.769A1,1,0,0,0,63,18V14a1,1,0,0,0-.629-.928ZM61,17.323l-1.752.7a1.006,1.006,0,0,0-.6.683,10.874,10.874,0,0,1-1.2,2.909,1,1,0,0,0-.059.906l.743,1.735-1.871,1.871-1.736-.744a1,1,0,0,0-.906.061,10.884,10.884,0,0,1-2.908,1.2,1,1,0,0,0-.684.6L49.323,29H46.677l-.7-1.752a1,1,0,0,0-.684-.6,10.884,10.884,0,0,1-2.908-1.2,1,1,0,0,0-.906-.061l-1.736.744L37.872,24.26l.743-1.735a1,1,0,0,0-.059-.906,10.874,10.874,0,0,1-1.2-2.909,1.006,1.006,0,0,0-.6-.683L35,17.323V14.677l1.752-.7a1.006,1.006,0,0,0,.6-.683,10.874,10.874,0,0,1,1.2-2.909,1,1,0,0,0,.059-.906l-.743-1.735,1.871-1.871,1.736.743a1,1,0,0,0,.906-.06,10.9,10.9,0,0,1,2.909-1.2,1,1,0,0,0,.683-.6L46.677,3h2.646l.7,1.752a1,1,0,0,0,.683.6,10.9,10.9,0,0,1,2.909,1.205,1,1,0,0,0,.906.06l1.736-.743,1.871,1.871L57.385,9.48a1,1,0,0,0,.059.906,10.874,10.874,0,0,1,1.2,2.909,1.006,1.006,0,0,0,.6.683l1.752.7Z"/>
      <path id="Trazado_989024" data-name="Trazado 989024" d="M48,8a8,8,0,1,0,8,8,8,8,0,0,0-8-8Zm0,14a6,6,0,1,1,6-6,6,6,0,0,1-6,6Z"/>
    </g>
  </g>
</svg>
