<svg xmlns="http://www.w3.org/2000/svg" xmlns:xlink="http://www.w3.org/1999/xlink" width="108" height="108" viewBox="0 0 108 108">
  <defs>
    <filter id="Trazado_982549" x="0" y="0" width="108" height="108" filterUnits="userSpaceOnUse">
      <feOffset dy="3" input="SourceAlpha"/>
      <feGaussianBlur stdDeviation="3" result="blur"/>
      <feFlood flood-opacity="0.161"/>
      <feComposite operator="in" in2="blur"/>
      <feComposite in="SourceGraphic"/>
    </filter>
  </defs>
  <g id="Grupo_1156362" data-name="Grupo 1156362" transform="translate(-203 -359)">
    <g id="Grupo_1151085" data-name="Grupo 1151085" transform="translate(212 365)">
      <g id="Grupo_1147078" data-name="Grupo 1147078">
        <g id="Grupo_1146639" data-name="Grupo 1146639">
          <g transform="matrix(1, 0, 0, 1, -9, -6)" filter="url(#Trazado_982549)">
            <g id="Trazado_982549-2" data-name="Trazado 982549" transform="translate(9 6)" fill="#eafbf9">
              <path d="M 45 88.5 C 39.12687683105469 88.5 33.43022537231445 87.35007476806641 28.06830024719238 85.08217620849609 C 22.88852500915527 82.89131164550781 18.23629951477051 79.75458526611328 14.2408504486084 75.75914764404297 C 10.24541282653809 71.76370239257812 7.108687400817871 67.11147308349609 4.917825222015381 61.93170166015625 C 2.649924993515015 56.56977462768555 1.5 50.87312316894531 1.5 45 C 1.5 39.12687683105469 2.649924993515015 33.43022537231445 4.917825222015381 28.06830024719238 C 7.108687400817871 22.88852500915527 10.24541282653809 18.23629951477051 14.2408504486084 14.2408504486084 C 18.23629951477051 10.24541282653809 22.88852500915527 7.108687400817871 28.06830024719238 4.917825222015381 C 33.43022537231445 2.649924993515015 39.12687683105469 1.5 45 1.5 C 50.87312316894531 1.5 56.56977462768555 2.649924993515015 61.93170166015625 4.917825222015381 C 67.11147308349609 7.108687400817871 71.76370239257812 10.24541282653809 75.75914764404297 14.2408504486084 C 79.75458526611328 18.23629951477051 82.89131164550781 22.88852500915527 85.08217620849609 28.06830024719238 C 87.35007476806641 33.43022537231445 88.5 39.12687683105469 88.5 45 C 88.5 50.87312316894531 87.35007476806641 56.56977462768555 85.08217620849609 61.93170166015625 C 82.89131164550781 67.11147308349609 79.75458526611328 71.76370239257812 75.75914764404297 75.75914764404297 C 71.76370239257812 79.75458526611328 67.11147308349609 82.89131164550781 61.93170166015625 85.08217620849609 C 56.56977462768555 87.35007476806641 50.87312316894531 88.5 45 88.5 Z" stroke="none"/>
              <path d="M 45 3 C 39.32871246337891 3 33.82865524291992 4.110054016113281 28.65262985229492 6.299339294433594 C 23.65165710449219 8.414573669433594 19.15968322753906 11.44334411621094 15.301513671875 15.301513671875 C 11.44334411621094 19.15968322753906 8.414573669433594 23.65165710449219 6.299339294433594 28.65262985229492 C 4.110054016113281 33.82865524291992 3 39.32871246337891 3 45 C 3 50.67128753662109 4.110054016113281 56.17134475708008 6.299339294433594 61.34737396240234 C 8.414573669433594 66.34834289550781 11.44334411621094 70.84031677246094 15.301513671875 74.698486328125 C 19.15968322753906 78.55665588378906 23.65165710449219 81.58542633056641 28.65262985229492 83.70066070556641 C 33.82865524291992 85.88994598388672 39.32871246337891 87 45 87 C 50.67128753662109 87 56.17134475708008 85.88994598388672 61.34737396240234 83.70066070556641 C 66.34834289550781 81.58542633056641 70.84031677246094 78.55665588378906 74.698486328125 74.698486328125 C 78.55665588378906 70.84031677246094 81.58542633056641 66.34834289550781 83.70066070556641 61.34737396240234 C 85.88994598388672 56.17134475708008 87 50.67128753662109 87 45 C 87 39.32871246337891 85.88994598388672 33.82865524291992 83.70066070556641 28.65262985229492 C 81.58542633056641 23.65165710449219 78.55665588378906 19.15968322753906 74.698486328125 15.301513671875 C 70.84031677246094 11.44334411621094 66.34834289550781 8.414573669433594 61.34737396240234 6.299339294433594 C 56.17134475708008 4.110054016113281 50.67128753662109 3 45 3 M 45 0 C 69.85281372070312 0 90 20.14718627929688 90 45 C 90 69.85281372070312 69.85281372070312 90 45 90 C 20.14718627929688 90 0 69.85281372070312 0 45 C 0 20.14718627929688 20.14718627929688 0 45 0 Z" stroke="none" fill="#3cddca"/>
            </g>
          </g>
        </g>
      </g>
    </g>
    <g id="gestion-de-equipos" transform="translate(231.103 381.715)">
      <g id="Grupo_1153192" data-name="Grupo 1153192" transform="translate(15.459 1.253)">
        <g id="Grupo_1153187" data-name="Grupo 1153187">
          <circle id="Elipse_11554" data-name="Elipse 11554" cx="12.44" cy="12.44" r="12.44" fill="#f7e365"/>
        </g>
        <g id="Grupo_1153188" data-name="Grupo 1153188" transform="translate(2.455 2.455)">
          <path id="Trazado_989025" data-name="Trazado 989025" d="M181.791,30.468a12.44,12.44,0,0,1-17.405,17.405,12.44,12.44,0,1,0,17.405-17.405Z" transform="translate(-164.386 -30.468)" fill="#f3d332"/>
        </g>
        <g id="Grupo_1153191" data-name="Grupo 1153191" transform="translate(5.028 4.601)">
          <g id="Grupo_1153189" data-name="Grupo 1153189">
            <path id="Trazado_989026" data-name="Trazado 989026" d="M200.908,57.957l1.617-1.756a1.1,1.1,0,0,0,.144-1.3l-.952-1.649a1.1,1.1,0,0,0-1.194-.524l-2.329.523-.074-.043-.712-2.278a1.1,1.1,0,0,0-1.051-.773h-1.9a1.1,1.1,0,0,0-1.051.773l-.712,2.278-.074.043-2.329-.523a1.1,1.1,0,0,0-1.194.524l-.952,1.649a1.1,1.1,0,0,0,.144,1.3l1.617,1.756v.085L188.285,59.8a1.1,1.1,0,0,0-.144,1.3l.952,1.649a1.1,1.1,0,0,0,1.194.524l2.329-.523.074.043.712,2.278a1.1,1.1,0,0,0,1.051.773h1.9a1.1,1.1,0,0,0,1.051-.773l.712-2.278.074-.043,2.329.523a1.1,1.1,0,0,0,1.194-.524l.952-1.649a1.1,1.1,0,0,0-.144-1.3l-1.617-1.756v-.085Zm-5.5,1.8A1.761,1.761,0,1,1,197.167,58,1.761,1.761,0,0,1,195.405,59.761Z" transform="translate(-187.994 -50.161)" fill="#62a4fb"/>
          </g>
          <g id="Grupo_1153190" data-name="Grupo 1153190" transform="translate(4.826 2.544)">
            <path id="Trazado_989027" data-name="Trazado 989027" d="M240.371,78.844v-.085L241.988,77a1.1,1.1,0,0,0,.144-1.3l-.952-1.649a1.1,1.1,0,0,0-1.194-.524l-1.322.3A7.755,7.755,0,0,1,232.282,84l.583,1.865a1.1,1.1,0,0,0,1.051.773h1.9a1.1,1.1,0,0,0,1.051-.773l.712-2.278.074-.043,2.329.523a1.1,1.1,0,0,0,1.194-.524l.952-1.649a1.1,1.1,0,0,0-.144-1.3Z" transform="translate(-232.282 -73.507)" fill="#5392f9"/>
          </g>
        </g>
      </g>
      <g id="Grupo_1153208" data-name="Grupo 1153208" transform="translate(12.265 21.53)">
        <g id="Grupo_1153197" data-name="Grupo 1153197" transform="translate(17.615)">
          <g id="Grupo_1153193" data-name="Grupo 1153193" transform="translate(0 8.807)">
            <path id="Trazado_989028" data-name="Trazado 989028" d="M274.2,278.8v10.449h13.65V278.8a3.963,3.963,0,0,0-3.963-3.963h-5.724A3.963,3.963,0,0,0,274.2,278.8Z" transform="translate(-274.198 -274.832)" fill="#e175a5"/>
          </g>
          <g id="Grupo_1153194" data-name="Grupo 1153194" transform="translate(0 8.807)">
            <path id="Trazado_989029" data-name="Trazado 989029" d="M281.683,278.794a6.571,6.571,0,0,0-1.325-3.963h-2.2a3.963,3.963,0,0,0-3.963,3.963v10.449h7.485Z" transform="translate(-274.198 -274.831)" fill="#de5791"/>
          </g>
          <g id="Grupo_1153195" data-name="Grupo 1153195" transform="translate(2.422)">
            <circle id="Elipse_11555" data-name="Elipse 11555" cx="4.403" cy="4.403" r="4.403" fill="#fed2a4"/>
          </g>
          <g id="Grupo_1153196" data-name="Grupo 1153196" transform="translate(2.939 0.517)">
            <path id="Trazado_989030" data-name="Trazado 989030" d="M307.121,198.759a4.4,4.4,0,0,1-5.957,5.957,4.4,4.4,0,1,0,5.957-5.957Z" transform="translate(-301.164 -198.759)" fill="#ffbd86"/>
          </g>
        </g>
        <g id="Grupo_1153202" data-name="Grupo 1153202">
          <g id="Grupo_1153198" data-name="Grupo 1153198" transform="translate(0 8.807)">
            <path id="Trazado_989031" data-name="Trazado 989031" d="M112.552,278.8v10.449H126.2V278.8a3.963,3.963,0,0,0-3.963-3.963h-5.724A3.963,3.963,0,0,0,112.552,278.8Z" transform="translate(-112.552 -274.832)" fill="#e175a5"/>
          </g>
          <g id="Grupo_1153199" data-name="Grupo 1153199" transform="translate(6.166 8.807)">
            <path id="Trazado_989032" data-name="Trazado 989032" d="M176.615,289.244V278.8a3.963,3.963,0,0,0-3.963-3.963h-2.2a6.57,6.57,0,0,0-1.325,3.963v10.449Z" transform="translate(-169.13 -274.832)" fill="#de5791"/>
          </g>
          <g id="Grupo_1153200" data-name="Grupo 1153200" transform="translate(2.422)">
            <circle id="Elipse_11556" data-name="Elipse 11556" cx="4.403" cy="4.403" r="4.403" fill="#fed2a4"/>
          </g>
          <g id="Grupo_1153201" data-name="Grupo 1153201" transform="translate(2.939 0.517)">
            <path id="Trazado_989033" data-name="Trazado 989033" d="M145.475,198.759a4.4,4.4,0,0,1-5.957,5.957,4.4,4.4,0,1,0,5.957-5.957Z" transform="translate(-139.518 -198.759)" fill="#ffbd86"/>
          </g>
        </g>
        <g id="Grupo_1153207" data-name="Grupo 1153207" transform="translate(8.808)">
          <g id="Grupo_1153203" data-name="Grupo 1153203" transform="translate(0 8.807)">
            <path id="Trazado_989034" data-name="Trazado 989034" d="M193.375,278.8v10.449h13.65V278.8a3.963,3.963,0,0,0-3.963-3.963h-5.724A3.963,3.963,0,0,0,193.375,278.8Z" transform="translate(-193.375 -274.832)" fill="#62a4fb"/>
          </g>
          <g id="Grupo_1153204" data-name="Grupo 1153204" transform="translate(6.825 8.807)">
            <path id="Trazado_989035" data-name="Trazado 989035" d="M258.869,274.832h-2.862a3.963,3.963,0,0,1,3.963,3.963v10.449h2.862V278.8A3.963,3.963,0,0,0,258.869,274.832Z" transform="translate(-256.007 -274.832)" fill="#5392f9"/>
          </g>
          <g id="Grupo_1153205" data-name="Grupo 1153205" transform="translate(2.422)">
            <circle id="Elipse_11557" data-name="Elipse 11557" cx="4.403" cy="4.403" r="4.403" fill="#fed2a4"/>
          </g>
          <g id="Grupo_1153206" data-name="Grupo 1153206" transform="translate(2.939 0.517)">
            <path id="Trazado_989036" data-name="Trazado 989036" d="M226.3,198.759a4.4,4.4,0,0,1-5.957,5.957,4.4,4.4,0,1,0,5.957-5.957Z" transform="translate(-220.341 -198.759)" fill="#ffbd86"/>
          </g>
        </g>
      </g>
      <g id="Grupo_1153214" data-name="Grupo 1153214" transform="translate(0.817 35.671)">
        <g id="Grupo_1153209" data-name="Grupo 1153209" transform="translate(7.045 3.795)">
          <path id="Trazado_989037" data-name="Trazado 989037" d="M72.152,358.6h3.963v14.091H72.152Z" transform="translate(-72.152 -358.597)" fill="#d3effd"/>
        </g>
        <g id="Grupo_1153210" data-name="Grupo 1153210" transform="translate(11.008)">
          <path id="Trazado_989038" data-name="Trazado 989038" d="M150.9,324.549a2.642,2.642,0,0,0-3.736,0l-8.3,8.3H131.2a2.642,2.642,0,0,0,0-5.284H122.83l-1.7-1.376a8.629,8.629,0,0,0-10.782-.07l-1.832,1.446v14.091l15.946,1a8.807,8.807,0,0,0,3.15-.375L140,338.46a4.4,4.4,0,0,0,1.814-1.094l9.081-9.081A2.642,2.642,0,0,0,150.9,324.549Z" transform="translate(-108.519 -323.775)" fill="#fed2a4"/>
        </g>
        <g id="Grupo_1153211" data-name="Grupo 1153211" transform="translate(26.836)">
          <path id="Trazado_989039" data-name="Trazado 989039" d="M280.315,324.549a2.642,2.642,0,0,0-3.736,0l-8.3,8.3H266.7a32.328,32.328,0,0,1-2.648,3,29.572,29.572,0,0,1-10.286,6.8l.118.007a8.807,8.807,0,0,0,3.15-.375l12.388-3.826a4.4,4.4,0,0,0,1.814-1.094l9.081-9.081A2.642,2.642,0,0,0,280.315,324.549Z" transform="translate(-253.763 -323.775)" fill="#ffbd86"/>
        </g>
        <g id="Grupo_1153212" data-name="Grupo 1153212" transform="translate(0 2.033)">
          <path id="Trazado_989040" data-name="Trazado 989040" d="M7.5,342.434h7.045v17.614H7.5Z" transform="translate(-7.5 -342.434)" fill="#62a4fb"/>
        </g>
        <g id="Grupo_1153213" data-name="Grupo 1153213" transform="translate(4.624 2.033)">
          <path id="Trazado_989041" data-name="Trazado 989041" d="M49.928,342.434H52.35v17.614H49.928Z" transform="translate(-49.928 -342.434)" fill="#5392f9"/>
        </g>
      </g>
      <g id="Grupo_1153215" data-name="Grupo 1153215" transform="translate(0 0.435)">
        <circle id="Elipse_11558" data-name="Elipse 11558" cx="0.881" cy="0.881" r="0.881" transform="translate(3.459 39.911)"/>
        <circle id="Elipse_11559" data-name="Elipse 11559" cx="0.881" cy="0.881" r="0.881" transform="translate(3.459 43.434)"/>
        <path id="Trazado_989042" data-name="Trazado 989042" d="M237.5,101a2.579,2.579,0,1,0-2.579,2.579A2.582,2.582,0,0,0,237.5,101Zm-2.579.944a.944.944,0,1,1,.944-.944A.945.945,0,0,1,234.922,101.949Z" transform="translate(-207.024 -87.747)"/>
        <path id="Trazado_989043" data-name="Trazado 989043" d="M54.783,35.866a3.459,3.459,0,0,0-4.893,0l-5.542,5.543V38.72a.817.817,0,0,0-1.635,0v4.325l-.888.888H37.441a3.461,3.461,0,0,0-1.9-5.126V34.3a4.759,4.759,0,0,0-1.185-3.146h5.213A3.149,3.149,0,0,1,42.714,34.3v.6a.817.817,0,1,0,1.635,0v-.6a4.787,4.787,0,0,0-3.928-4.7,5.215,5.215,0,0,0-1.577-8.425,13.294,13.294,0,0,0,2.312-7.481A13.142,13.142,0,0,0,37.161,4.21a.817.817,0,1,0-1.142,1.17,11.52,11.52,0,0,1,3.5,8.312,11.65,11.65,0,0,1-2.375,7.041c-.145-.012-.291-.02-.439-.02a5.22,5.22,0,0,0-4.4,2.422,5.259,5.259,0,0,0-1.8-1.725A1.939,1.939,0,0,0,30.681,21l.5-1.615,1.651.371a1.91,1.91,0,0,0,2.081-.913L35.87,17.2a1.91,1.91,0,0,0-.25-2.259l-1.147-1.245,1.147-1.245a1.91,1.91,0,0,0,.25-2.259L34.918,8.54a1.91,1.91,0,0,0-2.081-.913L31.186,8l-.5-1.615A1.91,1.91,0,0,0,28.85,5.037h-1.9a1.91,1.91,0,0,0-1.831,1.346L24.611,8l-1.651-.371a1.91,1.91,0,0,0-2.081.913l-.952,1.649a1.91,1.91,0,0,0,.25,2.259l1.147,1.245-1.147,1.245a1.91,1.91,0,0,0-.25,2.259l.952,1.649a1.91,1.91,0,0,0,2.081.913l1.651-.371.5,1.615a1.935,1.935,0,0,0,.182.408,5.258,5.258,0,0,0-1.8,1.725,5.22,5.22,0,0,0-4.4-2.422c-.148,0-.294.008-.439.02A11.623,11.623,0,0,1,27.9,2.07,11.5,11.5,0,0,1,33.13,3.311a.817.817,0,0,0,.737-1.459A13.122,13.122,0,0,0,27.9.435,13.258,13.258,0,0,0,16.953,21.173,5.215,5.215,0,0,0,15.376,29.6a4.787,4.787,0,0,0-3.928,4.7v4.348H8.68V37.7a.817.817,0,0,0-.817-.817H.817A.817.817,0,0,0,0,37.7V55.318a.817.817,0,0,0,.817.817H7.863a.817.817,0,0,0,.817-.817v-.944h3.125l10.719.673a.817.817,0,1,0,.1-1.631l-9.983-.626V39.861l1.521-1.2a7.811,7.811,0,0,1,9.76.065l1.7,1.375a.817.817,0,0,0,.514.182H34.5a1.825,1.825,0,0,1,0,3.65H25.036a.817.817,0,0,0-.578.239L23.3,45.328a.817.817,0,1,0,1.156,1.156l.916-.916h16.79a.818.818,0,0,0,.578-.239l8.3-8.305A1.825,1.825,0,1,1,53.627,39.6l-9.081,9.081a3.6,3.6,0,0,1-1.478.89L30.68,53.4a7.95,7.95,0,0,1-2.857.34l-1.389-.087a.817.817,0,0,0-.1,1.631l1.39.087q.3.019.607.019a9.565,9.565,0,0,0,2.834-.429l12.388-3.826a5.239,5.239,0,0,0,2.152-1.3l9.081-9.081a3.464,3.464,0,0,0,0-4.893ZM36.706,22.348a3.586,3.586,0,1,1-3.586,3.586,3.59,3.59,0,0,1,3.586-3.586Zm-9.76-1.635a.282.282,0,0,1-.271-.2l-.712-2.278a.817.817,0,0,0-.371-.464l-.074-.043a.817.817,0,0,0-.588-.09l-2.329.523a.283.283,0,0,1-.308-.135l-.952-1.649a.282.282,0,0,1,.037-.334L23,14.288a.817.817,0,0,0,.216-.554V13.65A.817.817,0,0,0,23,13.1L21.379,11.34a.282.282,0,0,1-.037-.334l.952-1.649a.283.283,0,0,1,.308-.135l2.329.523a.817.817,0,0,0,.588-.09l.074-.043a.817.817,0,0,0,.371-.464l.712-2.278a.282.282,0,0,1,.271-.2h1.9a.282.282,0,0,1,.271.2l.712,2.278a.817.817,0,0,0,.371.464l.074.043a.817.817,0,0,0,.588.09l2.329-.523a.282.282,0,0,1,.308.135l.952,1.649a.282.282,0,0,1-.037.334L32.8,13.1a.817.817,0,0,0-.216.554v.085a.817.817,0,0,0,.216.554l1.617,1.756a.283.283,0,0,1,.037.334L33.5,18.027a.283.283,0,0,1-.308.135l-2.329-.523a.816.816,0,0,0-.587.089l-.075.043a.817.817,0,0,0-.371.464l-.712,2.278a.282.282,0,0,1-.271.2h-1.9Zm.952,1.635a3.586,3.586,0,1,1-3.586,3.586A3.59,3.59,0,0,1,27.9,22.348Zm-8.808,0A3.586,3.586,0,1,1,15.5,25.934a3.59,3.59,0,0,1,3.586-3.586ZM7.045,54.5H1.635V38.521H7.045ZM8.68,40.283h2.329V52.739H8.68Zm7.226-4.414a9.422,9.422,0,0,0-2.754,1.509l-.069.055V34.3a3.149,3.149,0,0,1,3.146-3.146h5.213A4.759,4.759,0,0,0,20.256,34.3v1.13a9.4,9.4,0,0,0-4.349.438Zm9.048,1.587A9.45,9.45,0,0,0,21.89,35.8V34.3a3.149,3.149,0,0,1,3.146-3.146H30.76A3.149,3.149,0,0,1,33.906,34.3v4.348h-7.48Z" transform="translate(0 -0.435)"/>
      </g>
    </g>
  </g>
</svg>
