<svg xmlns="http://www.w3.org/2000/svg" xmlns:xlink="http://www.w3.org/1999/xlink" width="108" height="108" viewBox="0 0 108 108">
  <defs>
    <filter id="Trazado_982549" x="0" y="0" width="108" height="108" filterUnits="userSpaceOnUse">
      <feOffset dy="3" input="SourceAlpha"/>
      <feGaussianBlur stdDeviation="3" result="blur"/>
      <feFlood flood-opacity="0.161"/>
      <feComposite operator="in" in2="blur"/>
      <feComposite in="SourceGraphic"/>
    </filter>
  </defs>
  <g id="Grupo_1153222" data-name="Grupo 1153222" transform="translate(-202.951 -1778)">
    <g id="Grupo_1152121" data-name="Grupo 1152121" transform="translate(211.951 1784)">
      <g id="Grupo_1146779" data-name="Grupo 1146779">
        <g id="Grupo_1146639" data-name="Grupo 1146639">
          <g transform="matrix(1, 0, 0, 1, -9, -6)" filter="url(#Trazado_982549)">
            <g id="Trazado_982549-2" data-name="Trazado 982549" transform="translate(9 6)" fill="#f3f3f3">
              <path d="M 45 88.5 C 39.12687683105469 88.5 33.43022537231445 87.35007476806641 28.06830024719238 85.08217620849609 C 22.88852500915527 82.89131164550781 18.23629951477051 79.75458526611328 14.2408504486084 75.75914764404297 C 10.24541282653809 71.76370239257812 7.108687400817871 67.11147308349609 4.917825222015381 61.93170166015625 C 2.649924993515015 56.56977462768555 1.5 50.87312316894531 1.5 45 C 1.5 39.12687683105469 2.649924993515015 33.43022537231445 4.917825222015381 28.06830024719238 C 7.108687400817871 22.88852500915527 10.24541282653809 18.23629951477051 14.2408504486084 14.2408504486084 C 18.23629951477051 10.24541282653809 22.88852500915527 7.108687400817871 28.06830024719238 4.917825222015381 C 33.43022537231445 2.649924993515015 39.12687683105469 1.5 45 1.5 C 50.87312316894531 1.5 56.56977462768555 2.649924993515015 61.93170166015625 4.917825222015381 C 67.11147308349609 7.108687400817871 71.76370239257812 10.24541282653809 75.75914764404297 14.2408504486084 C 79.75458526611328 18.23629951477051 82.89131164550781 22.88852500915527 85.08217620849609 28.06830024719238 C 87.35007476806641 33.43022537231445 88.5 39.12687683105469 88.5 45 C 88.5 50.87312316894531 87.35007476806641 56.56977462768555 85.08217620849609 61.93170166015625 C 82.89131164550781 67.11147308349609 79.75458526611328 71.76370239257812 75.75914764404297 75.75914764404297 C 71.76370239257812 79.75458526611328 67.11147308349609 82.89131164550781 61.93170166015625 85.08217620849609 C 56.56977462768555 87.35007476806641 50.87312316894531 88.5 45 88.5 Z" stroke="none"/>
              <path d="M 45 3 C 39.32871246337891 3 33.82865524291992 4.110054016113281 28.65262985229492 6.299339294433594 C 23.65165710449219 8.414573669433594 19.15968322753906 11.44334411621094 15.301513671875 15.301513671875 C 11.44334411621094 19.15968322753906 8.414573669433594 23.65165710449219 6.299339294433594 28.65262985229492 C 4.110054016113281 33.82865524291992 3 39.32871246337891 3 45 C 3 50.67128753662109 4.110054016113281 56.17134475708008 6.299339294433594 61.34737396240234 C 8.414573669433594 66.34834289550781 11.44334411621094 70.84031677246094 15.301513671875 74.698486328125 C 19.15968322753906 78.55665588378906 23.65165710449219 81.58542633056641 28.65262985229492 83.70066070556641 C 33.82865524291992 85.88994598388672 39.32871246337891 87 45 87 C 50.67128753662109 87 56.17134475708008 85.88994598388672 61.34737396240234 83.70066070556641 C 66.34834289550781 81.58542633056641 70.84031677246094 78.55665588378906 74.698486328125 74.698486328125 C 78.55665588378906 70.84031677246094 81.58542633056641 66.34834289550781 83.70066070556641 61.34737396240234 C 85.88994598388672 56.17134475708008 87 50.67128753662109 87 45 C 87 39.32871246337891 85.88994598388672 33.82865524291992 83.70066070556641 28.65262985229492 C 81.58542633056641 23.65165710449219 78.55665588378906 19.15968322753906 74.698486328125 15.301513671875 C 70.84031677246094 11.44334411621094 66.34834289550781 8.414573669433594 61.34737396240234 6.299339294433594 C 56.17134475708008 4.110054016113281 50.67128753662109 3 45 3 M 45 0 C 69.85281372070312 0 90 20.14718627929688 90 45 C 90 69.85281372070312 69.85281372070312 90 45 90 C 20.14718627929688 90 0 69.85281372070312 0 45 C 0 20.14718627929688 20.14718627929688 0 45 0 Z" stroke="none" fill="#f97c61"/>
            </g>
          </g>
        </g>
      </g>
    </g>
    <g id="trabajadores" transform="translate(221.788 1776.015)">
      <g id="Grupo_1153220" data-name="Grupo 1153220" transform="translate(1.053 18.535)">
        <g id="Grupo_1153217" data-name="Grupo 1153217" transform="translate(0 19.5)">
          <path id="Trazado_989044" data-name="Trazado 989044" d="M27.961,348.162v16.9H7.5v-16.9l7.285-3.032h5.89Z" transform="translate(-7.502 -319.66)" fill="#fea613"/>
          <path id="Trazado_989045" data-name="Trazado 989045" d="M39.97,257.506H33.078a3.712,3.712,0,0,1-3.712-3.713V247.26H43.682v6.533a3.712,3.712,0,0,1-3.712,3.712Z" transform="translate(-26.295 -235.538)" fill="#ffdfcf"/>
          <path id="Trazado_989046" data-name="Trazado 989046" d="M96.224,247.26v6.533a3.712,3.712,0,0,1-3.712,3.712H90.494a3.712,3.712,0,0,0,3.712-3.712V247.26Z" transform="translate(-78.836 -235.538)" fill="#ffcebf"/>
          <path id="Trazado_989047" data-name="Trazado 989047" d="M31.458,224.1H14.29a.8.8,0,0,1-.8-.8v-2.175a.8.8,0,0,1,.8-.8H31.458a.8.8,0,0,1,.8.8V223.3A.8.8,0,0,1,31.458,224.1Z" transform="translate(-12.644 -212.379)" fill="#fea613"/>
          <path id="Trazado_989048" data-name="Trazado 989048" d="M129.837,221.125V223.3a.8.8,0,0,1-.8.8H127a.8.8,0,0,0,.8-.8v-2.174a.8.8,0,0,0-.8-.8h2.028A.8.8,0,0,1,129.837,221.125Z" transform="translate(-110.219 -212.382)" fill="#fe9901"/>
          <path id="Trazado_989049" data-name="Trazado 989049" d="M39.6,182.55H23.683a6.172,6.172,0,0,1,6.172-6.172h3.569A6.172,6.172,0,0,1,39.6,182.55Z" transform="translate(-21.41 -174.612)" fill="#ffd15b"/>
          <path id="Trazado_989050" data-name="Trazado 989050" d="M88.334,182.552H86.557a6.172,6.172,0,0,0-6.172-6.172h1.777A6.172,6.172,0,0,1,88.334,182.552Z" transform="translate(-70.147 -174.614)" fill="#ffc344"/>
          <path id="Trazado_989051" data-name="Trazado 989051" d="M70.53,163.806H68.383a.7.7,0,0,0-.7.7v7.235h3.553v-7.235A.7.7,0,0,0,70.53,163.806Z" transform="translate(-59.227 -163.806)" fill="#fea613"/>
          <path id="Trazado_989052" data-name="Trazado 989052" d="M77.8,164.512v7.235H76.027v-7.235a.7.7,0,0,0-.7-.7H77.1A.7.7,0,0,1,77.8,164.512Z" transform="translate(-65.798 -163.809)" fill="#fe9901"/>
          <path id="Trazado_989053" data-name="Trazado 989053" d="M59.364,320.2h5.889v3.5H59.364Z" transform="translate(-52.079 -298.232)" fill="#ffdfcf"/>
          <path id="Trazado_989054" data-name="Trazado 989054" d="M86.365,320.2h2.1v3.5h-2.1Z" transform="translate(-75.287 -298.232)" fill="#ffcebf"/>
          <path id="Trazado_989055" data-name="Trazado 989055" d="M59.364,345.129l2.945,5.857,2.945-5.857Z" transform="translate(-52.079 -319.659)" fill="#0593fc"/>
          <path id="Trazado_989056" data-name="Trazado 989056" d="M76.858,345.13l-2.946,5.857L72.865,348.9l1.9-3.773Z" transform="translate(-63.684 -319.66)" fill="#0181fa"/>
          <path id="Trazado_989057" data-name="Trazado 989057" d="M7.5,416.073H27.959v4.666H7.5Z" transform="translate(-7.5 -380.638)" fill="#eaf6ff"/>
          <path id="Trazado_989058" data-name="Trazado 989058" d="M103.658,357.824v16.9H95.57l4.6-18.352Z" transform="translate(-83.199 -329.322)" fill="#fe9901"/>
          <path id="Trazado_989059" data-name="Trazado 989059" d="M111.781,416.07v4.666H105.02l1.169-4.666Z" transform="translate(-91.322 -380.636)" fill="#c8effe"/>
        </g>
        <g id="Grupo_1153218" data-name="Grupo 1153218" transform="translate(49.352 19.5)">
          <path id="Trazado_989060" data-name="Trazado 989060" d="M379.306,348.162v16.9H358.847v-16.9l7.285-3.032h5.89Z" transform="translate(-358.847 -319.66)" fill="#fea613"/>
          <path id="Trazado_989061" data-name="Trazado 989061" d="M491.667,361.374v16.9h-2.1V360.5Z" transform="translate(-471.208 -332.871)" fill="#fe9901"/>
          <path id="Trazado_989062" data-name="Trazado 989062" d="M391.316,257.506h-6.892a3.712,3.712,0,0,1-3.712-3.713V247.26h14.316v6.533A3.712,3.712,0,0,1,391.316,257.506Z" transform="translate(-377.64 -235.538)" fill="#ffdfcf"/>
          <path id="Trazado_989063" data-name="Trazado 989063" d="M447.57,247.26v6.533a3.712,3.712,0,0,1-3.712,3.712H441.84a3.712,3.712,0,0,0,3.712-3.712V247.26Z" transform="translate(-430.182 -235.538)" fill="#ffcebf"/>
          <path id="Trazado_989064" data-name="Trazado 989064" d="M382.8,224.1H365.636a.8.8,0,0,1-.8-.8v-2.175a.8.8,0,0,1,.8-.8H382.8a.8.8,0,0,1,.8.8V223.3A.8.8,0,0,1,382.8,224.1Z" transform="translate(-363.99 -212.379)" fill="#fea613"/>
          <path id="Trazado_989065" data-name="Trazado 989065" d="M481.182,221.125V223.3a.8.8,0,0,1-.8.8H478.35a.8.8,0,0,0,.8-.8v-2.174a.8.8,0,0,0-.8-.8h2.028A.8.8,0,0,1,481.182,221.125Z" transform="translate(-461.564 -212.382)" fill="#fe9901"/>
          <path id="Trazado_989066" data-name="Trazado 989066" d="M390.942,182.55H375.029a6.172,6.172,0,0,1,6.172-6.172h3.569A6.172,6.172,0,0,1,390.942,182.55Z" transform="translate(-372.756 -174.612)" fill="#ffd15b"/>
          <path id="Trazado_989067" data-name="Trazado 989067" d="M439.679,182.552H437.9a6.171,6.171,0,0,0-6.172-6.172h1.777A6.172,6.172,0,0,1,439.679,182.552Z" transform="translate(-421.492 -174.614)" fill="#ffc344"/>
          <path id="Trazado_989068" data-name="Trazado 989068" d="M421.875,163.806h-2.147a.7.7,0,0,0-.7.7v7.235h3.553v-7.235A.7.7,0,0,0,421.875,163.806Z" transform="translate(-410.572 -163.806)" fill="#fea613"/>
          <path id="Trazado_989069" data-name="Trazado 989069" d="M429.149,164.512v7.235h-1.777v-7.235a.7.7,0,0,0-.7-.7h1.775A.7.7,0,0,1,429.149,164.512Z" transform="translate(-417.143 -163.809)" fill="#fe9901"/>
          <path id="Trazado_989070" data-name="Trazado 989070" d="M410.71,320.2H416.6v3.5H410.71Z" transform="translate(-403.425 -298.232)" fill="#ffdfcf"/>
          <path id="Trazado_989071" data-name="Trazado 989071" d="M437.71,320.2h2.1v3.5h-2.1Z" transform="translate(-426.632 -298.232)" fill="#ffcebf"/>
          <path id="Trazado_989072" data-name="Trazado 989072" d="M410.71,345.129l2.945,5.857,2.945-5.857Z" transform="translate(-403.425 -319.659)" fill="#0593fc"/>
          <path id="Trazado_989073" data-name="Trazado 989073" d="M428.2,345.13l-2.946,5.857L424.21,348.9l1.9-3.773Z" transform="translate(-415.029 -319.66)" fill="#0181fa"/>
          <path id="Trazado_989074" data-name="Trazado 989074" d="M358.845,416.073H379.3v4.666H358.845Z" transform="translate(-358.845 -380.638)" fill="#eaf6ff"/>
          <path id="Trazado_989075" data-name="Trazado 989075" d="M489.57,416.07h2.1v4.666h-2.1Z" transform="translate(-471.208 -380.636)" fill="#c8effe"/>
        </g>
        <g id="Grupo_1153219" data-name="Grupo 1153219" transform="translate(14.48 0)">
          <path id="Trazado_989076" data-name="Trazado 989076" d="M322.867,146.362a4.337,4.337,0,1,0,0-8.674l-.834,4.337Z" transform="translate(-292.332 -121.856)" fill="#ffcebf"/>
          <path id="Trazado_989077" data-name="Trazado 989077" d="M157.492,146.362a4.337,4.337,0,0,1,0-8.674l.757,4.337Z" transform="translate(-147.176 -121.856)" fill="#ffdfcf"/>
          <path id="Trazado_989078" data-name="Trazado 989078" d="M171.516,142.026l-.757,4.338a4.325,4.325,0,0,1-2.169-.58V138.27a4.311,4.311,0,0,1,2.169-.58Z" transform="translate(-160.443 -121.858)" fill="#ffcebf"/>
          <path id="Trazado_989079" data-name="Trazado 989079" d="M199.006,153.665h-9.733a5.243,5.243,0,0,1-5.243-5.243V137.689h20.219v10.733A5.243,5.243,0,0,1,199.006,153.665Z" transform="translate(-173.714 -121.857)" fill="#ffdfcf"/>
          <path id="Trazado_989080" data-name="Trazado 989080" d="M280.395,137.69v10.733a5.243,5.243,0,0,1-5.244,5.244H272.62a5.243,5.243,0,0,0,5.244-5.244V137.69Z" transform="translate(-249.86 -121.858)" fill="#ffcebf"/>
          <path id="Trazado_989081" data-name="Trazado 989081" d="M186.984,109.411H162.738a1.137,1.137,0,0,1-1.137-1.136v-2.348a1.137,1.137,0,0,1,1.137-1.137h24.246a1.136,1.136,0,0,1,1.136,1.137v2.348A1.136,1.136,0,0,1,186.984,109.411Z" transform="translate(-154.435 -93.579)" fill="#fea613"/>
          <path id="Trazado_989082" data-name="Trazado 989082" d="M329.04,105.926v2.349a1.136,1.136,0,0,1-1.136,1.136H325.55a1.136,1.136,0,0,0,1.136-1.136v-2.349a1.136,1.136,0,0,0-1.136-1.136H327.9A1.136,1.136,0,0,1,329.04,105.926Z" transform="translate(-295.355 -93.579)" fill="#fe9901"/>
          <path id="Trazado_989083" data-name="Trazado 989083" d="M198.477,51.453H176a8.716,8.716,0,0,1,8.716-8.716h5.041A8.716,8.716,0,0,1,198.477,51.453Z" transform="translate(-166.815 -40.243)" fill="#ffd15b"/>
          <path id="Trazado_989084" data-name="Trazado 989084" d="M268.165,51.456H265.8a8.716,8.716,0,0,0-8.716-8.716h2.368A8.717,8.717,0,0,1,268.165,51.456Z" transform="translate(-236.503 -40.245)" fill="#ffc344"/>
          <path id="Trazado_989085" data-name="Trazado 989085" d="M242.163,24.982h-3.032a.993.993,0,0,0-.993.993V36.192h5.018V25.975a.993.993,0,0,0-.993-.993Z" transform="translate(-220.222 -24.982)" fill="#fea613"/>
          <path id="Trazado_989086" data-name="Trazado 989086" d="M253.36,25.973V36.19H251V25.973a.994.994,0,0,0-.993-.993h2.357A.993.993,0,0,1,253.36,25.973Z" transform="translate(-230.426 -24.98)" fill="#fe9901"/>
          <path id="Trazado_989087" data-name="Trazado 989087" d="M226.4,251.428h8.317v4.944H226.4Z" transform="translate(-210.128 -219.62)" fill="#ffdfcf"/>
          <path id="Trazado_989088" data-name="Trazado 989088" d="M267.3,251.43h2.572v4.944H267.3Z" transform="translate(-245.287 -219.622)" fill="#ffcebf"/>
          <path id="Trazado_989089" data-name="Trazado 989089" d="M151.438,314.779H110.587l5.28-21.074a5.736,5.736,0,0,1,3.354-3.895l7.633-3.178h8.317l7.633,3.178a5.736,5.736,0,0,1,3.354,3.895Z" transform="translate(-110.587 -249.879)" fill="#0593fc"/>
          <path id="Trazado_989090" data-name="Trazado 989090" d="M286.138,314.778h-2.571l-5.28-21.075a5.739,5.739,0,0,0-3.353-3.894L267.3,286.63h2.572l7.633,3.179a5.739,5.739,0,0,1,3.353,3.894Z" transform="translate(-245.287 -249.877)" fill="#0181fa"/>
          <path id="Trazado_989091" data-name="Trazado 989091" d="M184.445,291.417a9.967,9.967,0,0,0-2.452,6.55v16.811h-23.05V297.967a9.967,9.967,0,0,0-2.452-6.55,5.681,5.681,0,0,1,2.186-1.608l7.633-3.179,4.159,6.343,4.159-6.343,7.633,3.179A5.681,5.681,0,0,1,184.445,291.417Z" transform="translate(-150.042 -249.877)" fill="#fea613"/>
          <path id="Trazado_989092" data-name="Trazado 989092" d="M292.05,291.417a9.967,9.967,0,0,0-2.452,6.55v16.811h-2.572V297.967a9.967,9.967,0,0,1,2.453-6.55,5.682,5.682,0,0,0-2.186-1.608l-5.613-2.337.552-.841,7.633,3.179A5.681,5.681,0,0,1,292.05,291.417Z" transform="translate(-257.647 -249.877)" fill="#fe9901"/>
          <path id="Trazado_989093" data-name="Trazado 989093" d="M173.953,386.825H197v6.589H173.953Z" transform="translate(-165.052 -335.999)" fill="#eaf6ff"/>
          <path id="Trazado_989094" data-name="Trazado 989094" d="M319.74,386.83h2.572v6.588H319.74Z" transform="translate(-290.361 -336.003)" fill="#c8effe"/>
        </g>
      </g>
      <g id="Grupo_1153221" data-name="Grupo 1153221" transform="translate(0 17.482)">
        <path id="Trazado_989095" data-name="Trazado 989095" d="M71.269,65.565,64.633,62.8V61.024a4.772,4.772,0,0,0,4.214-4.733v-5.48h.373a1.86,1.86,0,0,0,1.858-1.858V46.778a1.861,1.861,0,0,0-1.506-1.824,7.24,7.24,0,0,0-6.107-6.13,1.828,1.828,0,0,0-1.757-1.842H59.562A1.83,1.83,0,0,0,57.8,38.824a7.24,7.24,0,0,0-6.107,6.13,1.861,1.861,0,0,0-1.506,1.824v2.175a1.86,1.86,0,0,0,1.858,1.858h.373v5.48a4.772,4.772,0,0,0,4.214,4.733V62.8L52.71,64.437l-.584-2.331a6.906,6.906,0,0,0-3.971-4.612l-.785-.327a1.054,1.054,0,0,0-.81,1.945l.785.327a4.68,4.68,0,0,1,1.184.715,11.02,11.02,0,0,0-2.1,6.47v1.684H37.012V61.946L40.519,56.6l1.842.767a1.054,1.054,0,1,0,.81-1.945l-2-.833v-3.2A6.3,6.3,0,0,0,47.122,45.1V43.99a5.388,5.388,0,0,0,2.567-9.276,2.179,2.179,0,0,0,.583-1.483V30.882a2.191,2.191,0,0,0-2.08-2.184,9.831,9.831,0,0,0-8.671-8.666v-.5a2.049,2.049,0,0,0-2.046-2.047H34.443A2.049,2.049,0,0,0,32.4,19.529v.5A9.825,9.825,0,0,0,23.726,28.7a2.191,2.191,0,0,0-2.08,2.184V33.23a2.179,2.179,0,0,0,.583,1.483A5.388,5.388,0,0,0,24.8,43.99V45.1a6.3,6.3,0,0,0,5.951,6.287v3.2l-6.984,2.908A6.891,6.891,0,0,0,19.792,62.1l-.584,2.332L15.281,62.8V61.024a4.772,4.772,0,0,0,4.214-4.733v-5.48a1.973,1.973,0,0,0,2.231-1.858V46.778a1.861,1.861,0,0,0-1.506-1.824,7.241,7.241,0,0,0-6.107-6.129v-.087a1.759,1.759,0,0,0-1.757-1.757H10.21a1.759,1.759,0,0,0-1.757,1.757v.088a7.214,7.214,0,0,0-2.468.831A1.054,1.054,0,1,0,7.011,41.5a5.094,5.094,0,0,1,1.442-.534V44.92H4.489q.029-.137.065-.272A1.054,1.054,0,0,0,2.518,44.1a7.211,7.211,0,0,0-.171.851A1.861,1.861,0,0,0,.841,46.778v2.175a1.969,1.969,0,0,0,2.231,1.858v5.48a4.772,4.772,0,0,0,4.214,4.733V62.8L.649,65.565A1.053,1.053,0,0,0,0,66.537v16.9a1.053,1.053,0,1,0,2.107,0V79.189H10.23v4.246a1.053,1.053,0,1,0,2.107,0V79.189h3.175l-1,3.99a1.054,1.054,0,1,0,2.044.512l5.281-21.075a4.6,4.6,0,0,1,.221-.661,8.911,8.911,0,0,1,1.323,4.67V83.435a1.053,1.053,0,1,0,2.107,0V77h9.418v6.431a1.053,1.053,0,1,0,2.107,0V77H46.43v6.431a1.053,1.053,0,1,0,2.107,0V66.624a8.911,8.911,0,0,1,1.323-4.67,4.613,4.613,0,0,1,.222.662l5.28,21.074a1.054,1.054,0,0,0,2.044-.512l-1-3.99h3.175v4.246a1.053,1.053,0,1,0,2.107,0V79.189h8.123v4.246a1.053,1.053,0,1,0,2.107,0v-16.9A1.053,1.053,0,0,0,71.269,65.565ZM17.208,72.417H12.337v-2.8l2.392-4.757L18.69,66.5Zm-4.034-9.966H9.392V61.057h3.782Zm-.655,2.108-1.236,2.458-1.236-2.458ZM18.077,44.92H14.113V40.963a5.133,5.133,0,0,1,3.964,3.956ZM10.56,39.089h1.446V44.92H10.56ZM2.948,47.027H19.619V48.7H2.948Zm2.231,9.264v-5.48H10.23v1.442a1.053,1.053,0,1,0,2.107,0V50.811h5.051v5.48a2.662,2.662,0,0,1-2.659,2.659H7.837a2.662,2.662,0,0,1-2.659-2.659Zm2.66,8.564,2.392,4.757v2.8H2.107V67.24ZM2.107,77.082V74.523H10.23v2.559Zm10.23,0V74.523H16.68l-.641,2.559ZM35.959,59.71l-2.208-3.368h4.416Zm3.1-5.475h-6.21V51.4h6.21Zm8.058-12.421v-6.22a3.284,3.284,0,0,1,0,6.22Zm-4-18.161-1.023.689a1.054,1.054,0,1,0,1.177,1.747l1.353-.912a7.624,7.624,0,0,1,1.444,3.515H39.522V22.154A7.623,7.623,0,0,1,43.118,23.653ZM34.5,19.589h2.911v9.1H34.5Zm-7.211,5.589,1.353.911a1.054,1.054,0,1,0,1.177-1.747L28.8,23.654a7.638,7.638,0,0,1,3.6-1.5v6.537H25.848A7.616,7.616,0,0,1,27.292,25.178Zm-3.456,8.135a.083.083,0,0,1-.083-.083V30.882a.083.083,0,0,1,.083-.083H48.082a.083.083,0,0,1,.083.083V33.23a.083.083,0,0,1-.083.083Zm-1.27,5.39a3.289,3.289,0,0,1,2.23-3.11v6.22A3.289,3.289,0,0,1,22.566,38.7ZM26.9,45.1V35.42H45.015V45.1a4.194,4.194,0,0,1-4.189,4.19H31.093A4.194,4.194,0,0,1,26.9,45.1ZM23.389,60.154a4.674,4.674,0,0,1,1.184-.715L31.4,56.6l3.507,5.349v6.363H25.487V66.624A11.02,11.02,0,0,0,23.389,60.154Zm2.1,14.744V70.415h9.418V74.9Zm20.942,0H37.012V70.415H46.43Zm14.2-7.881L59.4,64.558h2.471Zm1.891-4.566H58.744V61.057h3.782Zm4.9-17.531H63.465V40.963a5.133,5.133,0,0,1,3.964,3.956Zm-7.517-5.831h1.446V44.92H59.912ZM57.8,40.964V44.92H53.841A5.134,5.134,0,0,1,57.8,40.964ZM52.3,47.027H68.97V48.7H52.3Zm2.231,9.264v-5.48h5.051v1.442a1.053,1.053,0,1,0,2.107,0V50.811H66.74v5.48a2.662,2.662,0,0,1-2.659,2.659H57.189A2.662,2.662,0,0,1,54.53,56.291Zm2.66,8.564,2.392,4.757v2.8H54.71L53.228,66.5ZM55.879,77.082l-.641-2.559h4.344v2.559Zm5.81,0V74.523h1.638a1.053,1.053,0,1,0,0-2.107H61.688v-2.8l2.392-4.757,5.731,2.386v5.177H68.236a1.053,1.053,0,0,0,0,2.107h1.575v2.559H61.688Z" transform="translate(0 -17.482)"/>
        <path id="Trazado_989096" data-name="Trazado 989096" d="M415.025,282.5a2.9,2.9,0,0,0,2.621-1.669,1.054,1.054,0,0,0-1.909-.892.786.786,0,0,1-1.424,0,1.054,1.054,0,1,0-1.909.892,2.9,2.9,0,0,0,2.621,1.669Z" transform="translate(-354.391 -242.553)"/>
        <path id="Trazado_989097" data-name="Trazado 989097" d="M249.553,159.048a1.053,1.053,0,0,0,1.053-1.053V154.6a1.053,1.053,0,0,0-2.107,0v3.39A1.053,1.053,0,0,0,249.553,159.048Z" transform="translate(-213.594 -134.438)"/>
        <path id="Trazado_989098" data-name="Trazado 989098" d="M235.147,204.65a3.665,3.665,0,0,0,3.309-2.106,1.054,1.054,0,0,0-1.909-.892,1.545,1.545,0,0,1-2.8,0,1.054,1.054,0,0,0-1.909.892A3.665,3.665,0,0,0,235.147,204.65Z" transform="translate(-199.188 -175.26)"/>
        <path id="Trazado_989099" data-name="Trazado 989099" d="M63.68,282.5a2.9,2.9,0,0,0,2.621-1.669,1.054,1.054,0,0,0-1.909-.892.786.786,0,0,1-1.424,0,1.054,1.054,0,0,0-1.909.892A2.9,2.9,0,0,0,63.68,282.5Z" transform="translate(-52.396 -242.553)"/>
      </g>
    </g>
  </g>
</svg>
