<svg xmlns="http://www.w3.org/2000/svg" xmlns:xlink="http://www.w3.org/1999/xlink" width="475.743" height="641.469" viewBox="0 0 475.743 641.469">
  <defs>
    <clipPath id="clip-path">
      <rect id="Rectángulo_408320" data-name="Rectángulo 408320" width="475.645" height="637" transform="translate(0 -150)" fill="none"/>
    </clipPath>
    <clipPath id="clip-path-2">
      <rect id="Rectángulo_408299" data-name="Rectángulo 408299" width="475.645" height="633" transform="translate(0 -146)" fill="none"/>
    </clipPath>
    <clipPath id="clip-path-3">
      <rect id="Rectángulo_408243" data-name="Rectángulo 408243" width="26.025" height="30.494" fill="none"/>
    </clipPath>
    <clipPath id="clip-path-4">
      <rect id="Rectángulo_408312" data-name="Rectángulo 408312" width="475.645" height="487" fill="none"/>
    </clipPath>
    <clipPath id="clip-path-5">
      <rect id="Rectángulo_408302" data-name="Rectángulo 408302" width="125.379" height="27.66" fill="none"/>
    </clipPath>
    <clipPath id="clip-path-6">
      <rect id="Rectángulo_408303" data-name="Rectángulo 408303" width="95.222" height="21.801" fill="none"/>
    </clipPath>
    <clipPath id="clip-path-7">
      <rect id="Rectángulo_408304" data-name="Rectángulo 408304" width="20.833" height="30.344" fill="none"/>
    </clipPath>
    <clipPath id="clip-path-8">
      <rect id="Rectángulo_408305" data-name="Rectángulo 408305" width="55.296" height="88.064" fill="none"/>
    </clipPath>
    <clipPath id="clip-path-9">
      <rect id="Rectángulo_408306" data-name="Rectángulo 408306" width="111.058" height="68.141" fill="none"/>
    </clipPath>
    <clipPath id="clip-path-10">
      <rect id="Rectángulo_408307" data-name="Rectángulo 408307" width="11.842" height="15.537" fill="none"/>
    </clipPath>
    <clipPath id="clip-path-11">
      <rect id="Rectángulo_408308" data-name="Rectángulo 408308" width="13.592" height="12.667" fill="none"/>
    </clipPath>
    <clipPath id="clip-path-12">
      <rect id="Rectángulo_408309" data-name="Rectángulo 408309" width="14.874" height="28.856" fill="none"/>
    </clipPath>
    <clipPath id="clip-path-13">
      <rect id="Rectángulo_408310" data-name="Rectángulo 408310" width="40.953" height="20.258" fill="none"/>
    </clipPath>
    <clipPath id="clip-path-14">
      <rect id="Rectángulo_408311" data-name="Rectángulo 408311" width="11.087" height="35.029" fill="none"/>
    </clipPath>
    <clipPath id="clip-path-16">
      <rect id="Rectángulo_408313" data-name="Rectángulo 408313" width="22.555" height="31.163" fill="none"/>
    </clipPath>
    <clipPath id="clip-path-17">
      <rect id="Rectángulo_408314" data-name="Rectángulo 408314" width="26.489" height="31.69" fill="none"/>
    </clipPath>
    <clipPath id="clip-path-18">
      <rect id="Rectángulo_408315" data-name="Rectángulo 408315" width="67.212" height="30.091" fill="none"/>
    </clipPath>
    <clipPath id="clip-path-19">
      <rect id="Rectángulo_408316" data-name="Rectángulo 408316" width="19.805" height="25.7" fill="none"/>
    </clipPath>
  </defs>
  <g id="Grupo_1153280" data-name="Grupo 1153280" transform="translate(-209.354 -2133)">
    <path id="Trazado_991384" data-name="Trazado 991384" d="M0,0H455V641H0Z" transform="translate(230.098 2133)" fill="#fff"/>
    <g id="Grupo_1153279" data-name="Grupo 1153279" transform="translate(209.354 2287.469)">
      <g id="Enmascarar_grupo_1153278" data-name="Enmascarar grupo 1153278" clip-path="url(#clip-path)">
        <rect id="Rectángulo_408052" data-name="Rectángulo 408052" width="58.046" height="220.144" transform="translate(358.467 266.189)" fill="#ebebeb"/>
        <rect id="Rectángulo_408053" data-name="Rectángulo 408053" width="49.791" height="14.601" transform="translate(366.723 251.588)" fill="#c7c7c7"/>
        <rect id="Rectángulo_408054" data-name="Rectángulo 408054" width="45.318" height="164.572" transform="translate(364.832 273.809)" fill="#dbdbdb"/>
        <rect id="Rectángulo_408055" data-name="Rectángulo 408055" width="45.318" height="3.889" transform="translate(364.832 289.515)" fill="#fff"/>
        <rect id="Rectángulo_408056" data-name="Rectángulo 408056" width="45.318" height="3.889" transform="translate(364.832 305.623)" fill="#fff"/>
        <rect id="Rectángulo_408057" data-name="Rectángulo 408057" width="45.318" height="3.889" transform="translate(364.832 321.732)" fill="#fff"/>
        <rect id="Rectángulo_408058" data-name="Rectángulo 408058" width="45.318" height="3.889" transform="translate(364.832 337.84)" fill="#fff"/>
        <rect id="Rectángulo_408059" data-name="Rectángulo 408059" width="45.318" height="3.889" transform="translate(364.832 353.95)" fill="#fff"/>
        <rect id="Rectángulo_408060" data-name="Rectángulo 408060" width="45.318" height="3.889" transform="translate(364.832 370.058)" fill="#fff"/>
        <rect id="Rectángulo_408061" data-name="Rectángulo 408061" width="45.318" height="3.889" transform="translate(364.832 386.166)" fill="#fff"/>
        <rect id="Rectángulo_408062" data-name="Rectángulo 408062" width="45.318" height="3.889" transform="translate(364.832 402.274)" fill="#fff"/>
        <rect id="Rectángulo_408063" data-name="Rectángulo 408063" width="45.318" height="3.889" transform="translate(364.832 418.384)" fill="#fff"/>
        <rect id="Rectángulo_408064" data-name="Rectángulo 408064" width="45.318" height="3.889" transform="translate(364.832 434.492)" fill="#fff"/>
        <rect id="Rectángulo_408065" data-name="Rectángulo 408065" width="36.358" height="220.144" transform="translate(416.514 266.189)" fill="#dbdbdb"/>
        <rect id="Rectángulo_408066" data-name="Rectángulo 408066" width="30.902" height="14.601" transform="translate(416.515 251.588)" fill="#a6a6a6"/>
        <rect id="Rectángulo_408067" data-name="Rectángulo 408067" width="27.954" height="164.572" transform="translate(421.527 273.809)" fill="#c7c7c7"/>
        <rect id="Rectángulo_408068" data-name="Rectángulo 408068" width="27.954" height="3.889" transform="translate(421.527 289.515)" fill="#fff"/>
        <rect id="Rectángulo_408069" data-name="Rectángulo 408069" width="27.954" height="3.889" transform="translate(421.527 305.623)" fill="#fff"/>
        <rect id="Rectángulo_408070" data-name="Rectángulo 408070" width="27.954" height="3.889" transform="translate(421.527 321.732)" fill="#fff"/>
        <rect id="Rectángulo_408071" data-name="Rectángulo 408071" width="27.954" height="3.889" transform="translate(421.527 337.84)" fill="#fff"/>
        <rect id="Rectángulo_408072" data-name="Rectángulo 408072" width="27.954" height="3.889" transform="translate(421.527 353.95)" fill="#fff"/>
        <rect id="Rectángulo_408073" data-name="Rectángulo 408073" width="27.954" height="3.889" transform="translate(421.527 370.058)" fill="#fff"/>
        <rect id="Rectángulo_408074" data-name="Rectángulo 408074" width="27.954" height="3.889" transform="translate(421.527 386.166)" fill="#fff"/>
        <rect id="Rectángulo_408075" data-name="Rectángulo 408075" width="27.954" height="3.889" transform="translate(421.527 402.274)" fill="#fff"/>
        <rect id="Rectángulo_408076" data-name="Rectángulo 408076" width="27.954" height="3.889" transform="translate(421.527 418.384)" fill="#fff"/>
        <rect id="Rectángulo_408077" data-name="Rectángulo 408077" width="27.954" height="3.889" transform="translate(421.527 434.492)" fill="#fff"/>
        <rect id="Rectángulo_408078" data-name="Rectángulo 408078" width="25.606" height="30.248" transform="translate(410.509 307.568)" fill="#dbdbdb"/>
        <rect id="Rectángulo_408079" data-name="Rectángulo 408079" width="16.236" height="31.357" transform="translate(436.115 307.568)" fill="#c7c7c7"/>
        <rect id="Rectángulo_408080" data-name="Rectángulo 408080" width="16.113" height="18.001" transform="translate(437.319 320.925)" fill="#dbdbdb"/>
        <rect id="Rectángulo_408081" data-name="Rectángulo 408081" width="10.05" height="18.001" transform="translate(453.433 320.925)" fill="#c7c7c7"/>
        <rect id="Rectángulo_408082" data-name="Rectángulo 408082" width="41.406" height="150.483" transform="translate(400.687 335.85)" fill="#ebebeb"/>
        <rect id="Rectángulo_408083" data-name="Rectángulo 408083" width="13.02" height="5.32" transform="translate(405.422 342.319)" fill="#fff"/>
        <rect id="Rectángulo_408084" data-name="Rectángulo 408084" width="13.02" height="5.32" transform="translate(422.078 342.319)" fill="#fff"/>
        <rect id="Rectángulo_408085" data-name="Rectángulo 408085" width="13.02" height="5.32" transform="translate(405.422 351.351)" fill="#fff"/>
        <rect id="Rectángulo_408086" data-name="Rectángulo 408086" width="13.02" height="5.32" transform="translate(422.078 351.351)" fill="#fff"/>
        <rect id="Rectángulo_408087" data-name="Rectángulo 408087" width="13.02" height="5.32" transform="translate(405.422 360.384)" fill="#fff"/>
        <rect id="Rectángulo_408088" data-name="Rectángulo 408088" width="13.02" height="5.32" transform="translate(422.078 360.384)" fill="#fff"/>
        <rect id="Rectángulo_408089" data-name="Rectángulo 408089" width="13.02" height="5.32" transform="translate(405.422 369.416)" fill="#fff"/>
        <rect id="Rectángulo_408090" data-name="Rectángulo 408090" width="13.02" height="5.32" transform="translate(422.078 369.416)" fill="#fff"/>
        <rect id="Rectángulo_408091" data-name="Rectángulo 408091" width="13.02" height="5.32" transform="translate(405.422 378.448)" fill="#fff"/>
        <rect id="Rectángulo_408092" data-name="Rectángulo 408092" width="13.02" height="5.32" transform="translate(422.078 378.448)" fill="#fff"/>
        <rect id="Rectángulo_408093" data-name="Rectángulo 408093" width="13.02" height="5.32" transform="translate(405.422 387.481)" fill="#fff"/>
        <rect id="Rectángulo_408094" data-name="Rectángulo 408094" width="13.02" height="5.32" transform="translate(422.078 387.481)" fill="#fff"/>
        <rect id="Rectángulo_408095" data-name="Rectángulo 408095" width="13.02" height="5.32" transform="translate(405.422 396.513)" fill="#fff"/>
        <rect id="Rectángulo_408096" data-name="Rectángulo 408096" width="13.02" height="5.32" transform="translate(422.078 396.513)" fill="#fff"/>
        <rect id="Rectángulo_408097" data-name="Rectángulo 408097" width="13.02" height="5.32" transform="translate(405.422 405.546)" fill="#fff"/>
        <rect id="Rectángulo_408098" data-name="Rectángulo 408098" width="13.02" height="5.32" transform="translate(422.078 405.546)" fill="#fff"/>
        <rect id="Rectángulo_408099" data-name="Rectángulo 408099" width="13.02" height="5.32" transform="translate(405.422 414.578)" fill="#fff"/>
        <rect id="Rectángulo_408100" data-name="Rectángulo 408100" width="13.02" height="5.32" transform="translate(422.078 414.578)" fill="#fff"/>
        <rect id="Rectángulo_408101" data-name="Rectángulo 408101" width="13.02" height="5.32" transform="translate(405.422 423.61)" fill="#fff"/>
        <rect id="Rectángulo_408102" data-name="Rectángulo 408102" width="13.02" height="5.32" transform="translate(422.078 423.61)" fill="#fff"/>
        <rect id="Rectángulo_408103" data-name="Rectángulo 408103" width="13.02" height="5.32" transform="translate(405.422 432.643)" fill="#fff"/>
        <rect id="Rectángulo_408104" data-name="Rectángulo 408104" width="13.02" height="5.32" transform="translate(422.078 432.643)" fill="#fff"/>
        <rect id="Rectángulo_408105" data-name="Rectángulo 408105" width="13.02" height="5.32" transform="translate(405.422 441.675)" fill="#fff"/>
        <rect id="Rectángulo_408106" data-name="Rectángulo 408106" width="13.02" height="5.32" transform="translate(422.078 441.675)" fill="#fff"/>
        <rect id="Rectángulo_408107" data-name="Rectángulo 408107" width="13.02" height="5.32" transform="translate(405.422 450.708)" fill="#fff"/>
        <rect id="Rectángulo_408108" data-name="Rectángulo 408108" width="13.02" height="5.32" transform="translate(422.078 450.708)" fill="#fff"/>
        <rect id="Rectángulo_408109" data-name="Rectángulo 408109" width="13.02" height="5.32" transform="translate(405.422 459.74)" fill="#fff"/>
        <rect id="Rectángulo_408110" data-name="Rectángulo 408110" width="13.02" height="5.32" transform="translate(422.078 459.74)" fill="#fff"/>
        <rect id="Rectángulo_408111" data-name="Rectángulo 408111" width="33.551" height="150.483" transform="translate(442.093 335.85)" fill="#c7c7c7"/>
        <rect id="Rectángulo_408112" data-name="Rectángulo 408112" width="10.69" height="5.32" transform="translate(461.591 459.74)" fill="#ebebeb"/>
        <rect id="Rectángulo_408113" data-name="Rectángulo 408113" width="10.69" height="5.32" transform="translate(447.915 459.74)" fill="#ebebeb"/>
        <rect id="Rectángulo_408114" data-name="Rectángulo 408114" width="10.69" height="5.32" transform="translate(461.591 450.708)" fill="#ebebeb"/>
        <rect id="Rectángulo_408115" data-name="Rectángulo 408115" width="10.69" height="5.32" transform="translate(447.915 450.708)" fill="#ebebeb"/>
        <rect id="Rectángulo_408116" data-name="Rectángulo 408116" width="10.69" height="5.32" transform="translate(461.591 441.676)" fill="#ebebeb"/>
        <rect id="Rectángulo_408117" data-name="Rectángulo 408117" width="10.69" height="5.32" transform="translate(447.915 441.676)" fill="#ebebeb"/>
        <rect id="Rectángulo_408118" data-name="Rectángulo 408118" width="10.69" height="5.32" transform="translate(461.591 432.643)" fill="#ebebeb"/>
        <rect id="Rectángulo_408119" data-name="Rectángulo 408119" width="10.69" height="5.32" transform="translate(447.915 432.643)" fill="#ebebeb"/>
        <rect id="Rectángulo_408120" data-name="Rectángulo 408120" width="10.69" height="5.32" transform="translate(461.591 423.611)" fill="#ebebeb"/>
        <rect id="Rectángulo_408121" data-name="Rectángulo 408121" width="10.69" height="5.32" transform="translate(447.915 423.611)" fill="#ebebeb"/>
        <rect id="Rectángulo_408122" data-name="Rectángulo 408122" width="10.69" height="5.32" transform="translate(461.591 414.578)" fill="#ebebeb"/>
        <rect id="Rectángulo_408123" data-name="Rectángulo 408123" width="10.69" height="5.32" transform="translate(447.915 414.578)" fill="#ebebeb"/>
        <rect id="Rectángulo_408124" data-name="Rectángulo 408124" width="10.69" height="5.32" transform="translate(461.591 405.546)" fill="#ebebeb"/>
        <rect id="Rectángulo_408125" data-name="Rectángulo 408125" width="10.69" height="5.32" transform="translate(447.915 405.546)" fill="#ebebeb"/>
        <rect id="Rectángulo_408126" data-name="Rectángulo 408126" width="10.69" height="5.32" transform="translate(461.591 396.513)" fill="#ebebeb"/>
        <rect id="Rectángulo_408127" data-name="Rectángulo 408127" width="10.69" height="5.32" transform="translate(447.915 396.513)" fill="#ebebeb"/>
        <rect id="Rectángulo_408128" data-name="Rectángulo 408128" width="10.69" height="5.32" transform="translate(461.591 387.481)" fill="#ebebeb"/>
        <rect id="Rectángulo_408129" data-name="Rectángulo 408129" width="10.69" height="5.32" transform="translate(447.915 387.481)" fill="#ebebeb"/>
        <rect id="Rectángulo_408130" data-name="Rectángulo 408130" width="10.69" height="5.32" transform="translate(461.591 378.449)" fill="#ebebeb"/>
        <rect id="Rectángulo_408131" data-name="Rectángulo 408131" width="10.69" height="5.32" transform="translate(447.915 378.449)" fill="#ebebeb"/>
        <rect id="Rectángulo_408132" data-name="Rectángulo 408132" width="10.69" height="5.32" transform="translate(461.591 369.416)" fill="#ebebeb"/>
        <rect id="Rectángulo_408133" data-name="Rectángulo 408133" width="10.69" height="5.32" transform="translate(447.915 369.416)" fill="#ebebeb"/>
        <rect id="Rectángulo_408134" data-name="Rectángulo 408134" width="10.69" height="5.32" transform="translate(461.591 360.384)" fill="#ebebeb"/>
        <rect id="Rectángulo_408135" data-name="Rectángulo 408135" width="10.69" height="5.32" transform="translate(447.915 360.384)" fill="#ebebeb"/>
        <rect id="Rectángulo_408136" data-name="Rectángulo 408136" width="10.69" height="5.32" transform="translate(461.591 351.351)" fill="#ebebeb"/>
        <rect id="Rectángulo_408137" data-name="Rectángulo 408137" width="10.69" height="5.32" transform="translate(447.915 351.351)" fill="#ebebeb"/>
        <rect id="Rectángulo_408138" data-name="Rectángulo 408138" width="10.69" height="5.32" transform="translate(461.591 342.319)" fill="#ebebeb"/>
        <rect id="Rectángulo_408139" data-name="Rectángulo 408139" width="10.69" height="5.32" transform="translate(447.915 342.319)" fill="#ebebeb"/>
        <rect id="Rectángulo_408140" data-name="Rectángulo 408140" width="31.183" height="3.038" transform="translate(94.638 205.039) rotate(-46.686)" fill="#dbdbdb"/>
        <rect id="Rectángulo_408141" data-name="Rectángulo 408141" width="21.91" height="3.038" transform="translate(95.745 205.512)" fill="#dbdbdb"/>
        <rect id="Rectángulo_408142" data-name="Rectángulo 408142" width="21.91" height="3.039" transform="translate(95.745 181.871)" fill="#dbdbdb"/>
        <rect id="Rectángulo_408143" data-name="Rectángulo 408143" width="3.038" height="31.182" transform="translate(94.64 184.432) rotate(-43.306)" fill="#dbdbdb"/>
        <rect id="Rectángulo_408144" data-name="Rectángulo 408144" width="31.183" height="3.038" transform="translate(94.638 228.68) rotate(-46.686)" fill="#dbdbdb"/>
        <rect id="Rectángulo_408145" data-name="Rectángulo 408145" width="21.91" height="3.038" transform="translate(95.745 229.154)" fill="#dbdbdb"/>
        <rect id="Rectángulo_408146" data-name="Rectángulo 408146" width="21.91" height="3.038" transform="translate(95.745 205.512)" fill="#dbdbdb"/>
        <rect id="Rectángulo_408147" data-name="Rectángulo 408147" width="3.038" height="31.183" transform="matrix(0.728, -0.686, 0.686, 0.728, 94.64, 208.073)" fill="#dbdbdb"/>
        <rect id="Rectángulo_408148" data-name="Rectángulo 408148" width="31.183" height="3.038" transform="translate(94.638 252.321) rotate(-46.686)" fill="#dbdbdb"/>
        <rect id="Rectángulo_408149" data-name="Rectángulo 408149" width="21.91" height="3.038" transform="translate(95.745 252.794)" fill="#dbdbdb"/>
        <rect id="Rectángulo_408150" data-name="Rectángulo 408150" width="21.91" height="3.038" transform="translate(95.745 229.154)" fill="#dbdbdb"/>
        <rect id="Rectángulo_408151" data-name="Rectángulo 408151" width="3.038" height="31.183" transform="matrix(0.728, -0.686, 0.686, 0.728, 94.64, 231.714)" fill="#dbdbdb"/>
        <rect id="Rectángulo_408152" data-name="Rectángulo 408152" width="31.183" height="3.038" transform="translate(94.638 275.961) rotate(-46.686)" fill="#dbdbdb"/>
        <rect id="Rectángulo_408153" data-name="Rectángulo 408153" width="21.91" height="3.038" transform="translate(95.745 276.436)" fill="#dbdbdb"/>
        <rect id="Rectángulo_408154" data-name="Rectángulo 408154" width="21.91" height="3.038" transform="translate(95.745 252.794)" fill="#dbdbdb"/>
        <rect id="Rectángulo_408155" data-name="Rectángulo 408155" width="3.038" height="31.183" transform="matrix(0.728, -0.686, 0.686, 0.728, 94.64, 255.355)" fill="#dbdbdb"/>
        <rect id="Rectángulo_408156" data-name="Rectángulo 408156" width="31.183" height="3.038" transform="translate(94.638 299.602) rotate(-46.686)" fill="#dbdbdb"/>
        <rect id="Rectángulo_408157" data-name="Rectángulo 408157" width="21.91" height="3.038" transform="translate(95.745 300.077)" fill="#dbdbdb"/>
        <rect id="Rectángulo_408158" data-name="Rectángulo 408158" width="21.91" height="3.038" transform="translate(95.745 276.436)" fill="#dbdbdb"/>
        <rect id="Rectángulo_408159" data-name="Rectángulo 408159" width="3.038" height="31.183" transform="matrix(0.728, -0.686, 0.686, 0.728, 94.64, 278.996)" fill="#dbdbdb"/>
        <rect id="Rectángulo_408160" data-name="Rectángulo 408160" width="31.183" height="3.038" transform="translate(94.638 323.243) rotate(-46.686)" fill="#dbdbdb"/>
        <rect id="Rectángulo_408161" data-name="Rectángulo 408161" width="21.91" height="3.039" transform="translate(95.745 323.716)" fill="#dbdbdb"/>
        <rect id="Rectángulo_408162" data-name="Rectángulo 408162" width="21.91" height="3.038" transform="translate(95.745 300.077)" fill="#dbdbdb"/>
        <rect id="Rectángulo_408163" data-name="Rectángulo 408163" width="3.038" height="31.183" transform="matrix(0.728, -0.686, 0.686, 0.728, 94.64, 302.637)" fill="#dbdbdb"/>
        <rect id="Rectángulo_408164" data-name="Rectángulo 408164" width="31.183" height="3.038" transform="matrix(0.686, -0.728, 0.728, 0.686, 94.638, 346.884)" fill="#dbdbdb"/>
        <rect id="Rectángulo_408165" data-name="Rectángulo 408165" width="21.91" height="3.039" transform="translate(95.745 347.358)" fill="#dbdbdb"/>
        <rect id="Rectángulo_408166" data-name="Rectángulo 408166" width="21.91" height="3.039" transform="translate(95.745 323.716)" fill="#dbdbdb"/>
        <rect id="Rectángulo_408167" data-name="Rectángulo 408167" width="3.038" height="31.183" transform="matrix(0.728, -0.686, 0.686, 0.728, 94.64, 326.278)" fill="#dbdbdb"/>
        <rect id="Rectángulo_408168" data-name="Rectángulo 408168" width="31.183" height="3.038" transform="matrix(0.686, -0.728, 0.728, 0.686, 94.638, 370.525)" fill="#dbdbdb"/>
        <rect id="Rectángulo_408169" data-name="Rectángulo 408169" width="21.91" height="3.038" transform="translate(95.745 370.999)" fill="#dbdbdb"/>
        <rect id="Rectángulo_408170" data-name="Rectángulo 408170" width="21.91" height="3.039" transform="translate(95.745 347.358)" fill="#dbdbdb"/>
        <rect id="Rectángulo_408171" data-name="Rectángulo 408171" width="3.038" height="31.183" transform="translate(94.64 349.919) rotate(-43.306)" fill="#dbdbdb"/>
        <rect id="Rectángulo_408172" data-name="Rectángulo 408172" width="31.183" height="3.038" transform="matrix(0.686, -0.728, 0.728, 0.686, 94.638, 394.166)" fill="#dbdbdb"/>
        <rect id="Rectángulo_408173" data-name="Rectángulo 408173" width="21.91" height="3.039" transform="translate(95.745 394.639)" fill="#dbdbdb"/>
        <rect id="Rectángulo_408174" data-name="Rectángulo 408174" width="21.91" height="3.038" transform="translate(95.745 370.999)" fill="#dbdbdb"/>
        <rect id="Rectángulo_408175" data-name="Rectángulo 408175" width="3.038" height="31.183" transform="translate(94.64 373.56) rotate(-43.306)" fill="#dbdbdb"/>
        <rect id="Rectángulo_408176" data-name="Rectángulo 408176" width="31.182" height="3.038" transform="translate(94.641 417.81) rotate(-46.701)" fill="#dbdbdb"/>
        <rect id="Rectángulo_408177" data-name="Rectángulo 408177" width="21.91" height="3.038" transform="translate(95.745 418.281)" fill="#dbdbdb"/>
        <rect id="Rectángulo_408178" data-name="Rectángulo 408178" width="21.91" height="3.039" transform="translate(95.745 394.639)" fill="#dbdbdb"/>
        <rect id="Rectángulo_408179" data-name="Rectángulo 408179" width="3.037" height="31.182" transform="translate(94.64 397.201) rotate(-43.307)" fill="#dbdbdb"/>
        <rect id="Rectángulo_408180" data-name="Rectángulo 408180" width="31.183" height="3.037" transform="translate(94.641 441.451) rotate(-46.701)" fill="#dbdbdb"/>
        <rect id="Rectángulo_408181" data-name="Rectángulo 408181" width="21.91" height="3.039" transform="translate(95.745 441.921)" fill="#dbdbdb"/>
        <rect id="Rectángulo_408182" data-name="Rectángulo 408182" width="21.91" height="3.038" transform="translate(95.745 418.281)" fill="#dbdbdb"/>
        <rect id="Rectángulo_408183" data-name="Rectángulo 408183" width="3.037" height="31.183" transform="translate(94.64 420.841) rotate(-43.306)" fill="#dbdbdb"/>
        <rect id="Rectángulo_408184" data-name="Rectángulo 408184" width="26.732" height="13.765" transform="translate(92.876 441.604)" fill="#dbdbdb"/>
        <rect id="Rectángulo_408185" data-name="Rectángulo 408185" width="5.484" height="259.359" transform="translate(92.876 183.109)" fill="#dbdbdb"/>
        <rect id="Rectángulo_408186" data-name="Rectángulo 408186" width="5.484" height="259.359" transform="translate(114.124 183.109)" fill="#dbdbdb"/>
        <path id="Trazado_989100" data-name="Trazado 989100" d="M325.867,169.742l-23.675-23.325L102.384,109.18,41.658,146.59,40.064,144l61.725-38.024L303.663,143.6,328,167.578Z" transform="translate(4.352 11.512)" fill="#dbdbdb"/>
        <path id="Trazado_989101" data-name="Trazado 989101" d="M123.168,149.752,98.83,115.928,75.537,149.7l-5-3.449,28.189-40.876L128.1,146.2Z" transform="translate(7.662 11.447)" fill="#a6a6a6"/>
        <rect id="Rectángulo_408187" data-name="Rectángulo 408187" width="3.038" height="31.183" transform="translate(282.17 162.826) rotate(-46.693)" fill="#dbdbdb"/>
        <rect id="Rectángulo_408188" data-name="Rectángulo 408188" width="3.039" height="21.91" transform="translate(305.333 161.2)" fill="#dbdbdb"/>
        <rect id="Rectángulo_408189" data-name="Rectángulo 408189" width="3.038" height="21.91" transform="translate(281.694 161.2)" fill="#dbdbdb"/>
        <rect id="Rectángulo_408190" data-name="Rectángulo 408190" width="31.183" height="3.038" transform="matrix(0.728, -0.686, 0.686, 0.728, 282.171, 182.006)" fill="#dbdbdb"/>
        <rect id="Rectángulo_408191" data-name="Rectángulo 408191" width="3.038" height="31.183" transform="translate(258.53 162.826) rotate(-46.693)" fill="#dbdbdb"/>
        <rect id="Rectángulo_408192" data-name="Rectángulo 408192" width="3.038" height="21.91" transform="translate(281.694 161.2)" fill="#dbdbdb"/>
        <rect id="Rectángulo_408193" data-name="Rectángulo 408193" width="3.038" height="21.91" transform="translate(258.052 161.2)" fill="#dbdbdb"/>
        <rect id="Rectángulo_408194" data-name="Rectángulo 408194" width="31.183" height="3.038" transform="matrix(0.728, -0.686, 0.686, 0.728, 258.531, 182.006)" fill="#dbdbdb"/>
        <rect id="Rectángulo_408195" data-name="Rectángulo 408195" width="3.038" height="31.183" transform="translate(234.889 162.826) rotate(-46.693)" fill="#dbdbdb"/>
        <rect id="Rectángulo_408196" data-name="Rectángulo 408196" width="3.038" height="21.91" transform="translate(258.052 161.2)" fill="#dbdbdb"/>
        <rect id="Rectángulo_408197" data-name="Rectángulo 408197" width="3.038" height="21.91" transform="translate(234.412 161.2)" fill="#dbdbdb"/>
        <rect id="Rectángulo_408198" data-name="Rectángulo 408198" width="31.183" height="3.038" transform="matrix(0.728, -0.686, 0.686, 0.728, 234.89, 182.006)" fill="#dbdbdb"/>
        <rect id="Rectángulo_408199" data-name="Rectángulo 408199" width="3.038" height="31.183" transform="translate(211.248 162.826) rotate(-46.693)" fill="#dbdbdb"/>
        <rect id="Rectángulo_408200" data-name="Rectángulo 408200" width="3.038" height="21.91" transform="translate(234.412 161.2)" fill="#dbdbdb"/>
        <rect id="Rectángulo_408201" data-name="Rectángulo 408201" width="3.039" height="21.91" transform="translate(210.77 161.2)" fill="#dbdbdb"/>
        <rect id="Rectángulo_408202" data-name="Rectángulo 408202" width="31.183" height="3.038" transform="matrix(0.728, -0.686, 0.686, 0.728, 211.249, 182.006)" fill="#dbdbdb"/>
        <rect id="Rectángulo_408203" data-name="Rectángulo 408203" width="3.038" height="31.183" transform="translate(187.607 162.826) rotate(-46.693)" fill="#dbdbdb"/>
        <rect id="Rectángulo_408204" data-name="Rectángulo 408204" width="3.039" height="21.91" transform="translate(210.77 161.2)" fill="#dbdbdb"/>
        <rect id="Rectángulo_408205" data-name="Rectángulo 408205" width="3.038" height="21.91" transform="translate(187.13 161.2)" fill="#dbdbdb"/>
        <rect id="Rectángulo_408206" data-name="Rectángulo 408206" width="31.183" height="3.038" transform="matrix(0.728, -0.686, 0.686, 0.728, 187.608, 182.006)" fill="#dbdbdb"/>
        <rect id="Rectángulo_408207" data-name="Rectángulo 408207" width="3.038" height="31.183" transform="translate(163.966 162.826) rotate(-46.693)" fill="#dbdbdb"/>
        <rect id="Rectángulo_408208" data-name="Rectángulo 408208" width="3.038" height="21.91" transform="translate(187.13 161.2)" fill="#dbdbdb"/>
        <rect id="Rectángulo_408209" data-name="Rectángulo 408209" width="3.038" height="21.91" transform="translate(163.489 161.2)" fill="#dbdbdb"/>
        <rect id="Rectángulo_408210" data-name="Rectángulo 408210" width="31.183" height="3.038" transform="matrix(0.728, -0.686, 0.686, 0.728, 163.967, 182.006)" fill="#dbdbdb"/>
        <rect id="Rectángulo_408211" data-name="Rectángulo 408211" width="3.038" height="31.183" transform="translate(140.325 162.826) rotate(-46.693)" fill="#dbdbdb"/>
        <rect id="Rectángulo_408212" data-name="Rectángulo 408212" width="3.038" height="21.91" transform="translate(163.489 161.2)" fill="#dbdbdb"/>
        <rect id="Rectángulo_408213" data-name="Rectángulo 408213" width="3.039" height="21.91" transform="translate(139.847 161.2)" fill="#dbdbdb"/>
        <rect id="Rectángulo_408214" data-name="Rectángulo 408214" width="31.183" height="3.038" transform="matrix(0.728, -0.686, 0.686, 0.728, 140.326, 182.006)" fill="#dbdbdb"/>
        <rect id="Rectángulo_408215" data-name="Rectángulo 408215" width="3.038" height="31.183" transform="translate(116.684 162.826) rotate(-46.693)" fill="#dbdbdb"/>
        <rect id="Rectángulo_408216" data-name="Rectángulo 408216" width="3.039" height="21.91" transform="translate(139.847 161.2)" fill="#dbdbdb"/>
        <rect id="Rectángulo_408217" data-name="Rectángulo 408217" width="3.039" height="21.91" transform="translate(116.206 161.2)" fill="#dbdbdb"/>
        <rect id="Rectángulo_408218" data-name="Rectángulo 408218" width="31.183" height="3.038" transform="matrix(0.728, -0.686, 0.686, 0.728, 116.685, 182.006)" fill="#dbdbdb"/>
        <rect id="Rectángulo_408219" data-name="Rectángulo 408219" width="3.038" height="31.183" transform="translate(93.043 162.826) rotate(-46.693)" fill="#dbdbdb"/>
        <rect id="Rectángulo_408220" data-name="Rectángulo 408220" width="3.039" height="21.91" transform="translate(116.206 161.2)" fill="#dbdbdb"/>
        <rect id="Rectángulo_408221" data-name="Rectángulo 408221" width="3.038" height="21.91" transform="translate(92.567 161.2)" fill="#dbdbdb"/>
        <rect id="Rectángulo_408222" data-name="Rectángulo 408222" width="31.183" height="3.038" transform="matrix(0.728, -0.686, 0.686, 0.728, 93.045, 182.006)" fill="#dbdbdb"/>
        <rect id="Rectángulo_408223" data-name="Rectángulo 408223" width="3.038" height="31.183" transform="translate(69.402 162.826) rotate(-46.693)" fill="#dbdbdb"/>
        <rect id="Rectángulo_408224" data-name="Rectángulo 408224" width="3.038" height="21.91" transform="translate(92.567 161.2)" fill="#dbdbdb"/>
        <rect id="Rectángulo_408225" data-name="Rectángulo 408225" width="3.038" height="21.91" transform="translate(68.925 161.2)" fill="#dbdbdb"/>
        <rect id="Rectángulo_408226" data-name="Rectángulo 408226" width="31.183" height="3.038" transform="matrix(0.728, -0.686, 0.686, 0.728, 69.404, 182.006)" fill="#dbdbdb"/>
        <rect id="Rectángulo_408227" data-name="Rectángulo 408227" width="3.038" height="31.183" transform="translate(45.761 162.826) rotate(-46.693)" fill="#dbdbdb"/>
        <rect id="Rectángulo_408228" data-name="Rectángulo 408228" width="3.038" height="21.91" transform="translate(68.925 161.2)" fill="#dbdbdb"/>
        <rect id="Rectángulo_408229" data-name="Rectángulo 408229" width="3.038" height="21.91" transform="translate(45.284 161.2)" fill="#dbdbdb"/>
        <rect id="Rectángulo_408230" data-name="Rectángulo 408230" width="31.183" height="3.038" transform="matrix(0.728, -0.686, 0.686, 0.728, 45.763, 182.006)" fill="#dbdbdb"/>
        <rect id="Rectángulo_408231" data-name="Rectángulo 408231" width="13.746" height="31.605" transform="translate(30.638 155.465)" fill="#a6a6a6"/>
        <rect id="Rectángulo_408232" data-name="Rectángulo 408232" width="13.765" height="31.605" transform="translate(44.384 155.465)" fill="#dbdbdb"/>
        <rect id="Rectángulo_408233" data-name="Rectángulo 408233" width="26.394" height="15.762" transform="translate(49.937 184.634)" fill="#dbdbdb"/>
        <rect id="Rectángulo_408234" data-name="Rectángulo 408234" width="287.962" height="5.484" transform="translate(44.384 179.149)" fill="#dbdbdb"/>
        <path id="Trazado_989102" data-name="Trazado 989102" d="M312.063,147.914H40.035V142.43H306.5Z" transform="translate(4.349 15.471)" fill="#dbdbdb"/>
        <rect id="Rectángulo_408235" data-name="Rectángulo 408235" width="3.039" height="21.91" transform="translate(310.509 161.2)" fill="#dbdbdb"/>
        <rect id="Rectángulo_408236" data-name="Rectángulo 408236" width="3.039" height="72.532" transform="translate(273.865 187.862)" fill="#a6a6a6"/>
        <rect id="Rectángulo_408237" data-name="Rectángulo 408237" width="3.038" height="72.532" transform="translate(299.57 188.863)" fill="#a6a6a6"/>
        <rect id="Rectángulo_408238" data-name="Rectángulo 408238" width="40.066" height="6.458" transform="translate(268.414 184.634)" fill="#dbdbdb"/>
        <g id="Grupo_1153227" data-name="Grupo 1153227">
          <g id="Grupo_1153226" data-name="Grupo 1153226" clip-path="url(#clip-path-2)">
            <path id="Trazado_989103" data-name="Trazado 989103" d="M262.186,241.687l-.336,6.74-.973-1.163a10.635,10.635,0,0,1,3.062,1.317,7.278,7.278,0,0,1,2.406,2.367,6.005,6.005,0,0,1-.161,6.407,6.277,6.277,0,0,1-5.422,2.808,6.578,6.578,0,0,1-5.031-3,6.277,6.277,0,0,0,5.028,2.409,5.386,5.386,0,0,0,4.411-2.825,4.526,4.526,0,0,0-.3-4.814,7.039,7.039,0,0,0-4.411-2.341l-.922-.152-.051-1.012-.336-6.74Z" transform="translate(27.779 26.253)" fill="#a6a6a6"/>
            <path id="Trazado_989104" data-name="Trazado 989104" d="M282.179,229.219v11l-20.036,4.754-20.022-4.754v-11Z" transform="translate(26.3 24.899)" fill="#dbdbdb"/>
            <path id="Trazado_989105" data-name="Trazado 989105" d="M250.863,235.266a2.326,2.326,0,1,1-2.326-2.326,2.325,2.325,0,0,1,2.326,2.326" transform="translate(26.745 25.303)" fill="#a6a6a6"/>
            <path id="Trazado_989106" data-name="Trazado 989106" d="M274.614,235.266a2.326,2.326,0,1,1-2.326-2.326,2.325,2.325,0,0,1,2.326,2.326" transform="translate(29.325 25.303)" fill="#a6a6a6"/>
            <path id="Trazado_989107" data-name="Trazado 989107" d="M323.916,264.108c-16.006-1.442-42.088-4.138-57.91-5.836-16.44,1.733-41.883,4.382-58.172,5.836,16.177-2.043,41.726-4.861,58.127-6.666,16.4,1.815,41.758,4.619,57.954,6.666" transform="translate(22.576 27.965)" fill="#263238"/>
            <rect id="Rectángulo_408239" data-name="Rectángulo 408239" width="116.083" height="3.517" transform="translate(230.409 292.073)" fill="#c7c7c7"/>
            <rect id="Rectángulo_408240" data-name="Rectángulo 408240" width="116.083" height="3.517" transform="translate(230.409 295.589)" fill="#dbdbdb"/>
            <path id="Trazado_989108" data-name="Trazado 989108" d="M101.639,107.925a5.127,5.127,0,1,1-5.126-5.126,5.127,5.127,0,0,1,5.126,5.126" transform="translate(9.927 11.167)" fill="#a6a6a6"/>
            <path id="Trazado_989109" data-name="Trazado 989109" d="M98.638,107.658a2.394,2.394,0,1,1-2.395-2.394,2.395,2.395,0,0,1,2.395,2.394" transform="translate(10.194 11.434)" fill="#dbdbdb"/>
            <rect id="Rectángulo_408241" data-name="Rectángulo 408241" width="44.243" height="10.457" transform="translate(84.121 455.369)" fill="#a6a6a6"/>
            <rect id="Rectángulo_408242" data-name="Rectángulo 408242" width="63.422" height="20.507" transform="translate(74.531 465.825)" fill="#dbdbdb"/>
            <path id="Trazado_989110" data-name="Trazado 989110" d="M123.676,190.367H76.331V137.958h30.92a10.8,10.8,0,0,1,10.709,9.382Z" transform="translate(8.291 14.986)" fill="#ebebeb"/>
            <path id="Trazado_989111" data-name="Trazado 989111" d="M109.836,173.857H87.642a2.179,2.179,0,0,1-.714-.106,2.5,2.5,0,0,1-1.778-2.4v-28h15.783a7.827,7.827,0,0,1,1.58.152,8.57,8.57,0,0,1,3.313,1.323,8.342,8.342,0,0,1,1.837,1.671,8.738,8.738,0,0,1,1.991,4.5l2.657,20.022a2.509,2.509,0,0,1-2.476,2.84" transform="translate(9.249 15.572)" fill="#fff"/>
            <g id="Grupo_1153225" data-name="Grupo 1153225" transform="translate(94.395 158.928)" opacity="0.5">
              <g id="Grupo_1153224" data-name="Grupo 1153224">
                <g id="Grupo_1153223" data-name="Grupo 1153223" clip-path="url(#clip-path-3)">
                  <path id="Trazado_989112" data-name="Trazado 989112" d="M91.224,143.356l19.287,19.052-1.522-11.414a8.749,8.749,0,0,0-1.314-3.6l-.014-.028-2.725-2.684a8.535,8.535,0,0,0-3.085-1.176,7.43,7.43,0,0,0-1.578-.152Z" transform="translate(-84.486 -143.356)" fill="#ebebeb"/>
                  <path id="Trazado_989113" data-name="Trazado 989113" d="M85.146,149.421v7.485l16.479,16.285h7.567Z" transform="translate(-85.146 -142.697)" fill="#ebebeb"/>
                  <path id="Trazado_989114" data-name="Trazado 989114" d="M85.146,158.818v1.134L97.5,172.17h1.162Z" transform="translate(-85.146 -141.676)" fill="#ebebeb"/>
                </g>
              </g>
            </g>
            <rect id="Rectángulo_408244" data-name="Rectángulo 408244" width="79.352" height="80.746" transform="translate(305.177 405.587)" fill="#c7c7c7"/>
            <rect id="Rectángulo_408245" data-name="Rectángulo 408245" width="79.352" height="127.934" transform="translate(225.825 358.398)" fill="#c7c7c7"/>
            <rect id="Rectángulo_408246" data-name="Rectángulo 408246" width="30.336" height="127.934" transform="translate(195.488 358.398)" fill="#ebebeb"/>
            <rect id="Rectángulo_408247" data-name="Rectángulo 408247" width="15.627" height="6.747" transform="translate(280.138 368.923)" fill="#fff"/>
            <rect id="Rectángulo_408248" data-name="Rectángulo 408248" width="15.627" height="6.747" transform="translate(280.138 383.334)" fill="#fff"/>
            <rect id="Rectángulo_408249" data-name="Rectángulo 408249" width="15.627" height="6.747" transform="translate(280.138 397.746)" fill="#fff"/>
            <rect id="Rectángulo_408250" data-name="Rectángulo 408250" width="15.627" height="6.747" transform="translate(280.138 412.157)" fill="#fff"/>
            <rect id="Rectángulo_408251" data-name="Rectángulo 408251" width="15.627" height="6.747" transform="translate(280.138 426.568)" fill="#fff"/>
            <rect id="Rectángulo_408252" data-name="Rectángulo 408252" width="15.627" height="6.747" transform="translate(280.138 440.98)" fill="#fff"/>
            <rect id="Rectángulo_408253" data-name="Rectángulo 408253" width="15.627" height="6.747" transform="translate(280.138 455.391)" fill="#fff"/>
            <rect id="Rectángulo_408254" data-name="Rectángulo 408254" width="15.627" height="6.747" transform="translate(257.66 368.923)" fill="#fff"/>
            <rect id="Rectángulo_408255" data-name="Rectángulo 408255" width="15.627" height="6.747" transform="translate(257.66 383.334)" fill="#fff"/>
            <rect id="Rectángulo_408256" data-name="Rectángulo 408256" width="15.627" height="6.747" transform="translate(257.66 397.746)" fill="#fff"/>
            <rect id="Rectángulo_408257" data-name="Rectángulo 408257" width="15.627" height="6.747" transform="translate(257.66 412.157)" fill="#fff"/>
            <rect id="Rectángulo_408258" data-name="Rectángulo 408258" width="15.627" height="6.747" transform="translate(257.66 426.568)" fill="#fff"/>
            <rect id="Rectángulo_408259" data-name="Rectángulo 408259" width="15.627" height="6.747" transform="translate(257.66 440.98)" fill="#fff"/>
            <rect id="Rectángulo_408260" data-name="Rectángulo 408260" width="15.627" height="6.747" transform="translate(257.66 455.391)" fill="#fff"/>
            <rect id="Rectángulo_408261" data-name="Rectángulo 408261" width="15.627" height="6.747" transform="translate(235.236 368.923)" fill="#fff"/>
            <rect id="Rectángulo_408262" data-name="Rectángulo 408262" width="15.627" height="6.747" transform="translate(235.236 383.334)" fill="#fff"/>
            <rect id="Rectángulo_408263" data-name="Rectángulo 408263" width="15.627" height="6.747" transform="translate(235.236 397.746)" fill="#fff"/>
            <rect id="Rectángulo_408264" data-name="Rectángulo 408264" width="15.627" height="6.747" transform="translate(235.236 412.157)" fill="#fff"/>
            <rect id="Rectángulo_408265" data-name="Rectángulo 408265" width="15.627" height="6.747" transform="translate(235.236 426.568)" fill="#fff"/>
            <rect id="Rectángulo_408266" data-name="Rectángulo 408266" width="15.627" height="6.747" transform="translate(235.236 440.98)" fill="#fff"/>
            <rect id="Rectángulo_408267" data-name="Rectángulo 408267" width="15.627" height="6.747" transform="translate(235.236 455.391)" fill="#fff"/>
            <rect id="Rectángulo_408268" data-name="Rectángulo 408268" width="15.627" height="6.747" transform="translate(359.49 412.157)" fill="#fff"/>
            <rect id="Rectángulo_408269" data-name="Rectángulo 408269" width="15.627" height="6.747" transform="translate(359.49 426.568)" fill="#fff"/>
            <rect id="Rectángulo_408270" data-name="Rectángulo 408270" width="15.627" height="6.747" transform="translate(359.49 440.98)" fill="#fff"/>
            <rect id="Rectángulo_408271" data-name="Rectángulo 408271" width="15.627" height="6.747" transform="translate(359.49 455.391)" fill="#fff"/>
            <rect id="Rectángulo_408272" data-name="Rectángulo 408272" width="15.627" height="6.747" transform="translate(337.011 412.157)" fill="#fff"/>
            <rect id="Rectángulo_408273" data-name="Rectángulo 408273" width="15.627" height="6.747" transform="translate(337.011 426.568)" fill="#fff"/>
            <rect id="Rectángulo_408274" data-name="Rectángulo 408274" width="15.627" height="6.747" transform="translate(337.011 440.98)" fill="#fff"/>
            <rect id="Rectángulo_408275" data-name="Rectángulo 408275" width="15.627" height="6.747" transform="translate(337.011 455.391)" fill="#fff"/>
            <rect id="Rectángulo_408276" data-name="Rectángulo 408276" width="15.627" height="6.747" transform="translate(314.588 412.157)" fill="#fff"/>
            <rect id="Rectángulo_408277" data-name="Rectángulo 408277" width="15.627" height="6.747" transform="translate(314.588 426.568)" fill="#fff"/>
            <rect id="Rectángulo_408278" data-name="Rectángulo 408278" width="15.627" height="6.747" transform="translate(314.588 440.98)" fill="#fff"/>
            <rect id="Rectángulo_408279" data-name="Rectángulo 408279" width="15.627" height="6.747" transform="translate(314.588 455.391)" fill="#fff"/>
            <rect id="Rectángulo_408280" data-name="Rectángulo 408280" width="15.627" height="6.747" transform="translate(202.843 368.923)" fill="#fff"/>
            <rect id="Rectángulo_408281" data-name="Rectángulo 408281" width="15.627" height="6.747" transform="translate(202.843 383.334)" fill="#fff"/>
            <rect id="Rectángulo_408282" data-name="Rectángulo 408282" width="15.627" height="6.747" transform="translate(202.843 397.746)" fill="#fff"/>
            <rect id="Rectángulo_408283" data-name="Rectángulo 408283" width="15.627" height="6.747" transform="translate(202.843 412.157)" fill="#fff"/>
            <rect id="Rectángulo_408284" data-name="Rectángulo 408284" width="15.627" height="6.747" transform="translate(202.843 426.568)" fill="#fff"/>
            <rect id="Rectángulo_408285" data-name="Rectángulo 408285" width="15.627" height="6.747" transform="translate(202.843 440.98)" fill="#fff"/>
            <rect id="Rectángulo_408286" data-name="Rectángulo 408286" width="15.627" height="6.747" transform="translate(202.843 455.391)" fill="#fff"/>
            <rect id="Rectángulo_408287" data-name="Rectángulo 408287" width="2.817" height="37.583" transform="translate(261.275 320.815)" fill="#c7c7c7"/>
            <rect id="Rectángulo_408288" data-name="Rectángulo 408288" width="2.817" height="37.583" transform="translate(264.092 320.815)" fill="#dbdbdb"/>
            <rect id="Rectángulo_408289" data-name="Rectángulo 408289" width="2.817" height="37.583" transform="translate(223.008 320.815)" fill="#c7c7c7"/>
            <rect id="Rectángulo_408290" data-name="Rectángulo 408290" width="2.817" height="37.583" transform="translate(225.826 320.815)" fill="#dbdbdb"/>
            <rect id="Rectángulo_408291" data-name="Rectángulo 408291" width="2.817" height="37.583" transform="translate(299.543 320.815)" fill="#c7c7c7"/>
            <rect id="Rectángulo_408292" data-name="Rectángulo 408292" width="2.817" height="37.583" transform="translate(302.36 320.815)" fill="#dbdbdb"/>
            <rect id="Rectángulo_408293" data-name="Rectángulo 408293" width="2.817" height="37.583" transform="translate(340.627 367.915)" fill="#c7c7c7"/>
            <rect id="Rectángulo_408294" data-name="Rectángulo 408294" width="2.817" height="37.583" transform="translate(343.444 367.915)" fill="#dbdbdb"/>
            <rect id="Rectángulo_408295" data-name="Rectángulo 408295" width="2.817" height="37.583" transform="translate(378.894 367.915)" fill="#c7c7c7"/>
            <rect id="Rectángulo_408296" data-name="Rectángulo 408296" width="2.818" height="37.583" transform="translate(381.711 367.915)" fill="#dbdbdb"/>
            <rect id="Rectángulo_408297" data-name="Rectángulo 408297" width="2.817" height="37.583" transform="translate(195.489 320.815)" fill="#c7c7c7"/>
            <rect id="Rectángulo_408298" data-name="Rectángulo 408298" width="2.817" height="37.583" transform="translate(198.306 320.815)" fill="#dbdbdb"/>
            <path id="Trazado_989115" data-name="Trazado 989115" d="M425.145,50.974H368.431s12.673-18.36,22.657-18.36,12.934,12.24,12.934,12.24,7.046-5.713,13.574-4.693,7.549,10.812,7.549,10.812" transform="translate(40.021 3.543)" fill="#ebebeb"/>
            <path id="Trazado_989116" data-name="Trazado 989116" d="M273.179,210.947H162.711s15.128-33.773,31.311-35.884,23.923,25.095,23.923,25.095,10.437-9.615,18.646-9.615,14.542,12.665,14.542,12.665,16.418-8.678,22.046,7.739" transform="translate(17.674 19.004)" fill="#b0f1e9"/>
            <path id="Trazado_989117" data-name="Trazado 989117" d="M92.284,43.328H17.661S30.48,18.858,44.386,18.5,65.6,37.021,65.6,37.021s21.631-17.36,26.682,6.307" transform="translate(9.029 2.009)" fill="#b0f1e9"/>
            <path id="Trazado_989118" data-name="Trazado 989118" d="M136.5,66.04H86.129s8.652-16.516,18.037-16.757,14.32,12.5,14.32,12.5,14.6-11.717,18.01,4.257" transform="translate(9.356 5.353)" fill="#b0f1e9"/>
            <path id="Trazado_989229" data-name="Trazado 989229" d="M147.185,61.6H17.661s22.25-42.472,46.386-43.09,36.824,32.143,36.824,32.143S138.418,20.517,147.185,61.6" transform="translate(168.439 -107.991)" fill="#b0f1e9"/>
            <path id="Trazado_989230" data-name="Trazado 989230" d="M114.815,50.825H17.661S34.351,18.967,52.455,18.5s27.622,24.11,27.622,24.11,28.163-22.6,34.739,8.211" transform="translate(102.759 -57.547)" fill="#b0f1e9"/>
            <path id="Trazado_989231" data-name="Trazado 989231" d="M77.319,38.349H17.661S27.909,18.786,39.026,18.5s16.961,14.8,16.961,14.8,17.294-13.879,21.332,5.042" transform="translate(377.213 -41.383)" fill="#b0f1e9"/>
            <path id="Trazado_989232" data-name="Trazado 989232" d="M77.319,38.349H17.661S27.909,18.786,39.026,18.5s16.961,14.8,16.961,14.8,17.294-13.879,21.332,5.042" transform="translate(334.221 -127.842)" fill="#b0f1e9"/>
          </g>
        </g>
        <rect id="Rectángulo_408300" data-name="Rectángulo 408300" width="12.062" height="486.489" transform="translate(365.22)" fill="#263238"/>
        <g id="Grupo_1153259" data-name="Grupo 1153259">
          <g id="Grupo_1153258" data-name="Grupo 1153258" clip-path="url(#clip-path-4)">
            <path id="Trazado_989119" data-name="Trazado 989119" d="M422.905,258.776H264.673a11.863,11.863,0,0,1-11.863-11.863V29.614a11.863,11.863,0,0,1,11.863-11.863H422.905a11.863,11.863,0,0,1,11.863,11.863v217.3a11.863,11.863,0,0,1-11.863,11.863" transform="translate(27.461 1.928)" fill="#455a64"/>
            <path id="Rectángulo_408301" data-name="Rectángulo 408301" d="M5.118,0h154.8a5.118,5.118,0,0,1,5.118,5.118V218.987a5.118,5.118,0,0,1-5.118,5.118H5.119A5.119,5.119,0,0,1,0,218.986V5.118A5.118,5.118,0,0,1,5.118,0Z" transform="translate(288.732 28.139)" fill="none" stroke="#fff" stroke-miterlimit="10" stroke-width="2"/>
            <path id="Trazado_989120" data-name="Trazado 989120" d="M337.834,33.259a2.7,2.7,0,1,1-2.7-2.7,2.7,2.7,0,0,1,2.7,2.7" transform="translate(36.112 3.32)" fill="#ebebeb"/>
            <path id="Trazado_989121" data-name="Trazado 989121" d="M337.834,220.18a2.7,2.7,0,1,1-2.7-2.7,2.7,2.7,0,0,1,2.7,2.7" transform="translate(36.112 23.624)" fill="#ebebeb"/>
            <path id="Trazado_989122" data-name="Trazado 989122" d="M283.724,174.6V159.939a1.347,1.347,0,0,1,1.367-1.367,1.368,1.368,0,0,1,1.391,1.367V165.9h6.437v-5.964a1.347,1.347,0,0,1,1.366-1.367,1.368,1.368,0,0,1,1.392,1.367V174.6a1.368,1.368,0,0,1-1.392,1.367,1.347,1.347,0,0,1-1.366-1.367v-5.963h-6.437V174.6a1.368,1.368,0,0,1-1.391,1.367,1.347,1.347,0,0,1-1.367-1.367" transform="translate(30.819 17.225)" fill="#fff"/>
            <path id="Trazado_989123" data-name="Trazado 989123" d="M307.132,171.864h-6.038l-1.218,3.231a1.393,1.393,0,0,1-1.292.87,1.451,1.451,0,0,1-.473-.074,1.41,1.41,0,0,1-.819-1.789l5.492-14.637a1.389,1.389,0,0,1,1.317-.869,1.368,1.368,0,0,1,1.317.869l5.491,14.637a1.41,1.41,0,0,1-.819,1.789,1.393,1.393,0,0,1-1.741-.8Zm-1.019-2.733-2.012-5.342-2.013,5.342Z" transform="translate(32.285 17.227)" fill="#fff"/>
            <path id="Trazado_989124" data-name="Trazado 989124" d="M324.176,173.905a1.371,1.371,0,0,1-.87,1.739,2.147,2.147,0,0,1-.547.074h-.024a1.8,1.8,0,0,1-.969-.273,2.452,2.452,0,0,1-.8-.87,6.689,6.689,0,0,1-.522-2.981,2.077,2.077,0,0,0-.3-1.069,2.319,2.319,0,0,0-.746-.722,4.758,4.758,0,0,0-1.391-.6h-2.931V174.6a1.385,1.385,0,0,1-1.392,1.367,1.363,1.363,0,0,1-1.367-1.367V159.94a1.347,1.347,0,0,1,1.367-1.367h4.448a5.313,5.313,0,0,1,3.379,9.418,3.82,3.82,0,0,1,.87.92,4.7,4.7,0,0,1,.82,2.684,6.3,6.3,0,0,0,.1,1.466,1.337,1.337,0,0,1,.87.845m-3.479-9.99a2.561,2.561,0,0,0-2.56-2.584h-3.055v5.12h3.055a2.552,2.552,0,0,0,2.56-2.535" transform="translate(33.926 17.225)" fill="#fff"/>
            <path id="Trazado_989125" data-name="Trazado 989125" d="M326.644,174.6V159.939a1.347,1.347,0,0,1,1.367-1.366h2.932a8.7,8.7,0,0,1,0,17.394h-2.932a1.363,1.363,0,0,1-1.367-1.367m2.758-1.391h1.541a5.939,5.939,0,0,0,0-11.878H329.4Z" transform="translate(35.482 17.225)" fill="#fff"/>
            <path id="Trazado_989126" data-name="Trazado 989126" d="M349.482,174.6V159.939a1.347,1.347,0,0,1,1.367-1.367,1.368,1.368,0,0,1,1.391,1.367V165.9h6.437v-5.964a1.347,1.347,0,0,1,1.366-1.367,1.368,1.368,0,0,1,1.392,1.367V174.6a1.368,1.368,0,0,1-1.392,1.367,1.347,1.347,0,0,1-1.366-1.367v-5.963H352.24V174.6a1.368,1.368,0,0,1-1.391,1.367,1.347,1.347,0,0,1-1.367-1.367" transform="translate(37.962 17.225)" fill="#fff"/>
            <path id="Trazado_989127" data-name="Trazado 989127" d="M372.891,171.864h-6.038l-1.218,3.231a1.394,1.394,0,0,1-1.292.87,1.451,1.451,0,0,1-.473-.074,1.41,1.41,0,0,1-.819-1.789l5.492-14.637a1.389,1.389,0,0,1,1.317-.869,1.368,1.368,0,0,1,1.317.869l5.491,14.637a1.41,1.41,0,0,1-.819,1.789,1.392,1.392,0,0,1-1.739-.8Zm-1.019-2.733-2.012-5.342-2.013,5.342Z" transform="translate(39.428 17.227)" fill="#fff"/>
            <path id="Trazado_989128" data-name="Trazado 989128" d="M386.922,161.331H382.97V174.6a1.348,1.348,0,0,1-1.367,1.367,1.363,1.363,0,0,1-1.366-1.367v-13.27h-3.927a1.384,1.384,0,0,1-1.367-1.391,1.347,1.347,0,0,1,1.367-1.367h10.611a1.362,1.362,0,0,1,1.366,1.367,1.4,1.4,0,0,1-1.366,1.391" transform="translate(40.728 17.225)" fill="#fff"/>
            <path id="Trazado_989129" data-name="Trazado 989129" d="M292.916,198.939a1.342,1.342,0,0,1-.849,1.7,2.146,2.146,0,0,1-.535.073h-.023a1.768,1.768,0,0,1-.948-.267,2.388,2.388,0,0,1-.777-.85,6.523,6.523,0,0,1-.511-2.916,2.045,2.045,0,0,0-.29-1.044,2.246,2.246,0,0,0-.729-.7,4.628,4.628,0,0,0-1.359-.583h-2.867v5.272a1.354,1.354,0,0,1-1.361,1.336,1.333,1.333,0,0,1-1.336-1.336V185.288a1.317,1.317,0,0,1,1.336-1.336h4.349a5.194,5.194,0,0,1,3.3,9.206,3.772,3.772,0,0,1,.85.9,4.6,4.6,0,0,1,.8,2.623,6.1,6.1,0,0,0,.1,1.433,1.312,1.312,0,0,1,.849.826m-3.4-9.765a2.5,2.5,0,0,0-2.5-2.527h-2.988v5h2.988a2.494,2.494,0,0,0,2.5-2.478" transform="translate(30.559 19.982)" fill="#fff"/>
            <path id="Trazado_989130" data-name="Trazado 989130" d="M295.33,199.62V185.288a1.317,1.317,0,0,1,1.336-1.336h7.943a1.348,1.348,0,0,1,1.336,1.336,1.37,1.37,0,0,1-1.336,1.36h-6.583v4.446h5.66a1.348,1.348,0,0,1,0,2.7h-5.66v4.47h6.583a1.348,1.348,0,0,1,0,2.7h-7.87c-.049,0-.049-.024-.049-.024l-.024.024a1.332,1.332,0,0,1-1.336-1.336" transform="translate(32.08 19.982)" fill="#fff"/>
            <path id="Trazado_989131" data-name="Trazado 989131" d="M325.559,203.384a6.7,6.7,0,0,1-4.008,1.531h-.073a8.637,8.637,0,0,1-4.444-1.458,3.043,3.043,0,0,0-1.482-.365,4.155,4.155,0,0,0-1.725.414,1.278,1.278,0,0,1-1.408-.073c-.026-.024-.074-.024-.146-.049-.024-.024-.024-.024-.049-.024a1.8,1.8,0,0,1-.34-.559,1.385,1.385,0,0,1,.656-1.87l.072-.049a10.616,10.616,0,0,1-2.7-1.846,9.506,9.506,0,0,1-2.43-6.34,9.318,9.318,0,0,1,2.43-6.267,8.229,8.229,0,0,1,6.072-2.7,8.005,8.005,0,0,1,6.024,2.7,9.023,9.023,0,0,1,2.478,6.267,9.2,9.2,0,0,1-2.478,6.34,9.384,9.384,0,0,1-2.7,1.919l-.56.218a5.97,5.97,0,0,0,2.721.875,3.668,3.668,0,0,0,2.381-.923,1.4,1.4,0,0,1,1.967.243,1.421,1.421,0,0,1-.267,2.017m-13.529-6.316a5.282,5.282,0,0,0,3.958,1.749A5.552,5.552,0,0,0,320,197.069a6.342,6.342,0,0,0,1.676-4.372A6.136,6.136,0,0,0,320,188.373a5.482,5.482,0,0,0-4.009-1.774,5.218,5.218,0,0,0-3.958,1.774,6.136,6.136,0,0,0-1.677,4.324,6.343,6.343,0,0,0,1.677,4.372" transform="translate(33.401 19.958)" fill="#fff"/>
            <path id="Trazado_989132" data-name="Trazado 989132" d="M333.851,200.956a7.009,7.009,0,0,1-7.02-7.021v-8.647a1.316,1.316,0,0,1,1.336-1.336,1.353,1.353,0,0,1,1.361,1.336v8.647a4.323,4.323,0,1,0,8.646,0v-8.647a1.337,1.337,0,0,1,1.361-1.336,1.317,1.317,0,0,1,1.336,1.336v8.647a7.025,7.025,0,0,1-7.021,7.021" transform="translate(35.502 19.982)" fill="#fff"/>
            <path id="Trazado_989133" data-name="Trazado 989133" d="M343.7,185.288a1.316,1.316,0,0,1,1.336-1.336,1.352,1.352,0,0,1,1.36,1.336V199.62a1.353,1.353,0,0,1-1.36,1.336,1.317,1.317,0,0,1-1.336-1.336Z" transform="translate(37.334 19.982)" fill="#fff"/>
            <path id="Trazado_989134" data-name="Trazado 989134" d="M361.507,198.939a1.341,1.341,0,0,1-.849,1.7,2.137,2.137,0,0,1-.535.073H360.1a1.768,1.768,0,0,1-.948-.267,2.388,2.388,0,0,1-.777-.85,6.538,6.538,0,0,1-.511-2.916,2.045,2.045,0,0,0-.29-1.044,2.246,2.246,0,0,0-.729-.7,4.617,4.617,0,0,0-1.359-.583h-2.867v5.272a1.354,1.354,0,0,1-1.361,1.336,1.333,1.333,0,0,1-1.336-1.336V185.288a1.317,1.317,0,0,1,1.336-1.336h4.349a5.194,5.194,0,0,1,3.3,9.206,3.772,3.772,0,0,1,.85.9,4.6,4.6,0,0,1,.8,2.623,6.1,6.1,0,0,0,.1,1.433,1.31,1.31,0,0,1,.849.826m-3.4-9.765a2.5,2.5,0,0,0-2.5-2.527h-2.988v5h2.988a2.494,2.494,0,0,0,2.5-2.478" transform="translate(38.01 19.982)" fill="#fff"/>
            <path id="Trazado_989135" data-name="Trazado 989135" d="M363.92,199.62V185.288a1.317,1.317,0,0,1,1.336-1.336H373.2a1.348,1.348,0,0,1,1.336,1.336,1.37,1.37,0,0,1-1.336,1.36h-6.583v4.446h5.66a1.348,1.348,0,0,1,0,2.7h-5.66v4.47H373.2a1.348,1.348,0,0,1,0,2.7h-7.871c-.048,0-.048-.024-.048-.024l-.024.024a1.332,1.332,0,0,1-1.336-1.336" transform="translate(39.531 19.982)" fill="#fff"/>
            <path id="Trazado_989136" data-name="Trazado 989136" d="M376.909,199.62V185.288a1.318,1.318,0,0,1,1.337-1.336h2.866a8.5,8.5,0,0,1,0,17h-2.866a1.333,1.333,0,0,1-1.337-1.336m2.7-1.36h1.505a5.806,5.806,0,0,0,0-11.612h-1.505Z" transform="translate(40.942 19.982)" fill="#fff"/>
            <path id="Trazado_989137" data-name="Trazado 989137" d="M414.063,105.946s2.818,2.084,3.157,4.437-.626,7.83-.845,8.47-2.807,4.04-12.238,8.245S374.5,138,367.859,140.3s-14.231,8.018-36.034,9.143-63.045-8.479-64.418-15.729,2.706-9.858,24.685-25.441Z" transform="translate(29.021 11.508)" fill="#ffc727"/>
            <g id="Grupo_1153230" data-name="Grupo 1153230" transform="translate(319.846 118.542)" opacity="0.2">
              <g id="Grupo_1153229" data-name="Grupo 1153229">
                <g id="Grupo_1153228" data-name="Grupo 1153228" clip-path="url(#clip-path-5)">
                  <path id="Trazado_989138" data-name="Trazado 989138" d="M411.342,106.927a6.035,6.035,0,0,1,1.963,1.993,7.3,7.3,0,0,1-.072,4.791,1.066,1.066,0,0,1-.377.5,21.211,21.211,0,0,1-2.43,1.415c-11.843,5.818-24.314,10.684-37.238,13.407a111.747,111.747,0,0,1-16.858,1.776,204.953,204.953,0,0,1-22.646-.492l-.139-.011-.122.044-8.536,3.1.335-.017-9.08-2.28C307.36,129,297.607,126.6,288.854,124.5l.2.252q-.143-3.963-.249-7.929c-.019-2.318-.21-5.641-.053-7.929-.257,2.633-.2,5.288-.238,7.932q-.018,4.066.012,8.134c6.091,1.657,12.2,3.238,18.3,4.86,4.621,1.222,13.662,3.6,18.288,4.769l.166-.059,8.555-3.046a164.3,164.3,0,0,0,22.549.562,112.793,112.793,0,0,0,17.03-1.9,110.283,110.283,0,0,0,16.419-4.856,159.263,159.263,0,0,0,20.785-9.312,21.183,21.183,0,0,0,2.436-1.52,1.381,1.381,0,0,0,.446-.627,7.293,7.293,0,0,0-.088-4.959,6.094,6.094,0,0,0-2.064-1.941" transform="translate(-288.507 -106.927)"/>
                </g>
              </g>
            </g>
            <g id="Grupo_1153233" data-name="Grupo 1153233" transform="translate(322.929 137.477)" opacity="0.2">
              <g id="Grupo_1153232" data-name="Grupo 1153232">
                <g id="Grupo_1153231" data-name="Grupo 1153231" clip-path="url(#clip-path-6)">
                  <path id="Trazado_989139" data-name="Trazado 989139" d="M386.51,124.007c-.6.861-1.234,1.7-1.907,2.5a10.612,10.612,0,0,1-3.457,3.042c-2.4,1.063-5.034,1.5-7.443,2.545-10.169,4.082-20.4,8.291-31.054,10.9-16.989,3.483-34.446.746-51.361-2.05,16.83,3.844,34.494,6.825,51.646,3.295,10.728-2.65,20.977-7.009,31.06-11.468,2.6-1.243,5.545-1.746,8.032-3.257a20.356,20.356,0,0,0,4.483-5.5" transform="translate(-291.288 -124.007)"/>
                </g>
              </g>
            </g>
            <g id="Grupo_1153236" data-name="Grupo 1153236" transform="translate(298.043 123.111)" opacity="0.5">
              <g id="Grupo_1153235" data-name="Grupo 1153235">
                <g id="Grupo_1153234" data-name="Grupo 1153234" clip-path="url(#clip-path-7)">
                  <path id="Trazado_989140" data-name="Trazado 989140" d="M289.673,141.392c-4.216-1.355-8.426-2.768-12.523-4.439a27.671,27.671,0,0,1-5.8-3,2.842,2.842,0,0,1-.941-1.086,7.781,7.781,0,0,1-.586-4.619,4.2,4.2,0,0,1,1.55-2.548c.839-.706,1.711-1.4,2.572-2.091,5.034-4.027,10.587-8.454,15.516-12.559q-8.143,5.784-16.021,11.922c-1.717,1.443-4.051,2.675-4.454,5.093a8.571,8.571,0,0,0,.664,5.124,3.544,3.544,0,0,0,1.2,1.4,26.443,26.443,0,0,0,6.049,2.982,107.061,107.061,0,0,0,12.768,3.82" transform="translate(-268.84 -111.048)" fill="#fff"/>
                </g>
              </g>
            </g>
            <path id="Trazado_989141" data-name="Trazado 989141" d="M409.867,121.784s-18.3,9.785-36.945,13.484-38.946,1.445-38.946,1.445l-8.761,3.377L289,130.866s-1.967-31.353,6.8-47.113c3.944-7.1,5.1-7.953,5.1-7.953,1.795-5.209,7.071-7.677,7.071-7.677,3.395-3.268,9.86-6.855,9.86-6.855a29.143,29.143,0,0,1,9.1-7.753c3.9-2.1,38.083-3.349,46.233-1.092,3.7,1.023,7.233,4.611,7.233,4.611A19.8,19.8,0,0,1,391,64.872l3.957,4.492a27.51,27.51,0,0,1,7.931,6.515c3.388,4.2,3.648,7.623,3.648,7.623s5.444,8.776,5.757,18.276-2.423,20.005-2.423,20.005" transform="translate(31.372 5.564)" fill="#ffc727"/>
            <g id="Grupo_1153239" data-name="Grupo 1153239" transform="translate(356.462 57.589)" opacity="0.5">
              <g id="Grupo_1153238" data-name="Grupo 1153238">
                <g id="Grupo_1153237" data-name="Grupo 1153237" clip-path="url(#clip-path-8)">
                  <path id="Trazado_989142" data-name="Trazado 989142" d="M321.659,140.01l8.763-3.377c-1.2-31.04,7.849-58.541,23.968-70.938,15.317-11.777,22.15-8.875,22.441-8.745-.213-.215-3.641-3.611-7.224-4.605a19.064,19.064,0,0,0-1.908-.4h0C316.808,62.3,321.659,140.01,321.659,140.01" transform="translate(-321.535 -51.946)" fill="#fff"/>
                </g>
              </g>
            </g>
            <g id="Grupo_1153242" data-name="Grupo 1153242" transform="translate(326.848 62.022)" opacity="0.2">
              <g id="Grupo_1153241" data-name="Grupo 1153241">
                <g id="Grupo_1153240" data-name="Grupo 1153240" clip-path="url(#clip-path-9)">
                  <path id="Trazado_989143" data-name="Trazado 989143" d="M399.491,81.746c-2.919-3.238-5.766-5.074-10.24-5.29-8.152-.425-15.317,5.182-19.946,11.431a36.966,36.966,0,0,0-5.372,10.61l.818-.394-10.141-3.885.4.71c2.5-11.231,9.78-22.409,21.228-25.925a33.307,33.307,0,0,1,11.675-1.395,31.937,31.937,0,0,0-11.845.823C364.113,71.606,356.335,83.1,353.757,94.7l-.109.517.508.194L364.3,99.269l.617.235a37.635,37.635,0,0,1,5.306-10.952c4.408-6.093,11.133-11.613,19-11.509,4.38,0,7.207,1.736,10.259,4.7" transform="translate(-288.433 -54.701)"/>
                  <path id="Trazado_989144" data-name="Trazado 989144" d="M317.032,60.284c-12.147,11.633-18.592,29.778-20.318,46.236a97,97,0,0,0-.5,12.826c.038,1.425.123,2.848.2,4.268.425-22.416,5.7-45.975,20.617-63.33" transform="translate(-294.675 -55.474)"/>
                  <path id="Trazado_989145" data-name="Trazado 989145" d="M307.321,66.467c-4.093,5.447-6.725,11.892-8.627,18.4-.5,1.8-.964,3.745-1.339,5.564l.1-.135L294.974,91.8l.3.193c.205-1.521.511-3.044.851-4.551a91.224,91.224,0,0,1,4.126-13.3,71.3,71.3,0,0,0-5.427,18.211c.231-.134,2.627-1.583,2.916-1.753.249-1.088.479-2.18.738-3.264.356-1.458.858-3.27,1.3-4.7a61.384,61.384,0,0,1,7.546-16.168" transform="translate(-294.823 -54.802)"/>
                  <path id="Trazado_989146" data-name="Trazado 989146" d="M375.914,56.516a9.321,9.321,0,0,0-5.214-.385,25.071,25.071,0,0,0-5.106,1.43c-9.947,3.927-18.115,11.475-23.721,20.493-7.481,11.992-11.176,26.114-11.892,40.138,2.164-17.184,7.57-34.62,19.215-47.774a49.189,49.189,0,0,1,12.022-9.86c3.954-2.289,10.092-5.491,14.7-4.042" transform="translate(-291.004 -55.945)"/>
                </g>
              </g>
            </g>
            <g id="Grupo_1153245" data-name="Grupo 1153245" transform="translate(426.498 117.779)" opacity="0.2">
              <g id="Grupo_1153244" data-name="Grupo 1153244">
                <g id="Grupo_1153243" data-name="Grupo 1153243" clip-path="url(#clip-path-10)">
                  <path id="Trazado_989147" data-name="Trazado 989147" d="M395.63,116.844c.478-3.517.692-7.062.849-10.605a118.922,118.922,0,0,0-11.107,5.036c3.681-1.127,7.265-2.534,10.817-4.012l-.583-.408c-.111,3.328-.16,6.662.024,9.989" transform="translate(-384.637 -106.239)"/>
                  <path id="Trazado_989148" data-name="Trazado 989148" d="M384.932,121.283a31.453,31.453,0,0,0,.511-10.5,31.454,31.454,0,0,0-.511,10.5" transform="translate(-384.709 -105.746)" fill="#fff"/>
                </g>
              </g>
            </g>
            <g id="Grupo_1153248" data-name="Grupo 1153248" transform="translate(392.078 129.804)" opacity="0.2">
              <g id="Grupo_1153247" data-name="Grupo 1153247">
                <g id="Grupo_1153246" data-name="Grupo 1153246" clip-path="url(#clip-path-11)">
                  <path id="Trazado_989149" data-name="Trazado 989149" d="M366.34,127.584c.481-3.486.684-6.989.848-10.5-4.348.93-8.682,1.955-12.933,3.268,4.228-.561,8.41-1.41,12.573-2.328l-.513-.431c-.113,3.33-.163,6.657.026,9.989" transform="translate(-353.598 -117.086)"/>
                  <path id="Trazado_989150" data-name="Trazado 989150" d="M353.93,129.433a25.276,25.276,0,0,0,.389-9.4,25.207,25.207,0,0,0-.389,9.4" transform="translate(-353.662 -116.766)" fill="#fff"/>
                </g>
              </g>
            </g>
            <g id="Grupo_1153251" data-name="Grupo 1153251" transform="translate(426.181 86.547)" opacity="0.3">
              <g id="Grupo_1153250" data-name="Grupo 1153250">
                <g id="Grupo_1153249" data-name="Grupo 1153249" clip-path="url(#clip-path-12)">
                  <path id="Trazado_989151" data-name="Trazado 989151" d="M398.793,106.924s3.395-17.518-7.433-28.858l-6.937,5.508,5.98,5.9,3.714-.326-1.431,3.478,1.5,1.725.938,2.352-.073,1.076s3.034,2.839,3.739,9.142" transform="translate(-384.423 -78.067)" fill="#fff"/>
                </g>
              </g>
            </g>
            <g id="Grupo_1153254" data-name="Grupo 1153254" transform="translate(342.775 58.61)" opacity="0.3">
              <g id="Grupo_1153253" data-name="Grupo 1153253">
                <g id="Grupo_1153252" data-name="Grupo 1153252" clip-path="url(#clip-path-13)">
                  <path id="Trazado_989152" data-name="Trazado 989152" d="M350.141,52.868s-18.868-.134-23.736,1.917c-3.45,1.452-8.842,5.8-17.216,18.34,0,0,4.765-2.727,5.635-3.756s2.7-4.035,3.916-4.631,6.237-3.493,6.237-3.493,2.355-2.736,3.48-3.16,6.391-1.6,7.689-2.2,13.994-3.022,13.994-3.022" transform="translate(-309.189 -52.867)" fill="#fff"/>
                </g>
              </g>
            </g>
            <g id="Grupo_1153257" data-name="Grupo 1153257" transform="translate(345.608 107.165)" opacity="0.3">
              <g id="Grupo_1153256" data-name="Grupo 1153256">
                <g id="Grupo_1153255" data-name="Grupo 1153255" clip-path="url(#clip-path-14)">
                  <path id="Trazado_989153" data-name="Trazado 989153" d="M322.832,96.665s-4.6,22.2-2.837,35.029L311.745,130s3-1.186,3.868-3.039.636-6.193,1.646-9.5,5.573-20.8,5.573-20.8" transform="translate(-311.745 -96.665)" fill="#fff"/>
                </g>
              </g>
            </g>
          </g>
        </g>
        <g id="Grupo_1153273" data-name="Grupo 1153273">
          <g id="Grupo_1153272" data-name="Grupo 1153272" clip-path="url(#clip-path-4)">
            <path id="Trazado_989154" data-name="Trazado 989154" d="M223.734,449.744H125.67c-4.258-16.738-10.826-42.5-16.543-64.944a.065.065,0,0,0-.012-.045c-.343-1.378-.7-2.744-1.033-4.088-.218-.838-.425-1.664-.631-2.48-5.5-21.572-9.839-38.631-9.942-39.021-.058-.241-.115-.425-.149-.574-.059-.206-.081-.322-.081-.322h94.678Z" transform="translate(10.567 36.745)" fill="#37474f"/>
            <path id="Trazado_989155" data-name="Trazado 989155" d="M194.271,338.229v.045c0,.058-.011.173-.011.322q0,1.671-.035,3.341c-.045,2.836-.172,5.671-.355,8.506a263.274,263.274,0,0,1-4.34,33.018c-3.926,20.469-9.162,26.737-10.986,32.224-.4,1.205-.643,1.882-.666,1.951-.011.011-3.283,1.631-7.554,3.731-.2.1-.4.207-.608.31-4.913,2.435-10.988,5.453-14.948,7.428-2.1,1.045-3.616,1.8-4.041,2.032a.5.5,0,0,0-.115.058c-.023.011-.172,13.628-.379,18.553H47.972C50.016,432.4,50.3,430.117,50.3,430.117c-.6-3.345-3.279-11.971-2.324-21.987,2.1-22.023,15.612-66.244,16.834-68.879.287-.643.46-.977.46-.977h.493l25.372-.011,61.281-.023h24.5l14.052-.011Z" transform="translate(5.189 36.74)" fill="#37474f"/>
            <path id="Trazado_989156" data-name="Trazado 989156" d="M140.749,421.9v.229c.034,2.778-.08,15.832-.115,18.61H139.6c.229-2.789.412-15.867.746-18.656.022-.253.045-.494.08-.746a.155.155,0,0,1,.31.011c0,.184.011.367.011.551" transform="translate(15.164 45.752)" fill="#263238"/>
            <path id="Trazado_989157" data-name="Trazado 989157" d="M75.361,386.815c6.178.43,12.277,1.228,18.475.491A32.177,32.177,0,0,0,109.924,381c10.189-7.9,14.656-20.833,17.414-32.964a.219.219,0,0,1,.432.063c-1.152,10.52-3.42,21.4-10.209,29.866a32.8,32.8,0,0,1-10.836,8.931A31.856,31.856,0,0,1,92.4,389.844a69.228,69.228,0,0,1-17.146-2.316.36.36,0,0,1,.1-.713" transform="translate(8.143 37.786)" fill="#263238"/>
            <path id="Trazado_989158" data-name="Trazado 989158" d="M195.189,385.432c-1.718-.2-3.408-.053-5.151-1.32-1.64-1.193-3.233-3.552-4.6-7.307-2.976-8.2-4.436-20.449-5.407-31.8-.021-.254-.133-.245-.12.017.5,9.727,1.308,19.888,3.344,28.279a42.348,42.348,0,0,0,3.173,9.2c1.268,2.44,2.682,3.609,4.048,4.066a5.953,5.953,0,0,0,4.749-.473c.122-.063.09-.646-.041-.662" transform="translate(19.543 37.456)" fill="#263238"/>
            <path id="Trazado_989159" data-name="Trazado 989159" d="M162.1,412.307c-11.559,3.978-22.715,9.626-33.382,15.546a.377.377,0,0,0,.31.687c11.246-4.829,22.712-9.45,33.678-14.892a.737.737,0,0,0-.606-1.341" transform="translate(13.96 44.781)" fill="#263238"/>
            <path id="Trazado_989160" data-name="Trazado 989160" d="M164.608,347.995c-.029-.358-.711-.435-.71-.048a319.148,319.148,0,0,1-2.053,34.62c-.549,5.339-5.35,34.849-15.381,32.743-1.68-.351-2.531-1.874-2.783-4.207-.3-2.806.859-6.256,1.377-9.05,1.144-6.178,2.07-12.376,2.675-18.614a155.968,155.968,0,0,0-.239-34.883.326.326,0,0,0-.647.037c-.063,16.114-.6,32.2-3.292,48.171-1.294,7.675-5.542,19.241,3.158,20.383,8.862,1.163,14.691-18.206,15.8-23.5,3.092-14.778,3.288-30.718,2.1-45.651" transform="translate(15.357 37.768)" fill="#263238"/>
            <path id="Trazado_989161" data-name="Trazado 989161" d="M146.516,409.381a54.183,54.183,0,0,0-2.26,6.635,15.064,15.064,0,0,0-.939,5.454c.039.353.508.387.7.149,1.177-1.494,1.676-3.538,2.334-5.308.764-2.051,1.572-4.09,2.277-6.162a1.122,1.122,0,0,0-2.107-.768" transform="translate(15.564 44.393)" fill="#263238"/>
            <path id="Trazado_989162" data-name="Trazado 989162" d="M134.408,223.275c8.785,14.522,67.675,79.529,108.921,83.12,6.96.606,28.8,4.625,38.8-14.268,13.5-25.509,18.374-71.738,13.077-95.406-4.382-19.584-56.664,2.049-58.442,13.725-1.346,8.832-2.127,37.373-3.931,37.14-11.748-1.519-49.313-26.619-85.362-40.5-16.706-6.436-19.834,5.008-13.067,16.194" transform="translate(14.238 20.512)" fill="#d3766a"/>
            <path id="Trazado_989163" data-name="Trazado 989163" d="M221.237,254.741c.018-1.779.131-3.562.323-5.33a56.744,56.744,0,0,1,2.278-10.067c.045-.151.3-.092.273.066-.665,3.33-.99,6.754-1.431,10.121q-.328,2.506-.574,5.021c-.169,1.71-.4,3.442-.473,5.157,0,.1-.181.112-.186.006-.083-1.666-.225-3.3-.208-4.973" transform="translate(24.032 25.989)" fill="#263238"/>
            <path id="Trazado_989164" data-name="Trazado 989164" d="M292.605,220.153c-7.757,9.985-31.61,24.2-38.683,25.42s-25.392-24.735-27.383-31.825c-8.664-30.865,28.446-52.184,40.995-55.19s33.109,51.25,25.072,61.6" transform="translate(24.467 17.21)" fill="#d3766a"/>
            <path id="Trazado_989165" data-name="Trazado 989165" d="M227.5,196.362s4.742-15.749,4.046-30.223c-.583-12.17-2.826-30.176,3.706-30.734,13.412-1.149,18.987,43.756,18.987,43.756s-.721,20.207-13.908,22.522c-8.27,1.452-12.832-5.32-12.832-5.32" transform="translate(24.712 14.706)" fill="#d3766a"/>
            <path id="Trazado_989166" data-name="Trazado 989166" d="M246.992,168.122c-.778,6.654,7.509,3.763,7.509,3.763s-10.927,7.036-9.077,14.208c1.8,6.907,11.69,3.061,12.4,2.795-.574.378-10.447,7.105-7.846,14.119,2.709,7.288,11.973,1.724,12.571,1.363-.43.527-6.011,7.585-2.823,12.465,5.482,8.382,20.247-9.275,28.348-9.656,0,0,2.213,13.655,2.36,14.037,0,0,14.392-16.512,13.268-27.41a7,7,0,0,0-6.064-6.326s5.228-4.811,3.356-10.4c-.97-2.865-6.416-3.865-6.416-3.865s4.025-4.027,2.049-8.892c-1.565-3.889-6.785-4.286-6.785-4.286s2.071-5.661-.818-9.112c-5.811-6.978-40.353,2.948-42.034,17.195" transform="translate(26.636 16.146)" fill="#d3766a"/>
            <path id="Trazado_989167" data-name="Trazado 989167" d="M288.177,158.769a.094.094,0,0,0-.017-.187c-12.156.491-25.361,4.757-34.974,12.331-.316.248-.05.869.35.662,11.4-5.912,21.992-10.249,34.64-12.806" transform="translate(27.487 17.226)" fill="#263238"/>
            <path id="Trazado_989168" data-name="Trazado 989168" d="M293.564,170.726c.137-.027.094-.256-.057-.248-12.523.574-27.264,5.789-37.317,15.823-.345.345-.308,1,.119.633,7.191-6.165,25.856-13.965,37.255-16.208" transform="translate(27.803 18.518)" fill="#263238"/>
            <path id="Trazado_989169" data-name="Trazado 989169" d="M260.473,201.534c10.012-9.249,21.981-14.359,35.029-17.84.17-.045.089-.282-.064-.282-6.847-.037-14.932,3.049-21.022,5.982a35.936,35.936,0,0,0-14.266,11.789c-.145.205.11.548.323.35" transform="translate(28.254 19.923)" fill="#263238"/>
            <path id="Trazado_989170" data-name="Trazado 989170" d="M254.43,169.55c-.378.3.474.523.106.834-1.552,1.3-10.209,9.967-8.175,13.832,1.639,3.094,6.932,3.04,8.957,2.222l5.093-2.059-4.069,3.705a22.485,22.485,0,0,0-4.569,5.668c-1.149,2.088-1.738,4.473-.984,6.5a4.593,4.593,0,0,0,4.739,3.307,13.893,13.893,0,0,0,6.551-2.355l5.5-3.481-4.04,5.066a21.147,21.147,0,0,0-2.8,4.6,8.7,8.7,0,0,0-.827,4.953,4.137,4.137,0,0,0,2.895,3.26,9.15,9.15,0,0,0,5.068-.723,71.852,71.852,0,0,0,9.963-5.295c1.642-.966,3.29-1.938,4.986-2.829a13.577,13.577,0,0,1,5.4-1.851,14.665,14.665,0,0,0-5.142,2.308c-1.605,1.009-3.164,2.1-4.727,3.184a61.311,61.311,0,0,1-9.9,5.941,10.692,10.692,0,0,1-6.049,1.059,5.87,5.87,0,0,1-4.456-4.646,10.643,10.643,0,0,1,.86-6.172,23.126,23.126,0,0,1,3.044-5.174l1.459,1.584a15.951,15.951,0,0,1-7.71,2.858,6.654,6.654,0,0,1-4.331-1.242,7.526,7.526,0,0,1-2.569-3.634c-1-2.9-.074-5.919,1.245-8.228a24.391,24.391,0,0,1,5.122-6.157l1.024,1.647c-2.61.952-8.521,1.658-11.665-2.821-3.224-6.451,7.863-14.531,10-15.864" transform="translate(26.488 18.417)" fill="#263238"/>
            <path id="Trazado_989171" data-name="Trazado 989171" d="M254.432,170.547a13.455,13.455,0,0,1-4.111-.049,3.113,3.113,0,0,1-2.47-1.96,6.34,6.34,0,0,1,.215-3.591c.395-1.29.875-2.627,1.426-3.988a10.68,10.68,0,0,0-2.786,3.446,6.273,6.273,0,0,0-.624,4.755,4.459,4.459,0,0,0,1.652,2.093,4.63,4.63,0,0,0,2.43.7,7.2,7.2,0,0,0,4.268-1.4" transform="translate(26.705 17.484)" fill="#263238"/>
            <path id="Trazado_989172" data-name="Trazado 989172" d="M197.686,286.348l26.654-48.772s-39.58-17.4-69.771-31.128c-26.565-12.076-30.393,5.487-16.687,22.308,20.169,24.752,59.8,57.592,59.8,57.592" transform="translate(14.136 21.991)" fill="#ebebeb"/>
            <path id="Trazado_989173" data-name="Trazado 989173" d="M193.368,288.967l31.05-53.819-2.407.2-.756-3.862-1.826.152-4.368-2.557-29.268,54.86,2.533-.211,1.284,3.228,2.28-.48Z" transform="translate(20.182 24.884)" fill="#dbdbdb"/>
            <path id="Trazado_989174" data-name="Trazado 989174" d="M195.573,353.263s-3.929-16.042-9.1-24.5l3.288-21.564s13.741-17.265,4.728-36.178c-4.552-9.58-31.339-53.683-47.885-65.412-15.521-11-33.2-3.5-40.088,8.417-15.387,26.609-25.1,59.622-33.066,115.124,0,0-8.3,15.543-9.458,24.11Z" transform="translate(6.952 21.752)" fill="#ebebeb"/>
            <path id="Trazado_989175" data-name="Trazado 989175" d="M203.393,366.351H59.2c1.221-8.993,24.952-118.585,46.854-152.4,2.8-4.324,7.621-9.394,12.443-12.01,3.428,4.954,8.253,16.331,10.989,19.932,3.612,4.762,25.91,20.612,25.91,20.612s1.484-13.478.549-20.609c-.254-1.912-5.788-13.721-7.453-15.427,19.454,15.427,43.834,57.826,48.128,66.849,9.461,19.858-4.964,37.976-4.964,37.976Z" transform="translate(6.431 21.936)" fill="#ffc727"/>
            <path id="Trazado_989176" data-name="Trazado 989176" d="M198.706,332.716H62.926c.448-1.953.916-4.029,1.413-6.2H197.383Z" transform="translate(6.835 35.468)" fill="#ebebeb"/>
            <path id="Trazado_989177" data-name="Trazado 989177" d="M201.222,342.405H60.824q.579-2.777,1.333-6.185H199.9Z" transform="translate(6.607 36.522)" fill="#ebebeb"/>
            <path id="Trazado_989178" data-name="Trazado 989178" d="M164.311,291.157a143.4,143.4,0,0,0-20.909,3.626c-3.4.9-6.74,1.959-10.073,3.09-1.662.563-3.331,1.07-5.012,1.568a22.586,22.586,0,0,1-5.386,1.064.127.127,0,0,0,.006.253,38.51,38.51,0,0,0,5.2-.141,37.244,37.244,0,0,0,4.944-.979c3.46-.882,6.877-1.927,10.327-2.846,6.962-1.855,13.921-3.706,21-5.054.326-.063.239-.619-.093-.581" transform="translate(13.341 31.627)" fill="#263238"/>
            <path id="Trazado_989179" data-name="Trazado 989179" d="M179.451,296.725a154.965,154.965,0,0,0-17.5-.688c-2.925.061-5.821.29-8.729.6-1.389.146-2.774.318-4.156.507-1.522.207-3.018.62-4.541.8-.159.019-.157.267.006.253,1.442-.132,2.912-.024,4.361-.072s2.908-.105,4.362-.154c2.913-.1,5.825-.161,8.738-.285,5.829-.248,11.635-.437,17.47-.483.316,0,.288-.451-.012-.479" transform="translate(15.686 32.154)" fill="#263238"/>
            <path id="Trazado_989180" data-name="Trazado 989180" d="M145.969,238.511c2.872,5.381,5.562,10.856,8.2,16.357,3.825,8.386,7.936,16.613,10.248,25.625a27.6,27.6,0,0,1,.025,9.434,92.767,92.767,0,0,1-4.575,17.908c1.024,6.515,1.845,18.617,2.706,27,.808,9.173,1.547,18.351,2.143,27.542-1.357-9.108-2.574-18.236-3.719-27.372-1.044-9.287-2.473-18.636-3.16-27.912,2.609-8.325,5.757-17.439,4.571-26.216-2.1-8.737-5.978-17.155-9.325-25.528-2.313-5.634-4.734-11.226-7.118-16.839" transform="translate(15.856 25.908)" fill="#263238"/>
            <path id="Trazado_989181" data-name="Trazado 989181" d="M112.78,241.01c-9.256,13.639-48.748,61.1-49.48,66.489-.411,3.021,12.235,11.943,12.34,14.061.43,8.621-16.392,78.545-24.564,73.814-10.758-6.229-53.5-62.543-50.969-86.881s95.209-92.6,110.738-99.474c14.762-6.539,10.72,19.043,1.935,31.99" transform="translate(0 22.591)" fill="#d3766a"/>
            <path id="Trazado_989182" data-name="Trazado 989182" d="M80.32,398.061c6.29-5.673-4-9.837-4-9.837s16.252,2.427,20.475-5.93c4.049-8.065-8.555-12.659-9.453-13,.861.121,15.852,1.962,19.231-6.873,3.5-9.184-9.941-11.624-10.809-11.777.848-.142,12.037-2.2,13.08-9.491,1.782-12.539-30.743-9.4-38.759-15.8,0,0,.91-16.34,1.09-16.828,0,0-2.688,6.708-8.1,9.094-6.715,2.958-12.853,4.979-15.22,8.735a9.285,9.285,0,0,0,.484,11.068s-8.981.211-11.86,7.083c-1.469,3.531,2.874,9.022,2.874,9.022s-7.184.47-9.365,6.743c-1.756,5,2.874,9.729,2.874,9.729s-6.691,3.652-6.824,9.342c-.3,11.476,40.8,30.854,54.283,18.717" transform="translate(2.828 33.514)" fill="#d3766a"/>
            <path id="Trazado_989183" data-name="Trazado 989183" d="M32.767,364.757a.119.119,0,0,0-.141.192C44.587,374.62,60.693,381.58,76.145,382.4c.507.028.77-.785.218-.92-15.765-3.892-29.446-8.6-43.6-16.724" transform="translate(3.539 39.62)" fill="#263238"/>
            <path id="Trazado_989184" data-name="Trazado 989184" d="M37.849,349.111c-.153-.09-.3.165-.154.283,12.38,9.9,30.737,17.239,48.659,16.088.614-.04,1.126-.692.416-.7-11.976-.137-36.219-8.295-48.92-15.67" transform="translate(4.088 37.92)" fill="#263238"/>
            <path id="Trazado_989185" data-name="Trazado 989185" d="M94.781,347.259c-17.228.438-32.863-4.688-48.165-12.264-.2-.1-.317.193-.174.321,6.475,5.745,16.734,9.556,24.965,11.847a45.431,45.431,0,0,0,23.39.7c.308-.073.353-.612-.016-.6" transform="translate(5.038 36.387)" fill="#263238"/>
            <path id="Trazado_989186" data-name="Trazado 989186" d="M32.205,369.872c-2.945-2.794-5.2-6.514-4.055-10.7a8.179,8.179,0,0,1,3.4-4.609c2.031-1.359,5.078-1.4,6.534-1.535-2.691-3.357-4.141-8.009-1.859-11.966a8.087,8.087,0,0,1,4.752-3.463,26.425,26.425,0,0,1,6.951-.69A9.488,9.488,0,0,1,44.767,329c.31-3.41,2.474-5.947,5.288-7.712,3.237-2.03,7.016-2.868,10.593-4.084a24.76,24.76,0,0,0,5.372-2.317,10.851,10.851,0,0,0,4.069-4.807c.173-.349.2-.008.064.284a13.489,13.489,0,0,1-2.285,3.657,17.274,17.274,0,0,1-3.433,2.989c-3.072,2.045-6.676,2.942-9.984,4.509a14.725,14.725,0,0,0-7.105,6.265,8.778,8.778,0,0,0,.988,9.183c.118.121.058.349-.2.364a25.332,25.332,0,0,0-6.061,1.568,8.607,8.607,0,0,0-3.938,3.287c-1.859,3.461-1.132,7.919,1.021,11.2.076.118-3.65.606-6.237,2.579a8.143,8.143,0,0,0-2.583,3.82,9.711,9.711,0,0,0,2.417,9.916.21.21,0,0,1,.055.131l0,.007a.222.222,0,0,1,0,.085.183.183,0,0,1-.062.129v0c-.022.022-2.121,1.254-2.232,1.277-.065.013-.069-.074-.028-.123a16.238,16.238,0,0,1,1.715-1.327" transform="translate(3.025 33.666)" fill="#263238"/>
            <path id="Trazado_989187" data-name="Trazado 989187" d="M111.9,207.516c14.959.437,8.605,69.851-22.271,70.387-15.6.272,1.488-70.993,22.271-70.387" transform="translate(9.078 22.541)" fill="#ebebeb"/>
            <path id="Trazado_989188" data-name="Trazado 989188" d="M29.067,262.717l36.3,42.087S98.88,263.948,115.452,233.7c14.019-25.591,2.872-33.341-15.486-21.774-24.131,15.2-70.9,50.8-70.9,50.8" transform="translate(3.157 22.451)" fill="#ebebeb"/>
            <path id="Trazado_989189" data-name="Trazado 989189" d="M84.214,269.159c6.819-10.177,15.085-21.281,22.035-31.373q.7-1.069,1.426-2.126c-6.32,12.111-14.684,23.075-23.461,33.5" transform="translate(9.148 25.599)" fill="#263238"/>
            <path id="Trazado_989190" data-name="Trazado 989190" d="M106.127,238.983a21.749,21.749,0,0,1-6.974,7.137c2.324-2.42,4.674-4.694,6.974-7.137" transform="translate(10.77 25.96)" fill="#263238"/>
            <path id="Trazado_989191" data-name="Trazado 989191" d="M23.865,257.462l39.481,47.977L64,303.116l3.881.648.5-1.763,3.928-3.192L31.231,252.137l-.694,2.446-3.473.068-.351,2.3Z" transform="translate(2.592 27.388)" fill="#dbdbdb"/>
            <path id="Trazado_989192" data-name="Trazado 989192" d="M115.175,215.116c.93,2.643,16.379,17.357,28.6,11.923,5.672-2.521,1.039-17.727,1.039-17.727l2.807-25.066L114.794,168.1s0,45.889.381,47.013" transform="translate(12.469 18.26)" fill="#d3766a"/>
            <path id="Trazado_989193" data-name="Trazado 989193" d="M147.618,184.244,144.9,208.575a50.023,50.023,0,0,1-30.079-23.215c-.02-9.339-.023-17.257-.023-17.257Z" transform="translate(12.47 18.26)" fill="#263238"/>
            <path id="Trazado_989194" data-name="Trazado 989194" d="M116.938,174.151a10.282,10.282,0,0,0-2.509,3.1c-2.808,5.419-1.255,11.759,1.156,16.97,2.6,5.565,6.661,10.92,7.308,17.177a10.19,10.19,0,0,1-1.525,7.056c-1.641,2.288-4.342,3.1-7.016,3.372-2.813.306-6.219.044-8.461,2.119-1.867,1.708-2.286,4.493-1.979,6.9.8,6.245,6.657,10.444,9.682,15.622a31.9,31.9,0,0,1,4.288,18.364,31,31,0,0,1-6.341,16.5,30.589,30.589,0,0,1-6.22,6.144c-2.643,1.913-5.654,3.224-8.378,5.021-2.521,1.674-5.038,4.053-5.5,7.194-.361,2.429,3.222,10.739,12.867,16.184.691.39-.06,1.61-.9,1.468a39.155,39.155,0,0,1-4.795-1.044A42.685,42.685,0,0,1,70.1,289.881a44.46,44.46,0,0,1-2.073-21.389c.584-3.98,1.5-7.971,1.41-12.019a22.318,22.318,0,0,0-2.928-10.121c-3.268-5.985-7.929-11.114-10.152-17.663a37.4,37.4,0,0,1-1.244-18.231A44.262,44.262,0,0,1,76.25,180.288c10.848-6.461,41.246-6.625,40.688-6.137" transform="translate(5.923 18.899)" fill="#263238"/>
            <path id="Trazado_989195" data-name="Trazado 989195" d="M112.458,174.392a17.339,17.339,0,0,0-4.216,6.63,14.359,14.359,0,0,0-.181,7.1c1.1,5.267,4.229,9.6,7.182,13.969,2.776,4.11,5.5,8.6,5.412,13.73a11.733,11.733,0,0,1-1.759,6.26,9.111,9.111,0,0,1-5.908,3.708c-4.345.948-10.126.758-12.526,5.32-2.318,4.406.794,9.567,3.014,13.319,5.419,9.153,13.8,20.211,9.09,31.416-2.385,5.67-7.213,10.534-11.932,14.331-3.406,2.741-7.74,6.181-7.783,10.968,0,.177.269.144.273-.03.119-5.063,5.065-7.756,8.664-10.412a41.68,41.68,0,0,0,10.918-11.5,20.312,20.312,0,0,0,2.3-15.19c-1.168-5.359-3.831-10.146-6.708-14.759-1.476-2.365-3-4.7-4.4-7.105a17.278,17.278,0,0,1-2.713-7.062,5.917,5.917,0,0,1,3.63-6.032c2.388-1.112,5.024-1.229,7.574-1.717a11.975,11.975,0,0,0,6.2-2.809,10.928,10.928,0,0,0,2.855-4.785,17.17,17.17,0,0,0-1.339-12.357c-2.609-5.426-6.94-9.821-9.451-15.295a17.24,17.24,0,0,1-1.813-9.015c.375-3.255,2.243-5.723,4.132-8.275a.329.329,0,0,0-.513-.412" transform="translate(10.086 18.931)" fill="#263238"/>
            <path id="Trazado_989196" data-name="Trazado 989196" d="M70.812,179.346c-11.194,6.41-17.333,19.166-17.207,31.816a44.592,44.592,0,0,0,5.349,20.226c3.062,5.838,6.993,11.381,8.749,17.811,1.945,7.115-.358,14.027-1.58,21.036a39.759,39.759,0,0,0,.715,17.03A41.911,41.911,0,0,0,90.21,314.889a.138.138,0,0,0,.113-.251c-10.116-4.65-17.635-13.988-21.053-24.482a39.818,39.818,0,0,1-1.848-16.062c.637-6.689,3.238-13.112,2.986-19.9-.238-6.361-3.348-12.105-6.472-17.482-3.412-5.873-6.742-11.688-8.04-18.445-2.408-12.543,1.512-26.09,11.384-34.492,11.012-9.37,26.045-10.139,39.8-9.187q2.759.19,5.517.412c.208.018.265-.3.053-.325-13.948-1.66-29.187-2.578-41.84,4.667" transform="translate(5.823 18.848)" fill="#263238"/>
            <path id="Trazado_989197" data-name="Trazado 989197" d="M112.807,167.492c-2.062-.711-5.212-.048-6.005,1.184s.372,12.561,2.666,14.219,5.946-2.075,5.946-2.075Z" transform="translate(11.574 18.162)" fill="#ffc727"/>
            <path id="Trazado_989198" data-name="Trazado 989198" d="M173.468,146.812c13.777,38.949-8,51.6-16.4,54.561-7.627,2.688-33.941,10.873-51.669-26.444s-3.974-56.035,13.145-63.107,41.143-3.96,54.921,34.99" transform="translate(10.55 11.821)" fill="#d3766a"/>
            <path id="Trazado_989199" data-name="Trazado 989199" d="M154.677,140.905a27.368,27.368,0,0,1-2.875.116,4.651,4.651,0,0,1-2.954-.441,1.48,1.48,0,0,1-.441-1.754,3.672,3.672,0,0,1,3.3-1.722,5.391,5.391,0,0,1,3.753,1.018,1.581,1.581,0,0,1-.783,2.783" transform="translate(16.107 14.891)" fill="#263238"/>
            <path id="Trazado_989200" data-name="Trazado 989200" d="M128.432,147.43a27.439,27.439,0,0,0,2.583-1.267,4.651,4.651,0,0,0,2.387-1.795,1.482,1.482,0,0,0-.447-1.753,3.672,3.672,0,0,0-3.722.058,5.4,5.4,0,0,0-2.816,2.682,1.582,1.582,0,0,0,2.014,2.075" transform="translate(13.716 15.439)" fill="#263238"/>
            <path id="Trazado_989201" data-name="Trazado 989201" d="M136.358,154.389c-.05-.1-.177.188-.143.3.847,2.707,1.362,5.951-.857,7.546-.069.05-.023.185.065.146,2.9-1.264,2.171-5.564.935-7.993" transform="translate(14.7 16.768)" fill="#263238"/>
            <path id="Trazado_989202" data-name="Trazado 989202" d="M133.585,152.43c-4.488.889-2.377,9.8,1.78,8.974,4.091-.812,1.981-9.72-1.78-8.974" transform="translate(14.238 16.553)" fill="#263238"/>
            <path id="Trazado_989203" data-name="Trazado 989203" d="M132.38,153.233c-.659.688-1.211,1.759-2.126,2.073-1.061.365-2.1-.374-3.022-1.1-.1-.077-.154.02-.129.137.379,1.714,1.45,3.309,3.34,3.13,1.725-.162,2.565-1.958,2.585-3.775,0-.336-.384-.741-.649-.463" transform="translate(13.806 16.635)" fill="#263238"/>
            <path id="Trazado_989204" data-name="Trazado 989204" d="M150.806,150.459c0-.11.246.081.268.2.544,2.784,1.637,5.882,4.348,6.227.084.011.108.152.012.16-3.151.269-4.559-3.858-4.629-6.583" transform="translate(16.381 16.34)" fill="#263238"/>
            <path id="Trazado_989205" data-name="Trazado 989205" d="M152.616,147.357c4.368-1.355,6.756,7.484,2.708,8.738-3.984,1.235-6.372-7.6-2.708-8.738" transform="translate(16.381 15.991)" fill="#263238"/>
            <path id="Trazado_989206" data-name="Trazado 989206" d="M154.277,147.586c.825.279,1.745.945,2.6.774.983-.2,1.44-1.347,1.81-2.43.039-.112.129-.058.163.059.5,1.677.419,3.588-1.115,4.35-1.4.7-2.88-.46-3.737-2.034-.16-.292-.048-.831.284-.718" transform="translate(16.72 15.845)" fill="#263238"/>
            <path id="Trazado_989207" data-name="Trazado 989207" d="M140.642,174.651c.766.562,1.565,1.371,2.6,1.313a7.477,7.477,0,0,0,2.918-1.136.1.1,0,0,1,.142.127,3.821,3.821,0,0,1-3.347,2.031,3.018,3.018,0,0,1-2.561-2.168c-.067-.157.14-.248.252-.166" transform="translate(15.248 18.968)" fill="#263238"/>
            <path id="Trazado_989208" data-name="Trazado 989208" d="M150.435,168.715a11.562,11.562,0,0,1-3.549,4.66,5.2,5.2,0,0,1-3,1c-2.364.009-2.959-2-3.015-3.846a12.436,12.436,0,0,1,.282-2.919,14.982,14.982,0,0,0,9.286,1.1" transform="translate(15.301 18.207)" fill="#263238"/>
            <path id="Trazado_989209" data-name="Trazado 989209" d="M146.886,173.1a5.2,5.2,0,0,1-3,1c-2.365.009-2.96-2-3.017-3.846,2.432-.389,5.2.593,6.019,2.841" transform="translate(15.302 18.485)" fill="#ff9cbd"/>
            <path id="Trazado_989210" data-name="Trazado 989210" d="M150.176,166.105s1.407,4.038,1.8,6c.038.183-.42.366-1.078.539-.029.016-.043.032-.074.017a9.5,9.5,0,0,1-9.744-1.66c-.174-.164.033-.416.236-.329a14.314,14.314,0,0,0,8.993.726c.029-.57-2.644-6.834-2.338-6.919,1.053-.307,3.308,0,4.652.113-2.691-8.5-6.723-16.49-9.275-24.988a.273.273,0,0,1,.487-.229c4.817,8.08,8.128,17.788,11.132,26.489.387,1.081-3.942.421-4.793.245" transform="translate(15.318 15.126)" fill="#263238"/>
            <path id="Trazado_989211" data-name="Trazado 989211" d="M110.214,177.131c8.213-2.767,2.48-21.782,2.48-21.782s13.09-7.114,15.795-18.457c0,0-1.2,9.452-5.571,14.6-.734.865,26.64-11.163,22.3-33.734,0,0,11.084,20.076,25.412,20.282.684.009-7.53-15.55-14.526-20.462s-9.661-6.026-9.661-6.026a42.571,42.571,0,0,0-32.171,1.923c-16.562,8.167-20.435,28.935-19.331,36.864,2.173,15.593,11.379,28.106,15.277,26.793" transform="translate(10.294 11.869)" fill="#263238"/>
            <path id="Trazado_989212" data-name="Trazado 989212" d="M121.137,151.052c15.213-5.674,24.309-19.516,20.494-35.717a.365.365,0,0,1,.685-.223c7.263,15.332-6.238,32.674-21.232,36.26-.36.086-.3-.187.053-.32" transform="translate(13.126 12.483)" fill="#263238"/>
            <path id="Trazado_989213" data-name="Trazado 989213" d="M108.489,172.119c6.974-7.007,5.582-15.848,3.451-24.594-.063-.257.363-.4.45-.146,2.839,8.335,4.63,19.094-3.372,25.346a.4.4,0,0,1-.529-.606" transform="translate(11.771 15.994)" fill="#263238"/>
            <path id="Trazado_989214" data-name="Trazado 989214" d="M139.444,113.953a.087.087,0,0,1,.163-.053c4.737,8.239,9.944,23.046,21.988,21.615a.249.249,0,0,1,.09.49c-11.439,2.4-20.479-12.514-22.241-22.052" transform="translate(15.147 12.367)" fill="#263238"/>
            <path id="Trazado_989215" data-name="Trazado 989215" d="M114.924,167.3s-11.962-10.223-16.821-5.643,6.393,20.976,13.685,21.729a6.986,6.986,0,0,0,8.121-5.983Z" transform="translate(10.528 17.431)" fill="#d3766a"/>
            <path id="Trazado_989216" data-name="Trazado 989216" d="M101.009,165.714c-.11.018-.091.173.011.187,5.152.681,8.727,4.369,11.607,8.407-1.834-1.366-3.967-1.823-5.851.426-.1.119.067.278.191.217a4.3,4.3,0,0,1,4.954.266,20.655,20.655,0,0,1,3.152,3.135c.327.36,1.021-.058.738-.5-.021-.032-.044-.065-.067-.1-1.421-5.977-8.2-13.1-14.736-12.044" transform="translate(10.964 17.989)" fill="#263238"/>
            <path id="Trazado_989217" data-name="Trazado 989217" d="M168.945,130.325l-12.317,4.866a206.641,206.641,0,0,0-22.749,7A182.725,182.725,0,0,0,108.832,154.1l-13.26,5.239a38.464,38.464,0,0,1-1.262-4.083c-2.611-10.1-6.143-36.279,22.883-47.761,29.095-11.5,44.756,10.008,49.858,19.072a39.379,39.379,0,0,1,1.894,3.755" transform="translate(10.06 11.318)" fill="#ffc727"/>
            <g id="Grupo_1153262" data-name="Grupo 1153262" transform="translate(140.81 115.518)" opacity="0.1">
              <g id="Grupo_1153261" data-name="Grupo 1153261">
                <g id="Grupo_1153260" data-name="Grupo 1153260" clip-path="url(#clip-path-16)">
                  <path id="Trazado_989218" data-name="Trazado 989218" d="M149.568,132.909l-6.192,2.453-16.364-31.07a34.044,34.044,0,0,1,4.882-.012c12.832,12.248,17.674,28.629,17.674,28.629" transform="translate(-127.013 -104.199)"/>
                </g>
              </g>
            </g>
            <path id="Trazado_989219" data-name="Trazado 989219" d="M131.7,140.166l18.01-6.089s-8.142-21.95-21.467-31.183c-1.122-.776-14.87,3.354-18.546,5.117-1.855.889-1.589,3.3-1.589,3.3,6.962-3.654,21.435,22.423,23.593,28.85" transform="translate(11.741 11.166)" fill="#ffc727"/>
            <g id="Grupo_1153265" data-name="Grupo 1153265" transform="translate(119.829 119.643)" opacity="0.5">
              <g id="Grupo_1153264" data-name="Grupo 1153264">
                <g id="Grupo_1153263" data-name="Grupo 1153263" clip-path="url(#clip-path-17)">
                  <path id="Trazado_989220" data-name="Trazado 989220" d="M134.577,138.636l-2.88.974c-2.16-6.43-16.635-32.5-23.6-28.846a3.992,3.992,0,0,1,.667-2.554c1.575-1.041,7.048.609,11.96,6.957a98.988,98.988,0,0,1,13.85,23.47" transform="translate(-108.088 -107.92)" fill="#fff"/>
                </g>
              </g>
            </g>
            <path id="Trazado_989221" data-name="Trazado 989221" d="M92.738,158.752a1.755,1.755,0,0,0,2.686.837c5.448-3.6,48.366-26.5,75.569-29.331,1.177-.124,1.53-4.444-.876-4.453-7.524-.023-23.47,3.906-38.884,9.9-18.844,7.33-31.382,15.146-37.026,19.028a3.242,3.242,0,0,0-1.47,4.017" transform="translate(10.051 13.666)" fill="#ffc727"/>
            <path id="Trazado_989222" data-name="Trazado 989222" d="M94.044,154.967c6.249-5.29,12.669-8.878,25.5-15.118a57.9,57.9,0,0,1,4.521-4.589c1.552-1.252,27.743-11.391,37.346-11.57.542-.011,2.559,2.7,2.559,2.7,4.7-.683,5.987-.358,5.987-.358s-4.759.18-19.221,4.164-35.914,13.358-45.444,18.372-11.245,6.395-11.245,6.395" transform="translate(10.216 13.436)" fill="#ffc727"/>
            <g id="Grupo_1153268" data-name="Grupo 1153268" transform="translate(105.707 137.121)" opacity="0.7">
              <g id="Grupo_1153267" data-name="Grupo 1153267">
                <g id="Grupo_1153266" data-name="Grupo 1153266" clip-path="url(#clip-path-18)">
                  <path id="Trazado_989223" data-name="Trazado 989223" d="M162.562,124.813a1.545,1.545,0,0,0-1.074-.388,68.091,68.091,0,0,0-14.453,3.182c-9.357,3.028-19.322,6.605-22.1,8.151-1.226.683-5.309,4.844-5.309,4.844a192.374,192.374,0,0,0-24.277,13.176c5.828-4.673,12.217-8.172,24.055-13.924a58.361,58.361,0,0,1,4.513-4.594c1.554-1.255,27.743-11.388,37.35-11.573.246,0,.777.534,1.295,1.127" transform="translate(-95.35 -123.686)" fill="#fff"/>
                </g>
              </g>
            </g>
            <g id="Grupo_1153271" data-name="Grupo 1153271" transform="translate(105.074 124.942)" opacity="0.2">
              <g id="Grupo_1153270" data-name="Grupo 1153270">
                <g id="Grupo_1153269" data-name="Grupo 1153269" clip-path="url(#clip-path-19)">
                  <path id="Trazado_989224" data-name="Trazado 989224" d="M94.779,138.4s1.287-17.65,14.59-25.7l5.215,7.069-7.253,4.1-3.472-1.274.47,3.7-1.888,1.263-1.507,2.009-.207,1.05s-3.641,1.931-5.948,7.783" transform="translate(-94.778 -112.7)" fill="#fff"/>
                </g>
              </g>
            </g>
          </g>
        </g>
        <g id="Grupo_1153275" data-name="Grupo 1153275">
          <g id="Grupo_1153274" data-name="Grupo 1153274" clip-path="url(#clip-path-4)">
            <path id="Trazado_989225" data-name="Trazado 989225" d="M239.444,75.243a41.866,41.866,0,0,1-66.833,33.625L152.093,114.1,160.635,95a41.881,41.881,0,1,1,78.809-19.758" transform="translate(16.521 3.624)" fill="#fff"/>
            <path id="Trazado_989226" data-name="Trazado 989226" d="M239.527,75.269a42.118,42.118,0,0,1-67.07,33.941l.334.067L152.3,114.6l-.976.253.41-.922,8.5-19.124.018.471a41.533,41.533,0,0,1-4.987-18.429c-.876-19.581,13-38.061,32.131-42.459,26.148-6.7,52.359,13.941,52.134,40.877m0,0c.1-26.858-25.976-47.252-51.987-40.287-18.6,4.494-32.162,22.745-31.214,41.832a41.778,41.778,0,0,0,4.861,17.96l.124.232-.106.239-8.584,19.085-.565-.67,20.541-5.151.184-.044a41.681,41.681,0,0,0,43.612,4.072c13.98-6.744,23.144-21.77,23.135-37.268" transform="translate(16.437 3.598)" fill="#263238"/>
            <path id="Trazado_989227" data-name="Trazado 989227" d="M188.825,98.5l-18.769-19,6.306-6.229,10.964,11.1L210.1,48.661l7.474,4.766Z" transform="translate(18.472 5.286)" fill="#ffc727"/>
          </g>
        </g>
        <g id="Grupo_1153277" data-name="Grupo 1153277">
          <g id="Grupo_1153276" data-name="Grupo 1153276" clip-path="url(#clip-path-4)">
            <path id="Trazado_989228" data-name="Trazado 989228" d="M20.31,438.872c140.854-.678,298.861-.684,439.715,0-140.854.684-298.862.678-439.715,0" transform="translate(2.206 47.617)" fill="#263238"/>
          </g>
        </g>
      </g>
    </g>
  </g>
</svg>
